<?xml version="1.0" standalone="no"?>
<!DOCTYPE svg PUBLIC "-//W3C//DTD SVG 20010904//EN"
 "http://www.w3.org/TR/2001/REC-SVG-20010904/DTD/svg10.dtd">
<svg version="1.0" xmlns="http://www.w3.org/2000/svg"
 width="1079.000000pt" height="1280.000000pt" viewBox="0 0 1079.000000 1280.000000"
 preserveAspectRatio="xMidYMid meet">
<metadata>
Created by potrace 1.15, written by Peter Selinger 2001-2017
</metadata>
<g transform="translate(0.000000,1280.000000) scale(0.100000,-0.100000)"
fill="#E8C872" stroke="none">
<path d="M1624 12779 c34 -110 38 -147 33 -319 -3 -96 -11 -231 -17 -300 -7
-69 -10 -192 -8 -275 5 -218 24 -250 178 -296 61 -19 62 -39 1 -77 -123 -76
-46 -166 157 -182 121 -10 149 -22 164 -71 15 -52 0 -71 -45 -58 -49 14 -125
11 -163 -7 -72 -34 -165 -180 -180 -283 -4 -25 -11 -52 -17 -59 -20 -26 -70
-44 -184 -68 -63 -13 -125 -29 -137 -35 -36 -19 -87 -73 -102 -108 -16 -39
-31 -181 -19 -181 4 0 26 15 49 33 23 19 51 39 63 45 30 17 117 15 208 -4 55
-11 80 -13 88 -5 29 29 -209 74 -281 53 -69 -21 -82 -17 -82 24 0 75 95 131
265 154 50 7 99 13 110 14 19 1 20 -4 17 -149 -5 -283 31 -518 100 -662 23
-48 56 -91 108 -143 93 -93 176 -138 281 -151 40 -5 77 -13 81 -17 5 -5 4 -30
-1 -58 -5 -27 -17 -116 -26 -199 -19 -173 -50 -337 -99 -515 -50 -181 -66
-270 -76 -405 -5 -66 -13 -133 -18 -150 -32 -103 -242 -450 -502 -830 -138
-202 -177 -332 -129 -432 26 -53 99 -119 142 -127 55 -10 151 -62 180 -95 34
-40 36 -102 7 -186 -36 -105 -26 -174 42 -272 19 -28 40 -70 46 -94 6 -24 16
-66 23 -93 8 -30 28 -67 56 -99 60 -70 87 -129 80 -175 -2 -21 -30 -96 -60
-167 -75 -175 -93 -244 -78 -309 22 -94 140 -217 238 -250 81 -27 225 -55 441
-87 166 -24 262 -32 487 -39 297 -9 355 -17 395 -54 14 -13 35 -27 47 -30 11
-4 28 -21 37 -39 8 -18 29 -52 46 -77 77 -114 150 -467 180 -874 15 -204 13
-466 -4 -561 -19 -107 -44 -203 -62 -238 -37 -70 -75 -73 -1109 -97 -834 -20
-1298 -55 -1780 -136 -310 -52 -687 -139 -755 -175 -59 -31 -8 -23 207 30 109
27 243 54 298 60 55 7 141 17 190 22 50 6 131 19 180 29 152 31 313 52 414 53
l95 2 8 -51 c4 -29 18 -82 32 -119 l24 -67 -46 -20 c-81 -34 -189 -68 -221
-68 -61 0 -92 91 -57 174 15 35 29 43 143 76 71 20 92 33 74 44 -5 3 -63 -4
-130 -15 -92 -16 -128 -18 -151 -11 -16 6 -32 7 -35 2 -3 -5 -1 -50 5 -101 37
-325 160 -634 440 -1103 150 -252 293 -423 659 -785 157 -157 331 -322 386
-368 129 -109 361 -264 504 -337 62 -32 114 -63 117 -70 3 -8 32 -16 73 -20
89 -8 252 -50 364 -93 87 -33 137 -39 144 -17 2 7 -11 17 -28 23 -25 8 -30 14
-21 23 8 8 21 5 49 -13 56 -36 90 -49 128 -49 51 0 44 21 -20 64 -34 22 -57
45 -61 61 -8 34 45 142 97 197 21 23 38 42 37 44 -2 1 -57 20 -123 42 -538
180 -1060 519 -1459 950 -286 309 -561 728 -730 1112 -73 165 -137 345 -156
434 -11 54 -11 61 6 73 19 14 74 17 145 7 l44 -6 59 -142 c154 -370 462 -930
624 -1134 97 -123 303 -340 456 -481 254 -235 330 -289 591 -422 236 -119 512
-216 539 -189 16 16 -3 25 -119 61 -289 91 -527 213 -779 403 -385 289 -710
670 -957 1121 -187 342 -348 679 -365 763 -5 27 -3 31 22 36 93 19 607 48 594
33 -8 -9 -219 -57 -302 -70 -74 -10 -79 -10 -107 11 -35 26 -51 28 -51 7 0
-15 56 -48 102 -59 33 -8 92 4 288 60 125 35 181 46 290 54 179 13 410 13 410
0 0 -6 -7 -13 -15 -16 -25 -10 -6 -24 33 -24 21 0 62 6 92 14 80 20 118 25
295 36 273 18 352 48 379 142 33 116 41 230 41 583 0 367 -8 472 -57 725 -55
291 -162 495 -286 548 -70 30 -144 40 -452 57 -479 27 -778 77 -906 151 -69
39 -131 117 -154 192 -25 80 -23 90 46 250 74 168 89 226 75 279 -6 22 -32 67
-57 99 -84 108 -104 174 -65 213 30 30 79 36 297 36 178 0 204 -2 221 -17 21
-19 53 -24 53 -9 0 6 -4 13 -10 16 -5 3 -10 15 -10 25 0 27 -30 40 -93 40 -36
0 -59 5 -67 15 -7 8 -23 15 -35 15 -30 0 -119 47 -187 98 -61 47 -153 92 -186
92 -28 0 -62 -17 -62 -31 0 -7 17 -9 49 -4 59 8 78 -1 176 -80 74 -59 122 -88
168 -99 15 -3 27 -11 27 -18 0 -8 -29 -9 -97 -6 -90 5 -139 1 -233 -17 -32 -6
-39 -3 -73 32 -74 75 -91 144 -62 239 59 190 33 248 -146 325 -160 69 -195
109 -186 212 8 86 65 196 237 457 156 238 224 350 326 545 73 141 78 158 99
335 19 170 35 250 79 420 46 176 80 354 110 580 14 100 27 184 30 187 6 7 212
-24 321 -48 228 -50 683 -184 1275 -376 l334 -108 17 -100 c10 -55 42 -248 73
-429 31 -181 74 -460 96 -620 82 -595 119 -808 146 -843 13 -17 13 -17 14 2 0
11 -13 88 -29 170 -53 269 -101 635 -101 770 0 45 -9 117 -20 163 -11 46 -20
104 -20 129 0 25 -6 57 -14 71 -8 15 -21 103 -31 202 -18 195 -48 374 -71 428
-22 53 -42 72 -110 103 -69 31 -374 129 -479 154 -38 8 -167 47 -285 85 -306
98 -434 136 -610 180 -314 79 -334 82 -535 89 -169 6 -196 9 -243 30 -64 29
-144 112 -189 197 -52 98 -100 257 -112 372 -22 212 -8 537 29 662 24 80 83
167 131 192 36 18 37 18 173 -11 167 -37 188 -46 203 -91 30 -87 -9 -414 -53
-451 -9 -8 -35 -6 -90 5 -75 16 -103 14 -74 -4 8 -5 40 -14 70 -20 71 -14 86
-23 82 -51 -3 -31 -50 -131 -65 -141 -7 -4 -43 -5 -82 -3 l-70 5 40 -14 c22
-8 52 -15 67 -15 17 -1 28 -7 30 -18 7 -35 -13 -149 -31 -173 -22 -30 -88 -70
-118 -70 -30 0 -53 37 -53 87 0 53 16 68 85 84 74 16 79 29 12 29 -85 0 -84
-4 -57 250 12 120 26 224 30 231 7 10 22 9 77 -4 37 -9 86 -19 108 -22 36 -6
38 -5 22 8 -9 8 -36 17 -60 21 -72 11 -108 27 -117 51 -5 13 -4 64 3 124 10
91 9 103 -6 118 -9 10 -17 13 -17 7 0 -5 -13 -111 -29 -234 -78 -592 -85 -798
-30 -856 32 -35 57 -30 105 21 l43 44 46 -61 c39 -52 46 -67 41 -93 -18 -94
-19 -108 -6 -100 13 8 60 103 60 123 0 7 -17 31 -39 55 -21 23 -43 52 -50 64
-27 52 -2 236 35 256 35 19 134 120 134 136 0 9 -19 -4 -50 -34 -42 -41 -52
-47 -60 -35 -12 19 -5 57 36 203 42 147 58 181 82 168 31 -17 82 -77 91 -107
4 -17 1 -99 -10 -204 -18 -187 -24 -220 -46 -263 -13 -26 -12 -28 12 -37 21
-8 24 -14 19 -35 -7 -27 4 -33 24 -13 8 8 12 49 12 119 0 123 5 143 56 198 39
44 64 52 64 22 0 -10 7 -24 16 -31 12 -11 18 -10 31 3 15 14 15 21 3 57 -12
36 -12 43 1 51 24 15 29 10 29 -25 0 -19 4 -37 9 -41 19 -11 33 36 26 85 -8
57 -1 77 21 59 8 -6 14 -27 14 -45 0 -19 4 -34 10 -34 11 0 16 22 24 98 3 30
17 74 33 103 49 91 289 299 344 299 26 0 34 -41 20 -107 -17 -85 -15 -92 24
-108 60 -26 73 -81 28 -127 l-26 -27 36 -41 c21 -23 37 -50 37 -64 0 -42 -18
-75 -45 -82 -34 -8 -32 -19 15 -70 66 -72 69 -87 31 -140 -36 -52 -34 -66 5
-38 62 44 80 54 100 54 54 0 110 -91 85 -139 -8 -14 -21 -21 -41 -21 -21 0
-30 -5 -30 -16 0 -20 77 -134 96 -141 27 -10 27 5 0 53 -32 57 -32 61 -3 92
31 33 28 94 -7 155 -27 45 -27 49 -12 72 34 52 11 145 -49 191 -31 24 -65 32
-65 16 0 -5 12 -19 26 -33 56 -52 68 -108 33 -153 -27 -35 -40 -33 -82 13 -46
51 -51 71 -32 127 17 50 14 83 -12 135 -11 22 -13 45 -8 88 7 57 6 59 -34 105
l-40 47 20 51 c27 69 19 105 -28 124 -35 15 -35 15 -17 36 27 30 104 78 126
78 22 0 24 -32 3 -50 -21 -17 -19 -44 6 -66 27 -25 49 -67 49 -96 0 -13 -11
-41 -25 -63 -30 -49 -31 -67 -4 -91 53 -48 64 -117 24 -154 -14 -13 -25 -27
-25 -32 0 -17 42 -7 65 17 34 33 34 92 -2 155 l-27 47 19 78 c17 73 17 80 1
131 -25 79 -31 150 -15 170 16 19 142 84 164 84 27 0 18 -49 -15 -78 -35 -31
-38 -42 -11 -42 24 0 69 52 77 88 14 68 61 108 153 132 127 33 212 -65 126
-146 -40 -38 -42 -44 -15 -44 60 0 94 47 92 128 0 42 -5 51 -38 80 -30 26 -35
35 -24 42 10 6 11 12 3 22 -9 10 -3 13 31 15 66 2 243 50 329 89 43 20 120 44
170 55 104 21 281 36 257 21 -8 -5 -49 -12 -91 -15 -42 -4 -87 -11 -100 -17
-18 -8 14 -9 116 -5 173 6 198 11 190 36 -6 17 -1 19 52 19 63 0 314 -27 321
-35 5 -5 -11 -12 -48 -19 -14 -3 38 -4 115 -2 172 4 196 0 206 -35 12 -46 -1
-52 -133 -61 -115 -9 -312 -3 -344 9 -8 3 -21 17 -29 32 -7 15 -29 35 -48 46
-33 17 -37 18 -88 2 -30 -9 -102 -24 -160 -32 -58 -9 -118 -20 -135 -25 -51
-15 70 -12 171 5 119 19 169 19 186 -1 21 -25 -9 -40 -104 -53 -45 -6 -93 -12
-107 -14 -14 -3 22 -5 80 -7 58 -1 119 -6 135 -10 l30 -7 -26 -11 c-14 -6 -66
-18 -115 -28 -163 -31 -150 -45 20 -19 54 8 102 12 107 9 5 -3 9 -13 9 -23 0
-31 -22 -37 -322 -92 -65 -12 -118 -24 -118 -26 0 -9 172 7 315 28 72 10 133
19 138 19 13 0 7 -47 -8 -60 -16 -13 -188 -45 -306 -55 -42 -4 -82 -11 -90
-15 -30 -19 6 -23 94 -12 193 25 304 35 323 28 18 -7 18 -8 -4 -26 -12 -10
-47 -24 -78 -31 -30 -7 -57 -15 -59 -18 -2 -3 31 -6 73 -6 77 0 77 0 80 -27 4
-37 -11 -42 -198 -68 -173 -24 -305 -24 -305 0 0 24 64 49 156 61 46 7 91 16
99 20 22 12 -75 11 -144 -2 -32 -6 -69 -8 -82 -5 -30 8 -40 45 -54 196 -17
179 -46 270 -87 270 -16 0 -16 3 2 -145 18 -151 30 -405 20 -405 -4 0 -25 18
-46 40 -22 22 -48 40 -59 40 -22 0 -27 -15 -9 -26 24 -14 69 -99 69 -129 0
-31 -34 -75 -58 -75 -15 0 -25 -17 -17 -30 6 -10 56 13 102 46 19 13 24 14 27
3 5 -16 104 -766 141 -1074 29 -240 53 -383 66 -391 5 -3 9 16 9 42 0 66 16
45 29 -36 14 -82 14 -170 1 -170 -5 0 -10 16 -10 36 0 27 -7 43 -29 63 -42 40
-300 140 -531 206 -398 115 -1039 271 -1275 311 -55 9 -111 22 -124 29 -23 12
-22 12 25 36 40 20 54 34 76 79 55 109 44 221 -23 255 -32 17 -39 18 -39 7 0
-5 11 -15 25 -22 51 -28 58 -163 12 -231 -28 -42 -100 -79 -168 -86 -136 -14
-222 56 -275 221 l-22 71 5 -65 c6 -77 28 -133 72 -182 34 -39 37 -52 19 -109
-15 -51 -2 -62 27 -25 23 28 25 29 50 16 24 -13 28 -13 37 4 9 16 19 17 77 11
150 -15 828 -163 1171 -256 317 -86 804 -258 849 -300 15 -14 21 -32 21 -63 0
-51 27 -238 104 -731 112 -718 177 -1225 161 -1274 -3 -11 -36 -40 -73 -65
-73 -49 -129 -102 -119 -113 4 -3 37 15 75 40 86 60 153 76 243 59 88 -16 149
-56 169 -110 17 -46 30 -46 30 0 0 56 -128 158 -199 158 -49 0 -54 11 -68 152
-7 73 -22 179 -34 235 -11 57 -19 122 -17 145 3 47 -1 45 148 76 l45 10 -70 2
c-98 3 -119 10 -123 42 -4 38 26 54 133 72 179 29 182 29 205 6 13 -13 20 -31
18 -47 -3 -28 -17 -38 -60 -48 -16 -3 -28 -10 -28 -16 0 -8 16 -9 53 -4 76 11
86 9 128 -25 32 -25 39 -28 47 -15 7 14 11 13 27 -5 10 -11 24 -20 32 -20 22
0 1 31 -80 117 -87 94 -110 129 -132 208 -23 77 -15 213 19 346 59 234 133
278 349 208 72 -23 109 -42 154 -78 81 -65 157 -175 184 -264 11 -40 34 -96
50 -126 30 -57 36 -86 19 -96 -5 -3 -9 -65 -9 -143 1 -158 -29 -329 -82 -476
-25 -71 -44 -101 -113 -183 -80 -96 -137 -181 -210 -315 -20 -37 -48 -81 -63
-99 -35 -41 -122 -80 -193 -86 -99 -9 -200 59 -200 136 0 49 -13 69 -34 52
-35 -29 -5 -124 57 -178 50 -44 97 -57 171 -48 34 4 79 8 101 9 l40 1 3 -58
c6 -114 -43 -243 -120 -318 -109 -108 -271 -105 -440 7 -140 94 -199 193 -201
340 -1 69 3 89 27 138 47 95 125 136 262 136 79 0 98 14 64 45 -27 25 -159 17
-215 -12 -201 -104 -231 -387 -62 -579 51 -58 153 -131 225 -160 87 -36 190
-34 270 6 33 17 77 49 97 72 66 73 125 236 125 346 0 29 6 67 14 85 21 47 119
147 144 147 37 0 902 -139 1090 -175 198 -39 286 -66 297 -93 4 -9 11 -50 16
-91 5 -41 14 -78 21 -83 18 -12 -36 -58 -68 -58 -54 0 -753 171 -1044 255
-268 78 -301 87 -307 81 -21 -21 275 -109 867 -256 222 -56 419 -108 436 -116
34 -16 47 -40 64 -114 12 -58 13 -157 0 -165 -5 -3 -80 22 -166 55 -86 34
-158 59 -161 56 -9 -9 60 -45 167 -87 58 -23 114 -52 126 -64 32 -34 66 -244
45 -275 -9 -13 -60 10 -322 143 -171 87 -313 156 -316 154 -6 -6 88 -61 252
-147 240 -127 279 -159 342 -283 67 -135 125 -319 105 -339 -5 -5 -26 -2 -51
8 -23 9 -43 15 -45 13 -2 -2 3 -38 10 -79 8 -41 17 -135 21 -209 6 -129 5
-133 -13 -123 -10 6 -315 304 -677 661 -362 358 -663 651 -670 651 -7 0 105
-114 248 -254 255 -249 759 -769 868 -895 74 -85 102 -140 122 -236 20 -97 26
-298 8 -316 -36 -36 -266 229 -605 698 -100 138 -186 243 -199 243 -5 0 24
-42 64 -93 39 -51 148 -204 242 -341 93 -137 197 -279 231 -316 78 -85 89
-117 80 -234 -7 -91 -28 -212 -40 -223 -27 -27 -264 316 -474 687 -58 102
-151 264 -207 360 -56 96 -137 237 -179 312 -42 76 -82 140 -87 144 -23 14
201 -408 306 -576 29 -47 106 -177 170 -290 65 -113 158 -269 207 -348 128
-205 133 -217 119 -311 -13 -81 -37 -175 -53 -204 -9 -18 -10 -18 -29 -1 -49
44 -223 364 -371 684 -203 436 -254 542 -410 855 -171 341 -228 449 -235 442
-6 -7 115 -263 269 -571 72 -144 211 -432 310 -641 99 -209 215 -445 258 -525
91 -168 105 -210 90 -273 -19 -85 -87 -217 -113 -217 -7 0 -18 18 -24 39 -7
22 -87 207 -179 413 -226 506 -253 574 -483 1187 -110 294 -205 539 -212 545
-16 16 -14 10 151 -449 246 -682 288 -789 476 -1197 131 -286 154 -348 154
-415 0 -89 -62 -267 -105 -303 -13 -11 -18 -11 -30 1 -61 63 -438 1191 -585
1748 -49 185 -69 247 -70 211 -1 -105 275 -1036 470 -1585 37 -104 73 -214 80
-242 11 -51 11 -55 -19 -115 -39 -82 -146 -248 -169 -263 -29 -20 -81 -35 -87
-25 -7 12 32 90 45 90 5 0 12 -4 15 -10 3 -5 11 -10 17 -10 7 0 9 16 4 46 -12
89 -340 1452 -352 1463 -15 14 58 -329 171 -809 46 -195 91 -393 100 -440 9
-47 17 -93 19 -102 10 -47 -52 -219 -96 -265 -15 -16 -33 -23 -59 -23 -36 0
-39 2 -47 38 -6 20 -21 127 -36 237 -14 110 -37 282 -51 381 -22 160 -44 358
-101 882 -8 79 -26 212 -40 295 -13 84 -40 253 -59 377 -49 314 -75 459 -86
466 -5 3 -9 1 -9 -5 0 -19 81 -568 105 -711 28 -165 69 -487 85 -665 33 -361
83 -780 131 -1100 42 -278 27 -248 118 -240 158 13 252 51 461 182 254 160
498 353 694 548 155 153 189 200 293 392 132 244 209 428 237 565 22 108 30
438 17 698 -21 410 -56 742 -136 1275 -24 165 -63 433 -86 595 -64 460 -128
795 -150 773 -4 -4 -10 -21 -12 -38 -3 -16 -3 -10 -1 15 3 25 7 61 10 80 4 23
-11 117 -40 260 -25 124 -70 376 -101 561 -30 185 -71 400 -91 480 -19 79 -34
162 -32 184 3 39 5 41 68 72 76 37 284 113 405 148 146 42 240 57 328 53 98
-4 140 -23 352 -154 207 -128 259 -152 351 -165 107 -14 154 -27 154 -42 0 -7
16 -46 36 -87 31 -66 199 -451 331 -760 63 -147 167 -416 290 -750 58 -157
127 -345 154 -418 27 -73 81 -253 120 -400 95 -361 171 -607 369 -1207 294
-890 567 -1769 974 -3135 137 -463 296 -1036 296 -1071 0 -21 -97 -4 -520 91
-693 155 -966 220 -1118 265 -207 61 -245 70 -521 126 -210 42 -569 133 -896
226 -49 14 -117 32 -150 39 -33 7 -82 19 -110 25 -27 6 -140 41 -250 76 -369
119 -499 131 -524 50 -5 -18 -12 -59 -16 -92 -11 -101 -84 -655 -125 -950 -21
-154 -44 -339 -50 -411 -20 -247 -104 -776 -126 -799 -24 -24 -233 -75 -794
-195 -129 -27 -293 -66 -365 -85 -268 -72 -397 -105 -670 -170 -319 -76 -389
-96 -384 -110 7 -20 100 -5 375 60 334 79 399 93 462 100 26 2 73 16 103 29
29 14 112 41 184 61 120 33 209 52 560 119 72 14 236 54 365 90 129 35 298 80
375 100 77 19 169 48 205 64 77 35 279 101 440 143 272 72 1016 315 1300 424
80 31 177 67 215 80 175 60 360 142 364 160 3 16 -1 17 -35 11 -22 -5 -52 -10
-67 -13 l-29 -6 21 41 c11 22 52 92 91 156 99 162 226 401 249 466 22 61 34
71 51 40 9 -16 15 -19 23 -11 26 26 157 4 682 -114 532 -120 695 -155 714
-155 31 0 27 35 -24 234 -160 626 -871 2968 -1245 4101 -159 481 -230 709
-329 1055 -173 602 -470 1386 -853 2248 l-130 294 31 38 c41 52 65 109 101
244 42 157 60 297 60 476 0 238 -37 427 -107 550 -66 115 -83 116 -287 16
-249 -122 -362 -150 -483 -120 -176 44 -674 246 -833 339 -172 99 -705 237
-1085 279 -520 59 -940 75 -1115 43 -336 -62 -784 -207 -1009 -328 -124 -67
-323 -206 -481 -337 -80 -66 -200 -197 -332 -362 -54 -69 -110 -138 -124 -155
l-25 -30 7 96 c6 108 -1 132 -56 184 -18 17 -45 48 -61 69 -27 37 -29 45 -29
140 -1 65 -6 115 -16 141 -8 22 -18 90 -22 150 -7 94 -11 115 -32 143 -33 45
-114 105 -177 132 -29 12 -53 28 -53 34 0 7 35 33 78 58 42 26 93 64 114 85
52 55 55 66 137 498 49 258 108 444 162 514 23 29 25 71 4 71 -9 0 -35 -18
-60 -41 -88 -81 -192 -330 -236 -564 l-22 -115 -58 55 c-67 64 -110 85 -174
85 -53 0 -97 -16 -159 -59 -25 -17 -47 -31 -50 -31 -3 0 -3 84 1 188 9 285
-18 401 -110 475 -64 51 -71 55 -63 26z m812 -256 c-37 -128 -51 -195 -95
-449 -22 -126 -48 -252 -57 -281 -24 -75 -65 -118 -153 -162 -42 -22 -87 -51
-100 -65 -14 -14 -31 -26 -39 -26 -17 0 -240 116 -266 139 -10 9 -28 34 -40
56 -19 36 -21 54 -20 200 1 88 9 227 18 310 18 153 43 316 51 324 17 16 20
-49 20 -362 0 -390 1 -396 67 -464 41 -42 86 -57 173 -57 76 0 135 22 135 50
0 18 1 18 -91 -15 -63 -23 -104 -17 -166 22 -98 64 -111 245 -23 338 43 45
100 63 187 57 53 -3 68 -9 94 -33 61 -58 86 -153 55 -213 -21 -41 -55 -68
-119 -98 -64 -28 -108 -28 -152 0 -22 14 -23 18 -10 43 13 27 20 97 15 158 -1
20 -6 7 -15 -40 -7 -38 -14 -78 -14 -88 -1 -11 -10 -21 -21 -24 -29 -8 -25
-27 15 -62 32 -28 42 -31 100 -31 116 0 202 61 244 174 12 32 41 137 65 234
25 97 59 220 76 272 67 198 118 270 66 93z m3224 -944 c177 -24 470 -85 470
-98 0 -5 -39 -14 -87 -20 -49 -7 -128 -19 -178 -26 l-90 -14 115 5 c63 3 160
11 215 19 147 19 242 -3 289 -68 31 -42 30 -156 -1 -189 -13 -14 -23 -28 -23
-34 0 -5 16 -29 35 -53 19 -24 35 -49 35 -55 0 -6 -16 -31 -35 -55 -19 -24
-35 -48 -35 -53 0 -18 62 27 86 62 29 42 30 56 3 99 -16 26 -19 43 -14 70 3
20 8 73 12 119 5 76 7 82 27 82 25 0 146 -56 146 -67 0 -5 -20 -31 -45 -60
-50 -57 -54 -73 -25 -110 31 -39 26 -79 -15 -124 -42 -47 -44 -70 -8 -122 l27
-39 -37 -72 c-20 -40 -37 -80 -37 -88 0 -8 11 -29 25 -48 35 -47 32 -72 -12
-111 -52 -45 -56 -53 -36 -93 14 -31 15 -39 3 -61 -18 -33 -26 -32 -39 7 -10
27 -96 531 -142 829 -15 98 -19 105 -56 91 -15 -7 -71 -19 -123 -28 -52 -9
-96 -17 -97 -18 -2 -1 47 0 108 2 74 3 114 1 122 -7 6 -6 8 -14 4 -17 -4 -4
-125 -24 -269 -45 -145 -21 -282 -41 -305 -44 -53 -8 -56 -25 -5 -25 52 0 272
26 434 51 146 23 168 20 168 -22 0 -23 -1 -24 -245 -58 -243 -35 -324 -49
-345 -62 -27 -15 59 -10 231 16 295 43 386 43 377 -3 -5 -30 -69 -50 -208 -67
-331 -39 -387 -46 -422 -56 -47 -12 -51 -34 -5 -25 28 5 440 56 583 73 57 6
71 -7 54 -52 -12 -32 -44 -40 -275 -65 -255 -28 -346 -41 -369 -52 -42 -22 7
-25 129 -8 188 27 467 51 504 44 45 -9 59 -37 63 -129 l3 -80 -35 -3 c-54 -4
-80 -11 -80 -23 0 -7 19 -9 60 -4 50 6 61 4 66 -9 12 -32 -24 -53 -119 -71
-140 -27 -140 -31 5 -31 l133 1 3 -28 c4 -37 -11 -54 -59 -67 -70 -19 -633
-79 -651 -69 -9 5 -19 17 -22 26 -8 26 -52 370 -75 593 -27 252 -49 395 -68
443 l-16 39 -61 -6 c-34 -4 -137 -13 -229 -20 -92 -8 -171 -17 -175 -21 -4 -4
97 -5 223 -3 l230 3 3 -28 c3 -23 -2 -30 -32 -42 -40 -17 -424 -62 -448 -52
-18 6 -42 122 -37 172 l4 30 250 3 c138 1 255 4 262 6 11 5 9 20 -13 115 -5
23 -4 23 58 17 35 -4 97 -12 138 -17z m-3596 -99 c106 -34 179 -79 213 -129
41 -60 26 -182 -23 -189 -28 -4 -54 28 -84 101 -34 84 -61 98 -199 107 -108 6
-133 13 -164 48 -24 26 -13 47 36 71 57 29 110 26 221 -9z m2853 -57 c-3 -10
-5 -4 -5 12 0 17 2 24 5 18 2 -7 2 -21 0 -30z m-1141 8 c-8 -12 -297 -144
-303 -137 -6 6 68 44 197 102 99 45 115 50 106 35z m1161 -158 c-3 -10 -5 -4
-5 12 0 17 2 24 5 18 2 -7 2 -21 0 -30z m1771 1 c36 -25 82 -94 82 -123 0 -18
-18 -48 -50 -86 -27 -33 -50 -62 -50 -66 0 -3 14 -23 30 -44 46 -58 39 -112
-21 -163 -16 -13 -29 -28 -29 -33 0 -16 56 -9 73 9 45 50 61 152 30 198 -16
25 -15 28 10 78 20 39 27 68 27 110 0 63 13 77 56 58 24 -12 33 -45 14 -57
-15 -9 -12 -50 6 -88 15 -32 15 -36 -6 -76 -24 -48 -20 -63 10 -36 33 30 37
81 9 131 -29 54 -19 68 49 67 78 -1 115 -32 77 -63 -8 -7 -15 -17 -15 -22 0
-5 7 -16 15 -24 24 -24 19 -74 -12 -106 -26 -27 -26 -27 -10 -70 21 -54 21
-71 1 -110 -15 -29 -15 -34 0 -65 18 -38 21 -79 6 -88 -13 -8 -13 -45 -1 -45
14 0 51 50 51 70 0 10 -7 35 -16 56 -15 36 -15 41 2 72 17 32 17 36 1 83 l-18
49 27 45 c23 40 25 52 20 99 -5 36 -3 56 4 61 15 9 71 -2 94 -20 18 -14 18
-16 2 -33 -12 -14 -16 -35 -15 -76 2 -42 -2 -61 -16 -76 -14 -16 -16 -23 -7
-32 10 -10 18 -7 38 13 18 19 27 42 34 87 4 34 11 66 15 72 11 17 42 11 132
-26 192 -79 346 -56 662 100 63 31 124 56 136 56 38 0 77 -41 112 -118 51
-110 64 -189 64 -389 0 -207 -10 -290 -62 -493 -49 -191 -76 -275 -95 -291
-23 -19 -119 -5 -214 31 -47 18 -166 71 -265 117 -276 131 -291 135 -425 139
-63 2 -118 3 -122 4 -5 0 -8 20 -8 44 0 46 -16 69 -31 45 -5 -8 -9 -30 -9 -49
0 -41 -7 -53 -37 -69 -38 -20 -81 -14 -99 14 -16 24 -16 26 9 49 42 39 47 121
9 134 -8 2 -12 -11 -12 -40 0 -41 -3 -46 -40 -67 -22 -12 -40 -25 -40 -27 0
-3 12 -26 27 -51 20 -35 23 -47 13 -53 -25 -16 -301 -112 -306 -107 -3 3 4 23
15 46 13 25 21 59 21 91 0 44 -4 56 -30 82 -34 34 -51 32 -26 -4 22 -32 20
-81 -9 -162 -29 -84 -56 -116 -80 -96 -19 15 -40 87 -60 200 -22 125 -20 145
14 171 32 24 46 52 57 114 4 22 15 56 25 75 23 42 24 114 4 154 -19 37 -19 45
5 97 21 46 27 134 10 144 -5 3 -14 14 -20 25 -8 15 -2 28 30 66 40 48 40 49
40 136 0 91 8 124 35 151 20 21 25 21 53 1z m-1205 -17 c13 -34 -25 -51 -157
-72 -50 -7 -131 -17 -181 -20 -110 -8 -145 -14 -145 -26 0 -14 144 -10 255 7
55 8 130 18 167 21 78 7 83 2 82 -81 0 -38 -5 -53 -23 -68 -22 -17 -22 -18 -3
-18 45 0 69 -62 36 -94 -12 -13 -38 -16 -119 -16 -104 0 -282 -16 -333 -29
-27 -8 -29 -28 -2 -23 8 1 110 10 227 19 205 16 213 16 233 -2 12 -11 20 -31
20 -50 0 -40 0 -39 -228 -60 -176 -17 -288 -19 -296 -7 -3 5 -8 67 -12 139
l-7 130 114 21 114 20 -129 -1 -130 -2 3 -65 c1 -36 9 -132 16 -215 8 -82 11
-153 6 -158 -10 -10 -134 -30 -350 -56 -90 -11 -169 -25 -174 -30 -16 -16 46
-14 223 9 85 11 181 20 213 20 57 0 58 0 64 -32 l7 -33 13 30 c12 28 13 26 10
-35 l-2 -64 -105 -13 c-165 -20 -364 -54 -374 -64 -16 -14 47 -11 194 11 74
11 169 20 211 20 64 0 79 -3 95 -21 18 -20 18 -21 -3 -60 -12 -22 -18 -37 -13
-34 32 20 41 -159 9 -190 -19 -19 -124 -41 -264 -55 -60 -6 -134 -15 -162 -21
-67 -13 -72 -34 -6 -25 120 16 456 46 462 40 3 -3 6 -39 6 -79 0 -117 -12
-124 -265 -150 -170 -17 -200 -22 -200 -37 0 -6 17 -8 43 -4 23 3 112 13 197
21 85 9 171 20 190 25 19 6 38 10 43 10 4 0 7 -58 7 -129 l0 -129 -27 -5 c-16
-3 -86 -11 -158 -17 -182 -15 -214 -20 -220 -31 -12 -19 29 -21 162 -5 76 8
168 18 206 22 l67 6 1 -48 c2 -97 17 -102 18 -7 1 108 0 107 108 117 40 3 137
17 217 31 80 14 163 25 185 25 45 0 43 3 61 -109 16 -108 5 -115 -230 -155
-85 -15 -189 -34 -230 -44 l-75 -17 46 -3 c25 -2 142 13 260 32 225 37 239 36
239 -9 0 -34 -17 -42 -110 -54 -238 -31 -400 -64 -400 -82 0 -11 -2 -11 102 6
139 22 380 47 405 40 32 -8 32 -59 1 -79 -39 -25 -284 -68 -467 -82 l-93 -7 6
-101 c4 -55 9 -115 12 -132 l6 -30 -194 -52 c-215 -58 -261 -63 -278 -32 -9
17 -6 25 18 49 30 30 60 41 172 61 76 14 181 47 195 62 14 15 -52 4 -207 -33
-150 -36 -179 -35 -189 4 -11 40 11 50 183 87 163 34 220 51 225 67 3 7 -27 4
-79 -8 -46 -10 -139 -28 -207 -39 -99 -17 -125 -19 -132 -9 -12 20 -38 174
-45 269 -5 67 -4 88 7 96 8 6 47 16 88 22 106 15 117 34 16 25 -143 -13 -126
-25 -152 112 -29 152 -31 157 -48 125 -13 -24 -13 -24 -19 20 -3 25 -8 131
-11 235 -5 184 -23 391 -44 526 -38 238 -53 536 -28 557 15 13 179 37 358 53
l137 12 6 36 c3 20 6 56 7 81 l1 45 13 -40 13 -40 1 63 c1 46 5 64 16 68 21 8
388 51 451 53 35 1 54 -3 57 -12z m-1126 -309 c-2 -18 -4 -4 -4 32 0 36 2 50
4 33 2 -18 2 -48 0 -65z m20 -240 c-2 -18 -4 -6 -4 27 0 33 2 48 4 33 2 -15 2
-42 0 -60z m1167 16 c22 -58 -8 -79 -134 -94 -52 -7 -97 -14 -100 -17 -3 -3
53 -4 125 -2 l130 4 11 -95 c17 -129 42 -384 50 -501 l6 -96 -30 -6 c-17 -3
-120 -16 -229 -27 -228 -24 -243 -26 -243 -42 0 -12 65 -8 250 17 63 9 149 17
190 18 l75 2 3 -38 c3 -34 0 -39 -31 -52 -19 -8 -72 -17 -118 -21 -90 -7 -133
-21 -108 -34 8 -4 48 -2 89 6 133 24 180 14 180 -36 0 -43 -73 -65 -357 -104
-100 -15 -189 -26 -198 -26 -13 0 -15 17 -15 108 0 59 -5 157 -10 217 -12 120
-9 150 18 164 9 5 89 19 177 30 184 25 253 40 160 35 -49 -3 -311 -23 -334
-26 -23 -2 -31 6 -31 31 0 50 6 52 333 105 141 23 167 29 155 41 -2 3 -97 -6
-209 -20 -112 -13 -223 -27 -246 -29 -23 -3 -45 -2 -48 3 -2 5 -11 76 -19 157
-10 110 -11 151 -3 156 6 4 42 12 80 19 37 7 70 15 72 18 2 4 -26 6 -62 6 -56
0 -67 3 -84 24 -10 13 -19 34 -19 46 0 30 3 30 260 51 113 9 207 18 209 20 11
11 50 2 55 -12z m793 -395 c37 -31 -7 -62 -108 -78 -35 -6 -109 -15 -164 -21
-173 -18 -320 -41 -330 -52 -7 -6 8 -8 45 -4 30 4 154 18 275 31 121 14 237
27 258 29 33 4 39 1 47 -19 11 -28 25 -175 17 -175 -3 0 -77 -14 -164 -30 -87
-17 -219 -40 -293 -51 -151 -22 -206 -35 -215 -49 -10 -16 18 -13 326 40 162
28 310 50 329 48 30 -3 35 -7 38 -30 3 -21 -3 -30 -26 -42 -34 -18 -189 -41
-372 -56 -186 -15 -230 -21 -230 -33 0 -12 87 -7 403 25 254 25 250 26 245
-42 -3 -31 -8 -36 -41 -47 -20 -7 -92 -22 -159 -33 -136 -23 -168 -36 -68 -26
125 12 268 10 284 -3 17 -14 22 -66 7 -75 -18 -12 -164 -38 -391 -72 -218 -32
-264 -43 -247 -60 4 -4 132 12 284 36 153 24 298 44 323 45 l45 0 17 -52 c21
-64 73 -311 67 -318 -3 -2 -79 -14 -170 -25 -300 -36 -483 -62 -504 -70 -35
-15 37 -11 225 10 96 11 236 23 311 27 135 6 136 6 152 -18 10 -13 17 -27 17
-31 0 -22 -62 -33 -473 -84 -215 -26 -237 -30 -237 -45 0 -12 46 -11 90 1 95
25 582 65 611 49 44 -23 30 -92 -21 -102 -17 -4 -138 -18 -270 -32 -131 -14
-262 -30 -291 -35 -28 -6 -53 -10 -55 -10 -2 0 -4 -3 -4 -8 0 -10 176 1 435
29 122 12 228 20 237 17 10 -4 18 -25 23 -63 3 -31 5 -58 3 -60 -2 -2 -143
-22 -313 -44 -328 -44 -381 -53 -398 -70 -17 -17 42 -14 171 9 101 18 265 36
479 55 l71 6 11 -51 c14 -66 14 -68 -7 -79 -32 -17 -698 -77 -732 -66 -21 7
-24 23 -45 260 -9 94 -29 249 -45 345 -16 96 -39 256 -50 355 -23 192 -36 265
-68 387 -27 99 -54 291 -50 347 4 55 -7 51 252 86 340 45 412 49 443 24z
m-1880 -231 c-3 -7 -5 -2 -5 12 0 14 2 19 5 13 2 -7 2 -19 0 -25z m-2356 4
c-5 -10 -27 -38 -49 -62 -31 -34 -43 -42 -52 -34 -21 21 -6 48 44 82 55 36 71
41 57 14z m5837 -241 c46 -23 55 -36 20 -26 -45 14 -138 58 -138 66 0 10 61
-11 118 -40z m-2231 -248 c-3 -10 -5 -2 -5 17 0 19 2 27 5 18 2 -10 2 -26 0
-35z m830 -180 c-3 -10 -5 -4 -5 12 0 17 2 24 5 18 2 -7 2 -21 0 -30z m-768
-268 c50 -297 75 -522 56 -503 -16 15 -106 624 -104 701 1 41 1 41 10 12 4
-16 22 -111 38 -210z m-1180 -22 c0 -34 -1 -36 -11 -16 -6 12 -8 29 -5 37 11
27 17 18 16 -21z m1125 -70 c4 -9 10 -52 13 -94 l6 -77 -54 -7 c-86 -11 -319
-54 -374 -69 l-50 -14 40 -1 c22 0 121 13 220 29 99 16 190 30 202 30 32 0 41
-25 54 -137 13 -123 9 -187 -11 -191 -8 -1 -52 22 -97 51 -45 30 -106 65 -137
78 -31 12 -56 26 -56 30 0 4 17 10 37 14 21 4 74 19 118 33 110 36 67 40 -76
7 -63 -14 -143 -28 -179 -32 -38 -3 -76 -14 -91 -24 -15 -10 -38 -23 -51 -28
-21 -8 -32 -31 -72 -148 -26 -76 -52 -160 -58 -188 -21 -103 -16 -100 -214
-112 -83 -4 -113 -3 -119 6 -14 23 12 32 140 52 69 10 134 23 143 28 35 20
-15 22 -127 7 -153 -22 -181 -21 -181 4 0 33 39 48 189 74 79 13 148 29 154
35 17 17 -34 14 -161 -10 -62 -11 -132 -19 -155 -17 l-42 3 -3 47 c-2 37 1 49
15 57 11 5 79 21 153 35 221 42 280 57 280 68 0 12 -30 8 -230 -27 -224 -40
-227 -40 -239 -17 -19 36 2 68 56 85 135 44 346 89 385 83 l41 -7 -7 89 -7 89
58 11 c32 6 133 23 225 37 177 27 243 43 178 44 -19 1 -114 -10 -210 -24 -206
-29 -243 -31 -261 -9 -11 14 -10 19 9 35 26 21 82 33 287 65 190 28 251 30
259 7z m-1104 -99 c0 -14 -4 -23 -10 -19 -5 3 -10 15 -10 26 0 10 5 19 10 19
6 0 10 -12 10 -26z m20 -134 c0 -11 -4 -20 -10 -20 -5 0 -10 9 -10 20 0 11 5
20 10 20 6 0 10 -9 10 -20z m2035 -320 c22 -25 14 -63 -18 -77 -30 -14 -124
-28 -362 -53 -202 -22 -322 -43 -339 -60 -14 -14 4 -13 122 4 166 25 505 57
562 54 51 -3 54 -4 62 -36 20 -76 -11 -86 -333 -107 -129 -8 -276 -20 -328
-26 -77 -10 -95 -9 -102 2 -17 28 -69 181 -72 212 l-2 32 70 11 c57 10 308 39
495 57 19 2 78 5 131 5 84 2 98 0 114 -18z m-825 1 c0 -12 -29 -35 -36 -28
-11 10 5 37 21 37 8 0 15 -4 15 -9z m878 -303 c13 -11 16 -65 6 -93 -11 -27
-46 -34 -262 -55 -294 -27 -464 -35 -489 -22 -20 11 -21 21 -7 89 8 42 57 53
354 78 304 25 369 25 398 3z m-1640 -20 c20 -20 14 -66 -10 -82 -13 -8 -80
-22 -150 -32 -105 -15 -129 -16 -142 -5 -19 16 -22 86 -3 98 39 25 284 42 305
21z m16 -144 c42 -41 11 -57 -163 -80 -139 -18 -159 -15 -147 24 8 25 42 39
136 56 104 19 155 19 174 0z m1658 -41 c-2 -27 -7 -51 -11 -56 -4 -4 -135 -16
-292 -27 -365 -25 -430 -31 -454 -41 -32 -12 92 -11 408 6 274 15 355 12 377
-12 4 -4 10 -24 14 -45 13 -73 6 -74 -479 -83 -479 -9 -439 -23 65 -24 l435 0
0 -63 0 -63 -60 0 c-33 0 -213 4 -400 8 -229 6 -337 5 -330 -2 14 -14 338 -31
588 -31 157 0 209 -3 212 -12 8 -23 43 -242 50 -308 3 -36 2 -70 -2 -76 -6 -8
-160 12 -535 70 -289 45 -529 84 -533 87 -3 4 15 37 40 75 46 68 47 70 61 199
27 246 52 358 83 375 23 12 581 66 711 69 l55 1 -3 -47z m-1454 -180 c6 -19
-25 -16 -32 3 -4 11 -1 14 11 12 9 -2 18 -9 21 -15z m838 -578 c295 -37 325
-42 527 -81 70 -13 145 -24 167 -24 30 0 43 -5 54 -23 17 -25 70 -321 62 -343
-9 -22 -66 -17 -311 26 -124 22 -364 63 -533 91 -169 27 -358 59 -420 71 -124
22 -121 20 -87 88 27 53 47 62 111 51 33 -6 241 -35 464 -66 223 -30 470 -67
549 -81 79 -14 146 -22 150 -19 12 13 -31 33 -92 44 -47 9 -645 96 -1079 158
-21 3 -38 11 -38 17 0 7 23 38 51 69 48 54 53 57 98 57 26 0 173 -16 327 -35z
m883 -1197 c27 -135 61 -585 61 -799 0 -113 -4 -170 -16 -210 -35 -119 -54
-100 -65 66 -4 69 -11 135 -14 145 -5 15 0 22 18 29 60 23 50 128 -33 349 -46
120 -47 132 -21 132 51 0 65 98 35 230 -11 52 -13 74 -4 89 17 33 28 25 39
-31z m83 -286 c3 -9 1 -26 -3 -37 -6 -15 -8 -11 -8 18 -1 40 4 48 11 19z
m-166 -860 c67 -49 71 -68 40 -159 -34 -96 -55 -132 -66 -112 -4 8 -15 68 -24
134 -9 66 -19 130 -22 143 -9 32 23 29 72 -6z m-148 -376 c50 -57 50 -67 -12
-170 -59 -98 -69 -129 -38 -120 11 4 7 -4 -11 -20 -15 -14 -34 -26 -41 -26 -8
0 -19 -7 -27 -16 -10 -13 -10 -17 1 -24 10 -6 -3 -26 -55 -79 -38 -39 -71 -69
-73 -66 -3 3 3 14 13 25 10 11 13 20 7 20 -15 0 -52 -49 -52 -70 0 -12 -6 -16
-22 -13 -17 3 -49 -18 -121 -77 -54 -44 -100 -80 -102 -80 -2 0 14 30 36 67
21 37 42 82 45 100 8 43 19 49 50 28 19 -12 29 -14 39 -5 20 16 84 173 97 235
6 30 14 55 19 55 4 0 23 -19 42 -41 19 -24 39 -39 45 -35 16 10 71 185 81 261
5 35 12 69 16 75 11 18 33 10 63 -24z m-631 -726 l25 -55 -47 -42 c-54 -47
-145 -100 -145 -83 0 6 17 39 38 74 21 34 49 95 62 135 22 63 26 69 34 49 5
-13 20 -48 33 -78z m-247 -200 c0 -33 -28 -64 -105 -117 -76 -51 -105 -66
-105 -55 0 5 32 49 70 96 39 48 77 101 86 119 l17 31 18 -23 c11 -13 19 -36
19 -51z m70 -50 c0 -11 -53 -40 -72 -40 -7 0 5 12 27 25 46 28 45 28 45 15z
m-345 -206 c-27 -13 -61 -23 -75 -23 -20 0 -16 5 25 25 28 13 61 23 75 23 20
0 16 -5 -25 -25z m1270 -544 c87 -27 254 -86 313 -111 40 -18 44 -22 37 -46
-25 -102 -203 -391 -328 -534 -131 -149 -311 -294 -359 -287 -28 4 -36 45 -18
89 16 37 31 37 52 -1 9 -17 22 -30 28 -30 6 0 -5 29 -25 63 -34 62 -47 129
-26 141 4 3 34 -17 66 -45 65 -57 84 -58 37 -1 -76 89 -85 103 -86 139 0 20 4
38 10 40 6 2 51 -30 99 -72 89 -76 128 -98 85 -47 -13 15 -63 65 -111 112
l-88 85 19 140 c25 179 28 185 83 185 23 0 53 7 66 16 45 32 59 103 28 142 -9
11 -23 1 -68 -48 -66 -71 -84 -71 -74 -3 9 63 14 71 44 89 34 19 122 13 216
-16z m-165 -135 c-18 -19 -36 -32 -39 -30 -2 3 11 21 29 40 18 19 36 32 39 30
2 -3 -11 -21 -29 -40z m-5237 -38 c14 -35 28 -80 32 -100 7 -35 5 -37 -37 -64
-25 -15 -79 -46 -120 -68 -72 -37 -77 -39 -103 -25 -49 26 -78 76 -83 139 -4
57 -4 58 30 79 37 23 226 102 244 102 7 0 23 -28 37 -63z m5894 -3 c10 -26
-13 -78 -99 -229 -187 -328 -398 -578 -600 -711 -95 -63 -115 -80 -105 -90 10
-10 126 57 199 114 185 147 478 535 627 831 17 33 38 61 46 61 8 0 49 -11 92
-26 108 -35 194 -52 304 -60 52 -4 128 -17 169 -30 69 -21 307 -82 525 -133
49 -12 95 -27 103 -35 11 -11 -23 -85 -206 -447 -336 -667 -376 -734 -460
-785 -66 -40 -295 -126 -323 -122 -20 3 -18 7 22 55 159 188 225 271 292 369
92 134 154 252 163 309 3 23 33 91 65 151 104 191 209 408 215 444 l6 35 -22
-30 c-11 -16 -68 -122 -125 -235 -132 -260 -252 -482 -344 -635 -40 -66 -70
-127 -68 -136 3 -10 -40 -62 -116 -140 -66 -68 -128 -140 -137 -160 -25 -51
-90 -80 -301 -134 -96 -24 -292 -82 -435 -129 -404 -132 -483 -152 -499 -126
-7 12 79 638 90 648 3 3 7 -1 9 -9 113 -354 169 -499 192 -499 8 0 14 3 14 8
0 4 -36 115 -80 247 -44 132 -80 244 -80 250 1 15 66 -113 133 -265 65 -147
100 -208 123 -217 28 -10 25 4 -20 88 -25 46 -88 180 -140 297 -52 117 -105
227 -117 244 -22 30 -22 33 -10 164 16 183 19 194 54 213 154 84 332 242 482
428 45 57 120 167 166 245 104 176 122 198 160 198 18 0 32 -6 36 -16z m-6247
-24 c7 -13 7 -20 1 -20 -6 0 -15 9 -21 20 -7 13 -7 20 -1 20 6 0 15 -9 21 -20z
m6633 -47 c-7 -2 -21 -2 -30 0 -10 3 -4 5 12 5 17 0 24 -2 18 -5z m-6199 -146
c14 -18 37 -59 52 -91 26 -58 26 -60 8 -73 -63 -48 -231 -133 -261 -133 -21 0
-63 98 -63 147 0 37 5 46 43 76 46 38 165 107 184 107 7 0 23 -15 37 -33z
m-310 -102 c11 -29 7 -97 -5 -89 -12 7 -59 107 -59 125 0 14 57 -18 64 -36z
m7661 -45 c72 -22 149 -44 172 -50 32 -8 49 -20 68 -48 33 -48 32 -64 -7 -102
-30 -31 -35 -32 -87 -27 -35 3 -97 23 -163 51 -59 26 -122 49 -140 53 -30 5
-31 4 -18 -10 8 -8 80 -50 160 -92 181 -95 187 -101 171 -154 -6 -23 -21 -46
-33 -52 -30 -16 -111 3 -221 53 -49 22 -92 37 -95 33 -11 -11 46 -52 118 -85
110 -52 115 -55 129 -84 25 -53 -16 -137 -74 -152 -36 -9 -60 -1 -150 52 -44
26 -99 58 -122 71 -83 48 -66 16 23 -44 108 -73 204 -159 204 -182 0 -26 -32
-51 -72 -57 -39 -7 -66 5 -208 91 -96 58 -125 69 -94 33 26 -29 133 -97 223
-142 49 -25 70 -41 63 -48 -5 -5 -60 -29 -122 -53 l-113 -43 -51 33 c-73 46
-116 67 -116 56 0 -6 27 -29 60 -51 33 -22 60 -45 60 -51 0 -6 -26 -22 -57
-36 -60 -27 -160 -37 -196 -19 -15 7 -17 5 -12 -16 4 -15 1 -29 -7 -35 -17
-14 -109 -45 -116 -39 -2 3 38 72 90 153 138 215 190 308 335 593 128 252 173
359 173 410 0 15 3 30 8 34 11 12 76 -1 217 -44z m-7193 -135 c51 -100 58 -86
-92 -179 -114 -71 -150 -81 -174 -43 -21 34 -28 92 -16 137 9 34 23 50 78 90
74 55 118 79 144 80 10 0 31 -29 60 -85z m6868 -61 c-18 -21 -24 -10 -9 18 8
14 14 18 17 10 2 -7 -2 -19 -8 -28z m-7211 -31 c12 -26 7 -63 -9 -63 -11 0
-42 79 -35 90 9 15 31 1 44 -27z m7151 -93 c-34 -67 -51 -77 -25 -14 20 48 45
87 51 81 3 -3 -9 -33 -26 -67z m-6668 -53 l66 -112 -93 -46 c-52 -25 -110 -60
-130 -77 -19 -18 -40 -32 -45 -32 -23 0 -63 50 -79 99 -21 65 -37 75 -49 29
l-8 -33 -27 40 c-29 43 -23 65 19 65 12 0 51 22 86 50 74 58 178 130 187 130
3 0 36 -51 73 -113z m7294 102 c3 -6 -3 -20 -14 -32 -19 -19 -22 -19 -28 -4
-13 35 23 66 42 36z m-7142 -320 c31 -39 56 -79 56 -89 0 -31 -190 -182 -247
-196 -13 -4 -30 0 -40 7 -26 22 -53 90 -53 136 0 78 20 100 160 177 36 20 66
36 67 36 1 0 27 -32 57 -71z m6396 51 c-6 -11 -15 -20 -21 -20 -6 0 -6 7 1 20
6 11 15 20 21 20 6 0 6 -7 -1 -20z m-6748 -157 c23 -21 23 -33 0 -33 -21 0
-42 18 -42 37 0 18 20 16 42 -4z m7258 -10 c0 -12 -22 -43 -30 -43 -11 0 -14
43 -4 53 6 6 34 -2 34 -10z m-6693 -156 c25 -36 25 -38 7 -58 -24 -27 -137
-109 -197 -144 l-48 -28 -31 29 c-37 35 -68 94 -68 129 0 30 51 81 155 154
l70 49 43 -47 c23 -25 54 -63 69 -84z m5723 -1 c0 -7 -7 -19 -15 -26 -16 -13
-20 -3 -9 24 8 20 24 21 24 2z m-5564 -178 c24 -35 25 -37 9 -62 -17 -25 -103
-103 -181 -163 -38 -30 -42 -31 -62 -17 -27 19 -47 57 -56 106 -8 45 -21 55
-45 34 -10 -9 -24 -16 -31 -16 -26 0 36 53 160 136 l125 84 28 -32 c15 -18 39
-49 53 -70z m145 -126 c26 -20 48 -39 49 -42 0 -3 -36 -44 -79 -92 -43 -47
-84 -102 -91 -122 -10 -30 -16 -36 -39 -36 -56 0 -118 76 -106 129 3 16 17 43
30 61 36 48 158 151 174 145 7 -3 35 -22 62 -43z m134 -111 c17 -11 45 -33 63
-48 l33 -29 -111 -122 c-111 -123 -128 -134 -175 -116 -21 9 -45 56 -45 92 0
15 14 50 31 77 40 63 138 165 158 165 9 0 30 -9 46 -19z m174 -128 c20 -14 48
-37 63 -51 l28 -26 -27 -45 c-43 -75 -123 -179 -154 -202 -39 -27 -73 -19 -99
24 -25 41 -25 68 1 120 34 67 129 207 141 207 6 0 27 -12 47 -27z m194 -129
c83 -42 85 -66 13 -171 -29 -43 -63 -97 -74 -120 -24 -46 -47 -58 -83 -44 -27
10 -63 47 -72 73 -9 24 9 71 61 158 72 124 91 136 155 104z m235 -136 c28 -16
52 -34 52 -39 0 -5 -25 -51 -55 -101 -30 -50 -60 -108 -65 -128 -14 -53 -87
-79 -141 -50 -25 14 -49 62 -49 98 0 43 52 139 111 205 58 65 58 65 147 15z
m250 -120 c38 -23 38 -30 12 -102 -25 -66 -89 -141 -133 -155 -69 -22 -133
-18 -147 9 -22 42 33 190 101 274 l30 35 52 -20 c29 -11 67 -30 85 -41z m210
-83 c51 -24 71 -39 66 -47 -40 -69 -129 -190 -150 -207 -45 -35 -118 -22 -130
24 -8 33 53 212 83 243 30 30 46 28 131 -13z m-283 -235 c0 -22 -29 -18 -33 3
-3 14 1 18 15 15 10 -2 18 -10 18 -18z"/>
<path d="M2007 12070 c-8 -22 -18 -244 -11 -237 12 12 34 206 25 229 -7 17
-10 19 -14 8z"/>
<path d="M2078 11992 c-1 -21 -1 -51 2 -67 l6 -30 12 34 c17 47 16 101 -2 101
-9 0 -15 -14 -18 -38z"/>
<path d="M5593 11523 c-61 -24 88 -31 197 -9 l65 14 -125 0 c-69 0 -131 -2
-137 -5z"/>
<path d="M5613 11423 c-20 -7 -15 -33 5 -33 19 0 42 18 42 32 0 9 -27 9 -47 1z"/>
<path d="M6050 11363 c-19 -2 -107 -10 -195 -18 -189 -17 -285 -33 -285 -47 0
-6 11 -7 26 -4 14 4 126 15 247 26 314 27 357 32 363 41 5 9 -83 10 -156 2z"/>
<path d="M5773 11233 c15 -2 39 -2 55 0 15 2 2 4 -28 4 -30 0 -43 -2 -27 -4z"/>
<path d="M5633 11213 c9 -2 25 -2 35 0 9 3 1 5 -18 5 -19 0 -27 -2 -17 -5z"/>
<path d="M5910 10724 c-123 -13 -229 -29 -235 -35 -11 -12 74 -7 315 17 157
15 260 30 268 39 11 11 -130 2 -348 -21z"/>
<path d="M6065 10590 c8 -13 45 -13 65 0 11 7 3 10 -28 10 -26 0 -41 -4 -37
-10z"/>
<path d="M5725 10570 c-25 -6 -27 -8 -12 -15 24 -10 239 3 252 16 11 11 -194
10 -240 -1z"/>
<path d="M5870 10483 c-84 -6 -130 -14 -130 -24 0 -22 238 -3 265 22 9 9 -35
9 -135 2z"/>
<path d="M1940 11465 c-9 -11 -10 -19 -3 -26 14 -14 53 6 53 26 0 20 -34 19
-50 0z"/>
<path d="M7277 10951 c-19 -33 -8 -50 17 -25 16 16 22 54 8 54 -4 0 -15 -13
-25 -29z"/>
<path d="M7901 10900 c-113 -38 -212 -70 -222 -70 -10 0 -25 -8 -35 -17 -16
-16 -16 -18 -1 -21 20 -4 247 67 364 114 79 32 133 64 108 64 -6 0 -102 -31
-214 -70z"/>
<path d="M7360 10905 c0 -35 4 -45 16 -45 9 0 23 -8 30 -17 10 -15 15 -16 26
-5 10 10 9 18 -5 45 -10 17 -29 40 -43 50 l-24 18 0 -46z"/>
<path d="M6860 10881 c0 -6 9 -27 19 -47 21 -39 20 -45 -23 -117 l-29 -48 18
-60 c23 -76 14 -107 -39 -132 -30 -14 -35 -21 -26 -31 26 -32 105 24 116 81 4
23 0 45 -15 75 l-21 42 25 36 c35 50 41 92 21 144 -17 44 -46 80 -46 57z"/>
<path d="M7270 10836 c0 -13 -3 -38 -6 -55 l-7 -32 38 7 c37 7 38 6 31 -20 -7
-29 13 -37 34 -11 16 19 5 50 -37 96 -41 45 -53 49 -53 15z"/>
<path d="M7167 10784 c-4 -4 -7 -29 -7 -55 0 -38 -4 -51 -20 -59 -24 -13 -26
-35 -4 -44 28 -11 64 38 64 87 0 43 -19 85 -33 71z"/>
<path d="M8060 10775 c-36 -8 -114 -21 -175 -30 -140 -20 -205 -35 -205 -46 0
-15 45 -11 235 21 160 27 275 54 275 66 0 8 -65 2 -130 -11z"/>
<path d="M7417 10773 c-12 -12 -8 -85 5 -81 20 7 31 34 24 61 -6 27 -16 33
-29 20z"/>
<path d="M6720 10694 c0 -5 7 -18 15 -28 33 -44 11 -112 -46 -142 -29 -15 -30
-16 -27 -88 3 -71 2 -73 -35 -116 -39 -46 -47 -70 -23 -70 18 0 82 73 104 117
13 28 14 36 2 58 -12 23 -11 28 17 62 57 72 66 109 39 162 -15 29 -46 60 -46
45z"/>
<path d="M7238 10603 c-17 -39 -19 -52 -9 -78 15 -42 14 -61 -5 -90 -9 -14
-12 -25 -7 -25 19 0 43 37 43 66 0 17 7 54 16 83 26 90 -2 124 -38 44z"/>
<path d="M7400 10563 c0 -48 -5 -126 -11 -175 -7 -49 -9 -92 -5 -95 12 -12 27
13 42 68 18 70 9 289 -12 289 -11 0 -14 -20 -14 -87z"/>
<path d="M7320 10570 c0 -43 13 -52 30 -20 8 14 8 26 0 40 -17 32 -30 23 -30
-20z"/>
<path d="M7138 10549 c3 -32 0 -44 -13 -51 -14 -8 -16 -19 -10 -69 5 -42 3
-64 -5 -74 -16 -20 -7 -29 20 -20 31 10 40 44 22 82 -14 29 -13 34 8 68 23 37
23 38 5 71 -24 45 -31 43 -27 -7z"/>
<path d="M7716 10519 c-49 -5 -91 -10 -93 -12 -2 -2 60 -7 138 -11 93 -4 150
-11 169 -21 20 -10 57 -15 117 -14 l88 2 -75 11 -75 12 71 7 c39 5 80 14 90
22 17 13 -4 14 -161 13 -99 0 -220 -5 -269 -9z"/>
<path d="M6990 10451 c0 -30 -6 -44 -22 -55 -29 -21 -17 -30 26 -22 42 8 55
39 36 86 -18 44 -40 39 -40 -9z"/>
<path d="M7320 10451 c-13 -49 -29 -211 -23 -228 4 -11 8 -11 20 -1 11 9 14
24 9 54 -4 29 -1 46 8 53 17 15 27 76 19 124 -7 48 -19 47 -33 -2z"/>
<path d="M7683 10384 c-24 -10 -13 -23 25 -29 108 -16 162 -30 265 -69 61 -24
124 -46 140 -50 38 -9 35 12 -5 29 l-33 14 33 7 c44 9 51 24 10 24 -18 0 -67
9 -107 20 -141 40 -301 65 -328 54z"/>
<path d="M6826 10336 c6 -40 3 -47 -31 -85 -36 -40 -37 -41 -13 -41 14 0 35
11 47 24 28 29 40 108 21 131 -22 26 -30 16 -24 -29z"/>
<path d="M7230 10320 c0 -11 5 -20 10 -20 6 0 10 9 10 20 0 11 -4 20 -10 20
-5 0 -10 -9 -10 -20z"/>
<path d="M7632 10249 c4 -13 381 -171 443 -185 56 -12 6 21 -100 67 -114 50
-105 64 15 24 108 -36 151 -29 51 8 -199 75 -421 121 -409 86z"/>
<path d="M7386 10223 c-13 -14 -5 -33 14 -33 11 0 20 6 20 14 0 15 -24 28 -34
19z"/>
<path d="M7618 10167 c7 -8 34 -23 59 -31 25 -9 69 -33 97 -55 91 -71 287
-153 260 -109 -4 6 1 17 10 24 16 11 13 15 -31 37 -79 40 -330 138 -370 144
-34 6 -37 5 -25 -10z m254 -99 c42 -18 82 -48 64 -48 -14 0 -156 69 -156 75 0
8 31 -1 92 -27z"/>
<path d="M5371 11079 c-64 -12 -62 -19 7 -19 66 0 95 7 86 21 -6 11 -32 10
-93 -2z"/>
<path d="M5340 10975 l-25 -14 30 0 c17 0 46 7 65 14 l35 13 -40 1 c-22 0 -51
-6 -65 -14z"/>
<path d="M5143 10956 c-102 -14 -117 -26 -32 -26 71 1 136 13 152 29 13 13 -5
13 -120 -3z"/>
<path d="M4895 10949 c-16 -5 -108 -25 -204 -44 -165 -34 -241 -56 -241 -71 0
-3 12 -3 27 1 45 11 230 44 337 60 89 14 101 14 122 0 24 -15 24 -15 24 25 0
44 -7 47 -65 29z"/>
<path d="M4925 10829 c-16 -5 -108 -18 -203 -29 -95 -11 -187 -26 -205 -34
-29 -13 -30 -14 -8 -15 21 -1 354 41 439 55 19 3 32 11 32 19 0 17 -11 18 -55
4z"/>
<path d="M4690 10690 c-128 -9 -190 -19 -190 -31 0 -5 15 -9 33 -9 43 0 370
40 376 45 6 6 -84 4 -219 -5z"/>
<path d="M4865 10303 c-92 -12 -263 -46 -290 -58 l-30 -13 28 -1 c64 -2 385
54 402 70 9 9 -49 10 -110 2z"/>
<path d="M4890 10175 c-58 -8 -154 -19 -215 -25 -121 -12 -145 -17 -145 -31 0
-15 74 -11 280 17 223 29 231 31 210 44 -8 6 -17 9 -20 9 -3 -1 -52 -7 -110
-14z"/>
<path d="M4975 9903 c-165 -22 -351 -60 -342 -69 10 -11 323 31 390 52 9 3 17
10 17 15 0 9 -10 9 -65 2z"/>
<path d="M4852 9669 c-45 -4 -108 -14 -140 -21 l-57 -13 50 -3 c50 -3 259 14
302 25 13 3 20 9 17 14 -6 10 -53 10 -172 -2z"/>
<path d="M5480 9513 c-113 -12 -263 -35 -283 -44 -29 -13 151 -3 296 16 128
17 173 35 82 33 -33 -1 -76 -3 -95 -5z"/>
<path d="M4940 9394 l-45 -13 72 2 c41 2 78 8 85 15 17 17 -52 15 -112 -4z"/>
<path d="M5020 9280 c-19 -5 -105 -19 -190 -31 -85 -12 -161 -27 -168 -32 -33
-26 18 -25 179 3 180 30 239 45 239 61 0 10 -12 10 -60 -1z"/>
<path d="M5134 9195 c-3 -13 -12 -29 -20 -35 -7 -7 -84 -23 -170 -36 -171 -26
-234 -40 -234 -52 0 -5 28 -5 63 -1 130 14 353 42 365 45 7 2 12 22 12 54 0
54 -6 64 -16 25z"/>
<path d="M5485 10523 c-95 -8 -303 -35 -342 -45 -58 -14 -55 -30 5 -23 26 3
90 10 142 15 133 15 270 40 270 51 0 5 -8 8 -17 7 -10 -1 -36 -3 -58 -5z"/>
<path d="M5340 10368 c-177 -20 -240 -33 -240 -48 0 -13 5 -13 181 10 179 24
268 39 289 51 23 13 -44 9 -230 -13z"/>
<path d="M5331 10004 c-193 -27 -246 -42 -161 -43 97 -2 405 41 440 60 28 16
-113 7 -279 -17z"/>
<path d="M5183 9743 c-39 -7 -25 -23 20 -23 66 0 147 12 147 21 0 9 -125 10
-167 2z"/>
<path d="M6185 10133 c-348 -45 -450 -62 -441 -70 7 -7 525 44 552 54 48 18
-20 28 -111 16z"/>
<path d="M5875 9699 c-44 -11 -70 -29 -41 -29 48 0 206 24 206 32 0 11 -114 9
-165 -3z"/>
<path d="M6380 9463 c-190 -14 -521 -61 -535 -75 -7 -7 7 -9 45 -4 30 4 163
18 294 31 132 14 248 27 258 31 23 7 24 25 1 22 -10 -1 -38 -3 -63 -5z"/>
<path d="M6370 9323 c-14 -2 -74 -10 -135 -19 -190 -26 -359 -54 -380 -64
l-20 -9 20 0 c57 -2 611 77 635 90 15 9 -70 10 -120 2z"/>
<path d="M5974 7460 c-37 -13 50 -29 322 -60 149 -17 306 -37 348 -45 88 -17
184 -19 206 -5 24 15 -23 26 -135 34 -83 5 -399 41 -661 74 -34 5 -70 5 -80 2z"/>
<path d="M6974 2741 c20 -22 175 -105 182 -98 6 6 -124 93 -160 107 -38 14
-42 13 -22 -9z"/>
<path d="M6862 2658 c5 -14 267 -158 288 -158 25 1 -42 52 -128 98 -95 50
-165 77 -160 60z"/>
<path d="M6810 2602 c0 -22 245 -192 278 -192 23 0 5 17 -91 83 -116 80 -187
122 -187 109z"/>
<path d="M6802 2448 c72 -68 169 -133 190 -126 7 3 -12 21 -42 41 -30 20 -82
57 -114 82 -91 71 -108 72 -34 3z"/>
<path d="M6670 2432 c0 -19 209 -192 232 -192 24 0 -46 68 -160 158 -52 41
-72 50 -72 34z"/>
<path d="M7585 2466 c-17 -12 -13 -16 46 -44 35 -17 100 -54 144 -82 104 -66
204 -114 298 -141 72 -22 76 -22 102 -5 14 9 31 28 37 42 10 20 8 29 -9 52
-75 102 -539 236 -618 178z m285 -53 c83 -27 212 -93 248 -126 23 -22 29 -51
12 -62 -15 -9 -101 21 -195 67 -76 38 -245 145 -245 155 0 10 109 -10 180 -34z"/>
<path d="M7442 2219 c3 -8 24 -27 49 -43 24 -17 111 -79 192 -139 159 -117
244 -167 283 -167 32 0 74 42 74 73 0 28 -27 58 -82 93 -66 42 -395 169 -487
189 -26 5 -32 4 -29 -6z m365 -149 c134 -67 200 -117 190 -143 -9 -25 -40 -21
-105 12 -62 31 -204 134 -236 169 -19 22 -19 22 6 22 14 0 79 -27 145 -60z"/>
<path d="M7347 2014 c-15 -16 -5 -31 41 -64 387 -274 455 -315 508 -308 15 2
32 11 38 21 25 40 -72 155 -174 207 -55 27 -342 139 -375 146 -17 3 -33 2 -38
-2z m283 -126 c91 -36 196 -96 232 -135 29 -31 45 -77 30 -87 -10 -6 -256 142
-339 205 -90 67 -66 73 77 17z"/>
<path d="M7180 1821 c0 -4 21 -21 48 -38 26 -16 103 -76 172 -134 131 -109
201 -158 263 -184 33 -13 41 -14 72 -1 84 36 8 119 -220 241 -49 26 -104 58
-121 71 -53 39 -214 73 -214 45z m302 -135 c114 -58 224 -130 238 -155 10 -19
8 -21 -20 -21 -62 0 -261 122 -309 189 -31 43 -13 40 91 -13z"/>
<path d="M7030 1667 c0 -25 195 -261 284 -343 140 -130 236 -180 274 -142 21
21 13 50 -29 105 -118 152 -529 448 -529 380z m183 -111 c162 -121 351 -304
345 -333 -5 -28 -23 -25 -87 18 -107 71 -331 305 -331 345 0 22 10 17 73 -30z"/>
<path d="M6850 1570 c0 -22 81 -170 150 -275 152 -230 272 -375 311 -375 50 0
73 67 45 133 -20 50 -154 204 -323 374 -136 137 -183 174 -183 143z m201 -202
c102 -103 224 -252 248 -304 20 -42 28 -94 15 -94 -42 0 -162 142 -279 330
-99 161 -95 179 16 68z"/>
<path d="M6657 1482 c-22 -34 232 -606 289 -651 57 -45 114 -13 114 64 0 71
-37 134 -236 400 -116 156 -158 203 -167 187z m183 -252 c11 -19 46 -71 80
-115 107 -141 144 -243 94 -262 -21 -8 -50 22 -95 99 -49 84 -165 333 -174
373 -6 29 -6 29 35 -15 23 -25 50 -61 60 -80z"/>
<path d="M4207 11449 c-20 -34 -37 -66 -37 -71 0 -5 18 -26 39 -46 62 -59 68
-136 13 -187 -27 -25 -27 -25 -4 -25 30 0 68 42 76 85 9 44 -1 81 -32 128
l-25 38 19 54 c16 50 17 57 3 70 -14 14 -19 10 -52 -46z"/>
<path d="M4076 11438 c-3 -7 -7 -25 -10 -40 -3 -14 -17 -40 -31 -56 -46 -55
-20 -73 33 -24 31 29 50 87 38 117 -7 18 -25 20 -30 3z"/>
<path d="M4480 11440 c0 -5 9 -10 20 -10 11 0 20 5 20 10 0 6 -9 10 -20 10
-11 0 -20 -4 -20 -10z"/>
<path d="M4472 11359 c-13 -5 -21 -13 -18 -18 6 -10 85 6 101 20 12 12 -53 10
-83 -2z"/>
<path d="M3680 11247 c0 -7 13 -23 30 -35 67 -50 63 -168 -6 -197 -38 -16 -38
-35 0 -35 51 0 96 75 96 162 0 55 -18 85 -62 102 -47 19 -58 20 -58 3z"/>
<path d="M4061 11176 c19 -27 33 -61 36 -87 4 -38 1 -48 -22 -72 -33 -32 -85
-38 -85 -9 0 20 -31 52 -68 72 -38 19 -37 4 2 -41 48 -57 48 -91 -1 -141 -20
-21 -33 -41 -29 -45 13 -13 58 20 91 66 22 32 41 47 65 53 97 24 110 159 24
227 -42 33 -46 25 -13 -23z"/>
<path d="M3496 11071 c-4 -5 9 -26 28 -45 20 -19 38 -46 42 -61 11 -43 -3
-104 -31 -141 l-27 -36 28 4 c41 4 74 58 74 118 0 37 -7 58 -32 96 -36 52 -72
81 -82 65z"/>
<path d="M2140 11060 c0 -16 35 -29 94 -36 73 -9 75 10 4 31 -59 17 -98 19
-98 5z"/>
<path d="M2170 10946 c31 -19 120 -22 102 -4 -6 6 -37 13 -69 15 -55 4 -57 3
-33 -11z"/>
<path d="M3700 10924 c0 -4 15 -24 34 -45 20 -21 38 -54 42 -74 7 -42 -9 -106
-31 -125 -8 -7 -15 -19 -15 -27 0 -22 35 2 60 41 44 72 36 124 -31 201 -27 31
-59 46 -59 29z"/>
<path d="M2110 10882 c19 -12 130 -35 137 -29 10 11 -37 27 -93 32 -39 4 -54
3 -44 -3z"/>
<path d="M4080 10885 c0 -2 11 -21 25 -42 20 -29 25 -47 23 -83 -3 -40 -7 -48
-40 -69 -21 -13 -38 -30 -38 -37 0 -8 27 -39 60 -71 53 -50 60 -61 60 -95 0
-54 -21 -89 -69 -116 -44 -25 -53 -42 -22 -42 53 0 125 58 136 110 4 19 17 36
35 45 94 49 115 164 46 250 -37 46 -43 22 -13 -50 32 -79 34 -104 6 -139 -30
-38 -53 -32 -108 24 -27 28 -56 50 -65 50 -20 0 -21 16 -1 24 28 10 55 69 55
118 0 53 -11 87 -35 111 -15 15 -55 24 -55 12z"/>
<path d="M3034 10858 c-4 -6 4 -19 19 -30 32 -23 35 -63 11 -110 l-16 -31 41
-39 c23 -22 41 -48 41 -57 0 -10 -14 -35 -30 -56 l-31 -39 31 -27 c41 -38 41
-83 0 -129 l-31 -35 41 -33 c47 -39 50 -62 14 -109 l-25 -33 25 -31 c27 -31
36 -92 16 -104 -16 -10 -12 -34 11 -66 20 -29 21 -41 4 -96 -6 -20 -4 -23 19
-23 15 0 29 6 32 13 8 22 -13 248 -25 260 -6 6 -11 46 -11 89 0 50 -5 89 -15
108 -13 25 -13 33 0 70 19 53 19 80 1 116 -13 24 -13 32 0 62 19 46 18 70 -6
120 -13 26 -20 61 -20 98 0 50 -3 59 -34 90 -36 36 -50 41 -62 22z"/>
<path d="M2904 10765 c-4 -22 -18 -45 -38 -61 -29 -25 -31 -32 -36 -108 -3
-45 -4 -91 -2 -104 5 -27 25 -24 30 4 12 61 46 31 37 -33 -7 -50 8 -63 31 -28
14 22 15 32 5 66 -9 31 -10 58 -1 116 18 115 -6 251 -26 148z m-4 -133 c0 -16
-48 -73 -54 -64 -7 11 2 40 17 60 11 13 37 17 37 4z"/>
<path d="M3900 10780 c0 -5 16 -27 35 -48 19 -21 39 -51 45 -66 18 -50 -21
-146 -59 -146 -10 0 -24 -7 -31 -15 -19 -23 27 -20 67 5 58 35 71 174 21 227
-28 30 -78 58 -78 43z"/>
<path d="M2080 10722 c0 -14 74 -34 108 -30 l27 4 -30 13 c-43 19 -105 26
-105 13z"/>
<path d="M3512 10708 c3 -7 15 -18 29 -25 35 -18 49 -42 49 -86 0 -44 -13 -75
-44 -99 l-21 -18 26 0 c51 0 92 78 75 144 -10 40 -64 96 -93 96 -15 0 -23 -5
-21 -12z"/>
<path d="M2985 10690 c-3 -5 -1 -80 6 -164 10 -114 10 -161 2 -179 -9 -20 -7
-34 13 -77 13 -28 24 -56 24 -60 0 -5 -14 -22 -31 -38 l-31 -29 31 -31 c37
-37 41 -82 10 -113 -19 -19 -19 -22 -4 -45 9 -14 17 -41 18 -61 2 -42 23 -56
32 -21 9 37 -13 708 -25 760 -12 49 -33 77 -45 58z"/>
<path d="M3710 10586 c0 -8 18 -36 40 -62 65 -79 64 -143 -2 -184 -45 -27 -96
-26 -138 5 -37 27 -80 33 -80 11 0 -7 14 -19 30 -26 40 -16 50 -37 50 -100 0
-41 -5 -56 -26 -77 -28 -28 -26 -38 6 -28 29 9 60 62 60 102 0 40 23 63 62 63
36 0 79 24 98 54 37 58 30 151 -15 205 -29 34 -85 58 -85 37z"/>
<path d="M2060 10521 c0 -14 63 -50 100 -58 49 -9 29 14 -37 43 -60 27 -63 28
-63 15z"/>
<path d="M3910 10425 c0 -3 15 -28 34 -56 38 -55 53 -119 37 -161 -7 -18 -26
-35 -56 -49 -31 -14 -43 -25 -36 -32 29 -29 112 35 132 104 10 32 9 46 -6 85
-19 51 -70 114 -91 114 -8 0 -14 -2 -14 -5z"/>
<path d="M2667 10403 c-11 -10 -8 -83 3 -83 16 0 32 41 26 66 -6 24 -17 30
-29 17z"/>
<path d="M2825 10400 c-23 -37 -43 -455 -22 -476 16 -16 20 12 32 202 10 152
17 200 29 212 21 22 24 10 29 -125 2 -69 8 -117 16 -127 9 -11 10 -20 1 -36
-16 -31 -9 -125 10 -125 13 0 15 21 14 130 0 72 -2 155 -4 185 -2 30 0 67 5
82 6 23 2 33 -23 58 -30 30 -75 40 -87 20z"/>
<path d="M4310 10404 c0 -3 10 -20 23 -37 17 -24 22 -46 22 -89 0 -51 -3 -60
-34 -92 -19 -20 -32 -38 -29 -42 11 -11 62 20 75 46 30 59 -1 220 -42 220 -8
0 -15 -3 -15 -6z"/>
<path d="M4100 10232 c0 -4 16 -29 35 -56 26 -36 35 -60 35 -88 0 -54 -11 -71
-70 -107 -28 -17 -48 -36 -45 -42 15 -24 103 31 136 85 12 19 19 49 19 80 0
44 -4 53 -44 92 -40 41 -66 55 -66 36z"/>
<path d="M2053 10207 c-40 -15 -65 -37 -41 -37 19 0 108 37 108 45 0 8 -32 4
-67 -8z"/>
<path d="M3260 10145 c0 -8 11 -38 25 -65 14 -27 25 -56 25 -64 0 -8 -17 -27
-37 -44 l-37 -29 32 -17 c56 -29 68 -78 27 -116 -14 -13 -25 -28 -25 -33 0
-15 64 1 78 20 17 23 15 88 -3 123 -12 23 -13 34 -4 54 16 33 3 107 -24 148
-25 36 -57 49 -57 23z"/>
<path d="M3720 10149 c44 -18 100 -84 100 -118 0 -6 -26 -24 -57 -40 l-58 -30
43 -1 c97 -1 124 103 46 175 -19 17 -38 25 -63 24 -34 0 -35 -1 -11 -10z"/>
<path d="M2596 10108 c-17 -109 -17 -128 -3 -128 22 0 39 51 35 105 -4 57 -24
72 -32 23z"/>
<path d="M2543 10080 c0 -25 2 -35 4 -22 2 12 2 32 0 45 -2 12 -4 2 -4 -23z"/>
<path d="M4330 10096 c0 -3 11 -26 25 -52 40 -75 32 -135 -24 -181 -33 -27
-22 -38 23 -23 46 15 66 44 66 95 0 42 -29 117 -57 147 -15 17 -33 24 -33 14z"/>
<path d="M3908 10058 c38 -27 72 -91 72 -137 0 -69 -56 -140 -99 -126 -10 3
-28 25 -40 49 -14 32 -29 47 -52 55 -18 6 -34 9 -37 6 -3 -2 12 -23 32 -45 48
-53 48 -83 -1 -109 -13 -6 -23 -18 -23 -26 0 -20 54 -20 70 0 7 8 29 19 50 25
102 27 152 134 120 252 -13 45 -52 78 -94 78 l-31 0 33 -22z"/>
<path d="M3560 10032 c0 -5 10 -17 21 -28 27 -24 49 -74 49 -113 0 -24 -8 -34
-45 -55 -54 -32 -57 -43 -11 -38 26 3 37 -1 50 -19 9 -13 16 -34 16 -46 0 -14
6 -23 15 -23 21 0 20 59 -1 88 -15 21 -15 25 0 41 34 38 12 139 -39 179 -28
22 -55 29 -55 14z"/>
<path d="M2090 9958 c-18 -13 -42 -35 -53 -50 -17 -23 -18 -30 -7 -43 16 -19
32 -15 36 10 4 24 60 80 68 67 3 -5 -3 -21 -14 -35 -34 -43 -22 -78 13 -39 23
26 32 78 17 97 -16 20 -21 19 -60 -7z"/>
<path d="M4135 9867 c49 -27 75 -76 75 -140 0 -38 -5 -53 -22 -67 -19 -15 -21
-21 -10 -32 11 -11 18 -8 38 15 29 34 33 110 8 163 -22 45 -69 84 -102 84 -25
0 -25 -2 13 -23z"/>
<path d="M3439 9820 l-24 -20 28 -25 c49 -43 64 -33 51 34 -7 36 -22 39 -55
11z"/>
<path d="M4360 9778 c0 -7 14 -33 30 -58 16 -25 30 -54 30 -66 0 -22 -42 -86
-79 -118 -46 -41 -10 -51 39 -10 63 53 77 124 39 201 -21 44 -59 76 -59 51z"/>
<path d="M3930 9722 c0 -5 14 -21 30 -37 17 -16 30 -34 30 -41 0 -18 20 -28
32 -16 13 13 -14 65 -44 86 -24 17 -48 21 -48 8z"/>
<path d="M2426 9340 c6 -6 58 -20 115 -31 456 -87 792 -163 1029 -234 63 -19
135 -39 160 -46 42 -10 43 -12 25 -25 -27 -20 -18 -25 136 -69 70 -20 174 -51
230 -70 103 -35 159 -44 159 -25 0 28 -130 79 -514 200 -399 125 -836 231
-1156 280 -74 11 -148 23 -165 26 -23 5 -27 3 -19 -6z m1483 -370 c27 -16 -40
-11 -74 6 l-30 14 44 -5 c24 -3 51 -10 60 -15z"/>
<path d="M2695 8711 c-82 -10 -117 -19 -286 -71 -70 -22 -132 -47 -140 -56
-17 -20 -15 -84 3 -95 24 -15 67 -10 116 16 115 59 394 115 577 115 67 0 158
-8 227 -20 171 -30 675 -171 876 -246 57 -21 110 -34 140 -34 42 0 47 2 48 23
0 12 2 28 5 36 3 9 -14 17 -56 26 -33 7 -195 59 -360 114 -326 110 -482 155
-614 177 -102 17 -437 26 -536 15z m-15 -60 c-69 -15 -135 -31 -147 -35 -33
-11 -28 1 8 20 40 20 150 42 214 42 42 0 29 -4 -75 -27z m603 2 c-7 -2 -19 -2
-25 0 -7 3 -2 5 12 5 14 0 19 -2 13 -5z m213 -77 c208 -49 266 -67 272 -84 2
-6 -5 -9 -15 -6 -117 27 -436 115 -453 125 -27 15 5 10 196 -35z"/>
<path d="M5404 8500 c-46 -18 -124 -226 -124 -334 0 -34 7 -85 15 -112 16 -54
112 -215 133 -222 17 -5 7 18 -46 108 -58 97 -82 167 -81 232 l1 53 13 -35
c15 -41 19 -35 38 60 l14 65 14 -75 c12 -64 14 -70 17 -37 4 42 8 45 29 20 11
-14 14 -14 10 -3 -3 9 -11 57 -18 108 -15 110 -10 120 48 102 131 -42 190
-116 267 -338 41 -118 52 -142 68 -142 6 0 17 -8 24 -17 21 -29 27 -7 14 49
-16 67 -90 288 -117 348 -11 25 -35 59 -54 74 -66 56 -221 112 -265 96z m274
-144 c33 -50 39 -66 23 -66 -11 0 -101 107 -101 121 0 22 48 -12 78 -55z"/>
<path d="M2799 8421 c-89 -10 -227 -67 -323 -134 -55 -38 -9 -28 102 23 151
69 223 83 392 77 158 -6 294 -38 670 -157 323 -103 381 -120 404 -120 17 1 18
2 6 9 -31 18 -769 253 -865 276 -110 26 -281 37 -386 26z"/>
<path d="M2697 8240 c-68 -12 -185 -48 -192 -60 -8 -13 -4 -13 93 9 45 10 82
15 82 11 0 -4 -33 -17 -72 -29 -166 -51 -219 -85 -257 -164 -26 -54 -27 -83
-1 -97 25 -13 188 -29 302 -30 81 0 120 -12 83 -26 -32 -13 7 -33 118 -60 158
-39 333 -39 492 -2 181 44 343 96 426 139 l77 41 74 -13 c91 -16 306 -17 333
-2 19 11 19 12 -5 21 -14 5 -63 13 -110 16 -186 15 -365 56 -685 154 -171 53
-270 75 -405 92 -97 12 -283 11 -353 0z m153 -20 c0 -5 -16 -10 -35 -10 -19 0
-35 5 -35 10 0 6 16 10 35 10 19 0 35 -4 35 -10z m395 -40 c3 -5 -3 -10 -15
-10 -12 0 -18 5 -15 10 3 6 10 10 15 10 5 0 12 -4 15 -10z m-357 -23 c9 -11
14 -28 28 -94 7 -38 32 -53 88 -53 53 0 92 17 85 38 -3 8 -12 8 -33 -3 -42
-22 -62 -19 -85 14 -26 37 -27 63 -1 86 17 16 31 17 104 11 88 -6 135 -19 148
-39 4 -7 8 -29 8 -49 0 -39 14 -58 24 -32 3 9 6 29 6 45 0 19 6 32 17 36 33
13 496 -120 496 -142 -1 -16 -160 -81 -243 -98 -41 -9 -100 -23 -130 -32 -85
-24 -358 -20 -480 6 -242 51 -286 59 -399 67 -169 12 -190 38 -101 123 42 42
63 52 152 80 58 18 127 32 158 33 l55 1 2 -45 c6 -105 14 -131 50 -171 50 -55
81 -69 156 -69 81 0 159 23 200 60 45 40 26 50 -26 14 -62 -44 -91 -54 -153
-54 -126 0 -211 93 -189 208 6 35 30 72 45 72 4 0 12 -6 18 -13z"/>
<path d="M5594 8105 c34 -91 56 -381 37 -480 l-8 -40 -21 45 -21 45 0 -36 c-1
-33 -24 -80 -34 -69 -2 3 -11 25 -19 50 l-15 45 -8 -80 -8 -80 -23 75 -23 75
0 -72 c-1 -70 -16 -107 -25 -61 -14 74 -22 102 -32 105 -6 2 -9 -8 -8 -24 10
-92 11 -123 3 -123 -12 0 -29 68 -29 120 -1 51 -14 118 -27 131 -4 4 -8 -22
-8 -59 -1 -73 -23 -129 -76 -190 -24 -27 -29 -42 -29 -87 0 -43 4 -56 19 -65
34 -17 55 -11 106 32 72 60 135 98 162 98 76 0 132 65 152 174 29 157 -4 435
-56 478 -15 11 -16 11 -9 -7z m10 -570 c-9 -22 -44 -40 -44 -22 0 17 20 37 37
37 7 0 10 -7 7 -15z m-264 -75 c0 -10 -4 -22 -10 -25 -6 -4 -10 7 -10 25 0 18
4 29 10 25 6 -3 10 -15 10 -25z m-53 -37 c-3 -10 -5 -2 -5 17 0 19 2 27 5 18
2 -10 2 -26 0 -35z"/>
<path d="M5832 7848 c-6 -15 -18 -66 -27 -113 -21 -112 -50 -194 -120 -338
-58 -120 -68 -163 -20 -87 96 152 195 443 183 535 l-4 30 -12 -27z"/>
<path d="M2050 7266 c0 -8 5 -18 10 -21 6 -3 10 3 10 14 0 12 -4 21 -10 21 -5
0 -10 -6 -10 -14z"/>
<path d="M1950 7190 c1 -14 7 -38 16 -55 l14 -30 -5 45 c-7 49 -25 80 -25 40z"/>
<path d="M1832 7180 c0 -14 2 -19 5 -12 2 6 2 18 0 25 -3 6 -5 1 -5 -13z"/>
<path d="M1892 7175 c0 -16 2 -22 5 -12 2 9 2 23 0 30 -3 6 -5 -1 -5 -18z"/>
<path d="M2015 7188 c-4 -10 -4 -26 0 -35 8 -17 8 -17 12 0 3 9 3 25 0 35 -4
16 -4 16 -12 0z"/>
<path d="M2075 7171 c-7 -24 2 -61 16 -61 11 0 12 50 0 69 -7 11 -10 9 -16 -8z"/>
<path d="M1835 7001 c22 -10 61 -41 86 -70 50 -55 69 -63 69 -31 0 54 -87 120
-156 120 l-39 0 40 -19z"/>
<path d="M4510 6916 c-43 -88 -54 -121 -58 -175 -12 -182 66 -343 206 -422 31
-17 99 -60 150 -95 115 -79 177 -99 280 -91 80 6 180 46 217 87 15 17 6 15
-51 -12 -66 -32 -74 -33 -189 -33 -145 0 -169 9 -351 134 -131 91 -163 127
-193 225 -41 135 -35 271 19 398 49 115 27 103 -30 -16z"/>
<path d="M2210 6931 c0 -44 -5 -65 -21 -85 -18 -23 -27 -26 -84 -26 -35 0 -67
-5 -70 -10 -9 -14 39 -30 91 -30 37 0 51 6 74 28 31 32 47 98 35 151 -11 51
-25 35 -25 -28z"/>
<path d="M5684 6641 c9 -14 110 -59 255 -113 153 -57 326 -132 492 -213 61
-30 125 -55 141 -55 37 0 33 20 -8 33 -67 21 -173 66 -420 178 -315 142 -480
203 -460 170z"/>
<path d="M5552 6615 c0 -16 2 -22 5 -12 2 9 2 23 0 30 -3 6 -5 -1 -5 -18z"/>
<path d="M5700 6476 c0 -7 447 -268 541 -316 22 -12 43 -19 45 -17 11 11 -552
337 -581 337 -3 0 -5 -2 -5 -4z"/>
<path d="M5500 6431 c-7 -15 -7 -21 0 -21 12 0 25 28 17 36 -3 3 -10 -4 -17
-15z"/>
<path d="M5644 6341 c3 -5 54 -42 113 -82 144 -97 381 -269 470 -341 40 -32
168 -131 285 -220 117 -89 255 -197 306 -240 99 -84 127 -100 71 -42 -111 116
-1193 934 -1236 934 -8 0 -12 -4 -9 -9z"/>
<path d="M2229 6248 c-52 -34 -121 -74 -154 -89 -49 -23 -55 -28 -33 -29 42 0
261 121 298 165 28 33 -21 13 -111 -47z"/>
<path d="M4575 6300 c-11 -18 -24 -177 -35 -440 -13 -333 -25 -500 -55 -816
-13 -138 -31 -361 -40 -495 -8 -134 -20 -320 -25 -412 -6 -93 -15 -192 -20
-220 -16 -87 -58 -466 -85 -757 -44 -475 -46 -503 -60 -600 -8 -52 -21 -167
-29 -255 -47 -478 -58 -580 -81 -690 -36 -179 -62 -390 -85 -701 -23 -314 -53
-621 -75 -766 -8 -54 -12 -105 -9 -113 9 -22 41 -18 54 5 23 43 68 412 105
865 14 171 37 414 50 540 13 127 34 334 45 460 55 620 141 1452 176 1690 48
334 53 385 69 673 8 158 17 319 20 357 3 39 17 210 30 380 14 171 32 407 40
525 17 228 32 780 22 780 -3 0 -9 -4 -12 -10z"/>
<path d="M5567 6135 c12 -17 51 -64 88 -105 37 -41 133 -162 212 -267 80 -106
147 -193 149 -193 28 0 -336 471 -432 560 -37 34 -37 34 -17 5z"/>
<path d="M5528 6060 c82 -151 132 -228 132 -206 0 11 -104 186 -127 212 l-25
29 20 -35z"/>
<path d="M5113 5974 c3 -11 14 -73 23 -139 21 -151 37 -191 29 -75 -7 96 -31
217 -47 226 -6 4 -8 -1 -5 -12z"/>
<path d="M5222 5945 c0 -16 2 -22 5 -12 2 9 2 23 0 30 -3 6 -5 -1 -5 -18z"/>
<path d="M5264 5758 c9 -84 28 -120 22 -41 -2 33 -9 69 -16 80 -9 14 -10 7 -6
-39z"/>
<path d="M5174 5599 c12 -90 36 -218 47 -242 13 -30 3 79 -17 196 -18 98 -40
133 -30 46z"/>
<path d="M5240 5252 c0 -37 40 -226 51 -236 12 -13 12 -17 -11 114 -21 114
-39 170 -40 122z"/>
<path d="M3370 3004 c-30 -14 -118 -50 -195 -80 -154 -61 -241 -106 -213 -112
9 -2 68 19 130 47 135 59 167 68 178 51 10 -16 112 37 167 86 37 32 37 33 13
33 -14 0 -50 -11 -80 -25z"/>
<path d="M3743 2945 c7 -51 37 -109 45 -87 5 16 -28 121 -41 129 -7 4 -8 -11
-4 -42z"/>
<path d="M3575 2949 c17 -57 171 -340 222 -408 120 -160 330 -370 354 -356 22
14 4 38 -64 89 -156 115 -274 266 -417 533 -78 146 -111 195 -95 142z"/>
<path d="M2576 2942 c-3 -5 6 -50 19 -100 68 -247 313 -721 465 -899 183 -215
562 -497 814 -606 103 -45 180 -61 158 -34 -7 9 -48 30 -90 48 -179 74 -338
172 -527 324 -302 242 -412 373 -577 685 -75 141 -142 297 -190 444 -38 118
-59 158 -72 138z"/>
<path d="M2807 2883 c12 -81 176 -433 283 -608 139 -228 516 -592 746 -721 85
-47 194 -88 206 -76 5 5 -26 26 -74 49 -174 84 -375 240 -599 463 -114 114
-173 182 -222 256 -77 117 -202 353 -247 469 -59 153 -82 205 -90 205 -5 0 -6
-17 -3 -37z"/>
<path d="M2135 2896 c-81 -17 -143 -50 -151 -81 -9 -35 1 -67 30 -98 31 -33
64 -34 166 -7 230 63 357 155 263 191 -34 13 -236 9 -308 -5z m262 -42 c2 -6
-27 -25 -64 -42 -158 -72 -323 -84 -323 -24 0 19 75 50 166 66 90 17 216 17
221 0z"/>
<path d="M3195 2873 c-18 -17 -18 -18 -1 -21 24 -5 44 14 29 29 -7 7 -16 5
-28 -8z"/>
<path d="M3370 2797 c-257 -89 -345 -139 -338 -191 6 -40 47 -30 178 42 149
81 290 170 290 183 0 12 12 15 -130 -34z m-100 -65 c0 -16 -34 -40 -99 -71
-110 -52 -87 -15 29 48 59 32 70 36 70 23z"/>
<path d="M3063 2818 c-20 -10 -32 -28 -18 -28 12 0 75 29 75 34 0 9 -33 6 -57
-6z"/>
<path d="M3826 2763 c15 -27 56 -90 91 -141 120 -173 201 -258 240 -250 14 2
-1 23 -59 86 -43 45 -123 143 -179 217 -104 137 -143 174 -93 88z"/>
<path d="M2395 2693 c-22 -2 -75 -11 -118 -19 -157 -31 -240 -72 -273 -135
-14 -28 -14 -32 2 -50 10 -11 33 -29 52 -41 27 -17 38 -19 58 -9 37 16 29 28
-31 46 -30 8 -55 20 -55 25 0 20 84 90 119 99 62 16 244 59 278 66 88 17 11
-53 -139 -127 -58 -29 -87 -49 -87 -60 -1 -24 1 -23 73 13 138 70 256 150 256
174 0 7 -10 15 -22 19 -23 6 -40 6 -113 -1z"/>
<path d="M3517 2619 c-10 -6 -29 -8 -41 -5 -25 6 -144 -61 -245 -137 -70 -54
-81 -71 -59 -94 16 -16 20 -16 50 -1 37 17 253 170 308 217 34 29 25 42 -13
20z m-77 -34 c0 -9 -138 -114 -185 -139 l-50 -28 40 36 c33 31 182 136 192
136 2 0 3 -2 3 -5z"/>
<path d="M3636 2459 c-22 -18 -49 -32 -70 -34 -58 -5 -268 -145 -281 -186 -19
-58 45 -44 158 34 91 63 247 193 247 207 0 18 -19 11 -54 -21z m-119 -103
c-51 -45 -163 -116 -184 -116 -27 0 -10 21 50 62 73 50 158 98 172 97 6 0 -12
-19 -38 -43z"/>
<path d="M2510 2443 c-75 -12 -174 -37 -243 -59 -97 -32 -150 -78 -145 -126 4
-37 47 -74 74 -64 15 6 14 10 -9 34 -31 33 -33 39 -11 63 34 37 352 144 372
125 10 -10 -30 -39 -128 -93 -111 -60 -142 -82 -134 -95 10 -15 53 0 136 48
178 104 223 190 88 167z"/>
<path d="M3750 2308 c-84 -51 -279 -197 -290 -218 -6 -10 -10 -24 -10 -30 0
-16 42 -29 63 -18 25 13 21 31 -5 23 -20 -6 -18 -2 11 29 36 37 57 47 47 21
-8 -23 3 -18 58 24 72 56 189 177 185 190 -3 7 -25 -1 -59 -21z"/>
<path d="M2580 2207 c-92 -33 -226 -105 -267 -143 -29 -28 -34 -38 -28 -61 7
-31 32 -52 60 -53 46 0 294 151 359 219 24 25 27 33 16 46 -18 21 -64 18 -140
-8z m75 -32 c-96 -84 -306 -212 -326 -199 -28 17 24 86 99 130 53 32 229 104
252 103 9 0 -2 -15 -25 -34z"/>
<path d="M3875 2118 c-113 -85 -235 -209 -235 -239 0 -29 17 -49 41 -49 19 0
95 84 185 205 114 153 115 164 9 83z m-64 -116 c-13 -25 -101 -105 -108 -98
-7 7 32 60 68 90 36 31 54 34 40 8z"/>
<path d="M4008 1962 c-113 -117 -140 -159 -136 -208 2 -27 8 -39 18 -39 26 0
217 299 208 326 -2 6 -42 -30 -90 -79z m-59 -128 c-12 -13 -26 -24 -31 -24
-10 0 8 37 31 64 15 17 16 17 19 1 2 -9 -6 -28 -19 -41z"/>
<path d="M2740 1979 c-79 -40 -193 -125 -225 -169 -46 -62 -26 -100 50 -100
47 0 99 36 191 131 142 147 134 213 -16 138z m70 -25 c0 -22 -96 -120 -162
-165 -87 -60 -129 -47 -72 21 45 53 196 160 226 160 5 0 8 -7 8 -16z"/>
<path d="M2980 1826 c-83 -29 -247 -160 -269 -215 -7 -15 -11 -46 -9 -67 4
-51 37 -65 100 -41 108 42 258 213 258 295 0 42 -21 50 -80 28z m50 -39 c0
-33 -163 -202 -227 -236 -60 -31 -81 2 -43 65 53 84 270 222 270 171z"/>
<path d="M3162 1639 c-23 -12 -75 -52 -115 -89 -153 -143 -188 -280 -71 -280
58 0 172 112 256 251 45 74 47 91 12 118 -33 26 -30 26 -82 0z m48 -62 c0 -67
-178 -267 -237 -267 -67 0 35 167 157 256 54 40 80 44 80 11z"/>
<path d="M3347 1459 c-102 -67 -217 -228 -203 -284 9 -34 49 -59 83 -51 67 16
243 247 243 318 0 56 -53 63 -123 17z m83 -27 c0 -37 -81 -153 -150 -215 -64
-58 -80 -60 -80 -10 0 48 42 113 124 191 72 69 106 80 106 34z"/>
<path d="M3645 1321 c-47 -28 -133 -129 -165 -195 -35 -70 -38 -114 -10 -144
34 -36 63 -28 128 36 61 60 125 173 137 243 13 72 -28 99 -90 60z m45 -47 c0
-71 -126 -265 -163 -251 -27 10 -21 67 11 118 33 51 130 159 143 159 5 0 9
-12 9 -26z"/>
<path d="M3904 1201 c-43 -26 -110 -106 -140 -169 -30 -60 -30 -128 1 -162 38
-42 128 -11 168 58 31 53 67 164 67 210 0 29 -6 48 -20 62 -25 25 -37 25 -76
1z m60 -39 c9 -26 -21 -130 -53 -187 -28 -50 -81 -92 -101 -80 -5 3 -10 30
-10 60 0 49 4 60 51 122 74 100 102 121 113 85z"/>
</g>
</svg>
