<?xml version="1.0" standalone="no"?>
<!DOCTYPE svg PUBLIC "-//W3C//DTD SVG 20010904//EN"
 "http://www.w3.org/TR/2001/REC-SVG-20010904/DTD/svg10.dtd">
<svg version="1.0" xmlns="http://www.w3.org/2000/svg"
 width="1280.000000pt" height="905.000000pt" viewBox="0 0 1280.000000 905.000000"
 preserveAspectRatio="xMidYMid meet">
<metadata>
Created by potrace 1.15, written by Peter Selinger 2001-2017
</metadata>
<g transform="translate(0.000000,905.000000) scale(0.100000,-0.100000)"
fill="#e8c87278" stroke="none">
<path d="M1944 8800 l8 -250 -774 0 c-841 0 -1191 -7 -1162 -23 11 -6 221 -7
594 -3 317 4 748 4 958 0 l382 -7 0 -72 0 -73 -692 -6 c-1036 -9 -1258 -15
-1258 -33 0 -13 30 -14 227 -9 126 3 566 9 978 12 l751 6 22 -448 c13 -247 27
-561 33 -699 5 -137 14 -286 19 -329 6 -44 8 -81 6 -83 -2 -2 -15 15 -29 39
-14 24 -72 106 -128 184 -57 78 -162 225 -234 327 -71 103 -133 187 -136 187
-4 0 -33 -33 -65 -72 -32 -40 -131 -150 -219 -243 -510 -541 -721 -780 -1069
-1209 -138 -170 -160 -200 -154 -217 2 -7 29 19 58 57 72 90 481 574 583 689
95 106 496 541 649 703 96 101 182 206 207 251 5 9 12 14 14 11 3 -3 44 -68
93 -145 49 -77 154 -228 234 -335 80 -107 160 -216 178 -242 l32 -47 -2 -221
-3 -220 -76 97 c-42 54 -122 166 -179 248 -57 83 -119 168 -139 191 -20 23
-76 87 -126 143 l-89 102 -14 -28 c-23 -44 -220 -287 -331 -408 -56 -60 -185
-204 -288 -320 -103 -115 -237 -264 -298 -330 -101 -110 -253 -288 -430 -505
-120 -148 -10 -33 174 180 97 113 228 261 291 330 63 69 179 197 256 285 78
88 187 210 244 270 109 117 225 255 331 395 36 47 69 85 74 86 9 0 36 -31 185
-213 32 -40 99 -132 149 -205 50 -73 131 -184 181 -247 l90 -114 0 -147 c0
-226 -19 -556 -36 -640 -36 -169 -220 -660 -341 -909 -49 -102 -135 -201 -262
-305 -89 -72 -142 -97 -322 -151 -229 -68 -367 -94 -580 -107 -179 -11 -417
-3 -486 18 -13 3 -23 2 -23 -3 0 -20 120 -36 313 -40 294 -8 434 11 745 96
216 60 335 130 500 293 l82 82 56 -12 c31 -6 78 -26 105 -43 56 -36 147 -131
175 -185 l19 -36 -60 -55 c-170 -156 -392 -283 -650 -373 -133 -46 -377 -91
-593 -111 -144 -12 -409 -5 -576 17 -119 15 -150 12 -64 -5 102 -21 254 -32
453 -33 319 -1 585 43 855 139 245 88 401 178 566 327 40 36 75 66 78 66 3 0
6 -67 6 -149 l0 -148 -78 -75 c-155 -148 -316 -233 -673 -356 -249 -86 -407
-112 -675 -112 -211 0 -305 8 -467 41 -105 22 -134 19 -74 -6 80 -33 302 -75
404 -75 113 -1 4 -27 -189 -46 -61 -6 -68 -9 -68 -28 0 -49 22 -61 119 -64 85
-4 91 -5 91 -25 0 -12 5 -39 10 -59 13 -45 76 -84 150 -94 41 -5 50 -4 61 13
11 19 14 19 51 5 33 -13 54 -14 146 -4 l108 12 195 -49 c334 -85 399 -95 604
-95 164 0 187 3 259 26 65 20 88 23 125 16 130 -24 309 -40 516 -45 l230 -5
86 -44 86 -45 36 -77 c34 -74 87 -229 87 -256 0 -24 138 -431 184 -543 65
-159 79 -224 80 -378 1 -139 2 -134 -65 -244 -13 -21 -12 -25 13 -44 15 -11
76 -40 135 -65 106 -44 111 -45 238 -50 119 -4 138 -2 225 23 192 55 373 137
481 216 37 27 69 49 72 49 3 0 22 -29 43 -65 l36 -65 -43 -73 c-60 -101 -187
-225 -269 -264 -183 -87 -333 -109 -527 -79 -130 20 -196 42 -352 121 -183 92
-172 76 -117 172 46 80 54 103 37 103 -21 0 -75 -82 -133 -200 -33 -69 -83
-161 -110 -204 -116 -187 -191 -351 -248 -544 -42 -141 -60 -265 -34 -239 4 3
35 91 69 194 35 103 81 226 103 273 33 71 247 477 258 489 2 2 41 -19 86 -46
228 -136 342 -173 556 -180 186 -7 199 -3 398 93 139 68 157 79 214 141 34 37
78 94 98 126 24 39 38 54 43 45 11 -21 66 -264 83 -368 22 -135 34 -283 42
-531 6 -218 12 -255 35 -232 9 9 12 84 11 275 0 213 -4 291 -22 408 -43 299
-99 494 -170 603 l-44 66 1 230 2 229 35 47 c41 53 93 158 131 262 28 79 37
142 56 382 l12 164 49 -54 c52 -58 123 -161 176 -257 59 -104 186 -265 268
-338 132 -119 170 -144 215 -144 81 0 120 37 183 171 45 99 59 118 72 98 3 -6
25 -20 48 -30 52 -24 194 -26 256 -4 23 8 62 15 86 15 l44 0 2 -820 c1 -451 3
-859 3 -907 l0 -88 -398 -5 c-463 -6 -427 4 -427 -115 0 -40 -3 -100 -7 -134
l-6 -63 29 4 29 3 0 121 0 121 629 6 c801 9 5199 9 5288 1 l66 -7 -3 -31 c-3
-17 -7 -73 -9 -123 -6 -92 -6 -93 18 -93 22 0 23 3 30 108 4 59 11 136 16 172
19 128 69 593 80 743 6 83 18 222 25 307 19 197 60 756 75 1010 6 107 15 245
20 305 5 61 9 245 9 410 1 423 31 858 92 1345 64 513 121 787 243 1172 36 111
90 284 121 383 31 99 65 199 76 223 l19 44 37 -22 c21 -11 48 -29 61 -38 l22
-17 -24 -62 c-111 -272 -194 -758 -251 -1463 -47 -597 -86 -1722 -84 -2470 2
-435 14 -1124 17 -935 1 61 6 396 12 745 38 2398 119 3485 302 4027 22 67 44
127 48 133 5 9 18 9 49 0 37 -10 40 -13 30 -31 -19 -36 -38 -112 -56 -229 -16
-100 -18 -182 -18 -625 0 -303 4 -525 10 -548 7 -26 9 81 7 349 -5 541 16 869
64 1017 l16 48 98 -7 c54 -3 133 -3 174 1 l76 7 0 30 0 31 -47 -6 c-203 -26
-298 -16 -429 47 -74 35 -99 58 -91 80 5 12 15 11 69 -2 96 -24 332 -23 426 2
l72 20 0 42 0 41 -107 12 c-297 34 -604 116 -1024 276 -372 142 -605 278
-1049 611 -518 389 -819 681 -1230 1194 -90 113 -221 273 -290 355 -69 83
-136 165 -148 183 -13 17 -32 32 -43 32 -10 0 -19 -3 -19 -6 0 -12 71 -108
215 -289 83 -104 200 -253 260 -330 167 -213 290 -354 468 -534 190 -192 335
-322 565 -505 164 -131 322 -271 322 -286 0 -4 -36 -61 -79 -126 -89 -134
-184 -244 -211 -244 -10 0 -34 -19 -55 -41 -29 -33 -36 -47 -32 -69 5 -22 -1
-34 -33 -65 -22 -21 -42 -37 -44 -34 -2 2 -29 92 -61 199 -31 107 -72 227 -90
265 -50 105 -78 126 -225 168 -69 20 -141 40 -160 45 -34 8 -35 10 -42 68 -17
137 -88 303 -178 415 -84 106 -173 165 -288 194 -98 24 -383 58 -439 51 -77
-9 -172 -47 -269 -107 -147 -91 -153 -100 -212 -284 -29 -88 -59 -186 -68
-217 -15 -57 -16 -58 -52 -58 -76 0 -321 -51 -512 -107 -95 -28 -133 -44 -158
-67 -64 -59 -107 -175 -203 -543 -17 -68 -35 -123 -38 -123 -4 0 -26 16 -49
35 -35 31 -40 40 -36 65 5 23 -1 36 -36 73 -23 25 -47 44 -54 41 -24 -9 -173
176 -265 328 l-22 37 388 389 c213 214 415 410 448 437 33 26 61 49 63 50 10
8 -250 210 -385 299 -262 173 -391 234 -698 328 l-140 43 -155 -1 c-188 -1
-309 -24 -480 -90 -215 -84 -364 -179 -492 -312 -97 -102 -154 -197 -197 -329
-44 -136 -55 -237 -55 -513 0 -216 3 -258 23 -350 62 -293 133 -461 296 -705
98 -147 208 -285 227 -285 13 0 66 45 248 210 74 67 213 185 307 262 95 77
216 185 268 241 l96 101 56 -28 c31 -15 118 -66 195 -114 125 -78 138 -89 138
-115 0 -37 45 -82 96 -96 27 -7 59 -31 106 -78 l67 -68 -29 -120 c-16 -66 -50
-212 -75 -325 -25 -113 -50 -214 -55 -225 -5 -11 -25 -108 -45 -215 -20 -107
-47 -240 -60 -295 -13 -55 -33 -154 -45 -220 -12 -66 -25 -123 -29 -128 -4 -4
-479 -6 -1056 -5 l-1049 3 -8 42 c-4 24 -11 50 -16 60 -7 11 -6 23 2 35 13 22
-8 67 -39 83 -11 5 -49 40 -85 76 -53 54 -80 72 -144 98 -154 64 -273 75 -436
41 -139 -28 -237 -80 -352 -186 -51 -47 -98 -95 -104 -107 -6 -12 -14 -46 -17
-76 -4 -29 -8 -55 -9 -56 -2 -1 -398 -5 -880 -8 -703 -4 -878 -2 -878 8 0 7
17 50 39 96 101 222 202 555 222 739 16 144 17 1057 1 1210 -6 63 -16 241 -22
395 -6 154 -21 496 -35 760 -13 264 -29 586 -35 715 -15 334 -20 380 -38 380
-13 0 -14 -31 -8 -250z m4443 -580 c12 -157 26 -323 32 -370 5 -47 8 -86 6
-88 -2 -2 -20 1 -42 7 -21 6 -72 11 -114 11 l-76 0 -93 228 c-51 125 -112 271
-136 324 -23 54 -40 99 -36 102 16 8 215 57 269 65 32 5 83 8 113 7 l55 -1 22
-285z m248 233 c77 -25 141 -46 143 -48 1 -1 -4 -47 -12 -101 -22 -146 -76
-609 -76 -648 0 -19 -4 -37 -8 -40 -4 -2 -43 19 -85 49 -43 29 -90 58 -106 65
-35 14 -34 9 -61 335 -34 414 -36 436 -32 440 11 10 108 -11 237 -52z m-737
-45 c24 -30 264 -619 258 -634 -2 -6 -33 -28 -69 -47 -35 -20 -70 -43 -77 -52
-7 -8 -18 -15 -26 -15 -7 0 -68 66 -135 148 -240 288 -307 367 -328 386 l-22
20 68 44 c62 40 298 162 314 162 4 0 11 -6 17 -12z m968 -34 c91 -40 205 -98
252 -127 l42 -27 -45 -83 c-158 -287 -295 -570 -282 -583 2 -3 63 109 135 248
72 139 148 286 169 326 28 54 42 72 55 68 22 -5 238 -146 238 -155 0 -16 -517
-611 -531 -611 -3 0 -24 19 -46 43 -21 23 -50 48 -64 55 -13 7 -39 26 -57 41
l-32 28 9 69 c6 38 26 204 46 369 34 290 44 365 50 365 1 0 29 -12 61 -26z
m-1200 -381 c92 -115 196 -240 231 -279 35 -40 63 -76 63 -80 0 -5 -11 -31
-25 -58 -14 -27 -25 -55 -25 -63 0 -7 -4 -13 -10 -13 -5 0 -130 74 -277 164
-148 90 -292 175 -321 190 -29 15 -55 33 -58 41 -8 20 42 107 98 171 52 60
134 134 148 134 5 0 84 -93 176 -207z m1886 -35 l89 -73 -33 -24 c-18 -14
-157 -148 -309 -299 l-276 -274 -52 58 c-28 32 -51 62 -51 67 0 5 52 64 117
131 126 131 251 274 353 403 36 46 67 83 69 83 2 0 44 -33 93 -72z m1494 -98
c161 -24 242 -48 310 -92 l49 -32 -35 -6 c-20 -3 -41 -9 -47 -13 -23 -15 -73
-115 -88 -178 -17 -74 -18 -79 -7 -79 4 0 18 28 31 63 34 86 82 177 95 178 36
3 93 -4 104 -14 28 -23 113 -174 141 -253 17 -45 37 -120 46 -166 37 -192 122
-501 193 -700 52 -145 122 -312 141 -333 10 -11 30 -43 45 -71 15 -27 46 -75
68 -105 41 -53 42 -55 41 -134 -1 -88 -23 -158 -71 -226 -33 -47 -43 -51 -83
-37 -75 26 -379 -10 -465 -55 -54 -28 -131 -127 -277 -352 -77 -119 -158 -196
-232 -219 -19 -6 -20 -2 -17 127 5 297 35 652 78 942 8 55 24 165 34 244 19
133 22 147 55 190 44 61 73 128 81 191 5 40 10 50 26 50 10 0 32 10 49 22 71
53 90 137 43 185 -24 24 -25 29 -15 63 33 112 -19 282 -117 379 -59 58 -177
118 -264 134 -56 10 -66 15 -58 27 5 8 10 38 10 66 0 48 -3 55 -40 88 -36 33
-45 36 -98 36 -104 -1 -172 -39 -172 -96 0 -36 46 -84 81 -84 49 0 -5 -51 -86
-81 -69 -25 -190 -102 -205 -129 -25 -47 -41 -150 -52 -330 l-11 -195 30 -95
c24 -73 33 -121 38 -208 3 -62 12 -130 20 -152 16 -45 82 -145 133 -202 l34
-38 -26 -112 c-52 -217 -56 -237 -56 -275 0 -21 6 -48 14 -59 12 -17 12 -29 1
-79 -44 -189 -67 -350 -73 -505 -7 -154 -8 -165 -26 -165 -37 0 -102 113 -147
255 -22 71 -56 152 -74 181 -51 81 -200 225 -269 259 -79 40 -82 43 -124 124
l-37 71 0 131 0 130 56 65 c82 95 111 136 163 225 95 163 155 338 276 794 59
221 114 398 141 451 29 57 212 175 319 205 67 18 171 16 326 -6z m-3724 -54
c51 -30 196 -117 321 -194 126 -78 232 -142 236 -144 5 -2 11 -47 14 -101 5
-88 4 -97 -11 -93 -40 12 -680 185 -706 191 l-29 6 7 87 c9 117 52 302 71 302
2 0 45 -24 97 -54z m1022 -61 c93 -17 227 -84 341 -170 92 -69 315 -282 315
-300 0 -11 -160 -165 -171 -165 -2 0 -56 52 -120 115 -133 131 -189 165 -279
165 -30 0 -76 -8 -102 -17 -67 -24 -82 -58 -76 -174 6 -125 48 -206 171 -336
l92 -96 -70 -65 c-39 -35 -89 -80 -113 -100 -50 -41 -36 -51 -144 108 -82 121
-187 329 -225 445 -38 117 -44 295 -13 379 26 69 75 127 145 171 91 58 126 64
249 40z m2480 1 c76 -32 87 -99 27 -167 l-38 -44 91 0 c86 0 96 -2 168 -38
131 -66 184 -125 228 -252 34 -98 19 -230 -25 -230 -18 0 -21 9 -26 70 -11
135 -88 229 -269 328 -86 47 -116 51 -261 37 -109 -10 -208 -35 -301 -75 -11
-4 -18 -3 -18 4 0 23 135 98 244 136 32 12 54 27 64 45 9 16 30 34 46 42 48
21 44 36 -8 31 -60 -7 -92 2 -112 33 -16 24 -16 26 3 45 23 24 86 48 126 49
15 0 43 -6 61 -14z m-3442 -360 c123 -35 290 -80 372 -98 l149 -35 14 -54 c7
-30 20 -73 27 -96 8 -23 12 -44 8 -47 -3 -3 -182 -6 -397 -6 l-392 0 -7 92
c-7 104 -8 308 -2 308 3 0 105 -29 228 -64z m3548 21 c119 -49 243 -156 281
-242 16 -35 18 -56 13 -118 l-7 -74 50 4 c58 6 83 -11 83 -57 0 -41 -63 -106
-113 -115 -29 -6 -35 -10 -27 -20 7 -9 3 -36 -16 -96 -30 -97 -99 -197 -189
-274 -30 -26 -75 -73 -100 -105 -25 -32 -66 -74 -92 -93 -44 -32 -55 -35 -128
-38 l-81 -4 -58 79 c-118 158 -115 153 -127 325 -6 96 -15 161 -24 175 -28 43
-41 120 -37 208 4 80 6 88 29 103 24 16 26 16 40 -4 19 -27 73 -55 84 -44 15
15 -86 85 -118 81 -27 -3 -27 -2 -25 42 6 88 21 172 33 186 34 41 156 79 296
93 143 14 174 12 233 -12z m-2389 -79 c59 -39 259 -229 259 -246 0 -4 -63 -72
-139 -152 l-139 -145 -20 25 c-11 14 -49 60 -85 103 -96 115 -159 263 -143
338 3 13 7 37 11 52 9 42 57 67 131 67 56 0 68 -4 125 -42z m1644 -205 c-13
-54 -31 -133 -40 -175 l-17 -77 -76 -25 c-43 -15 -86 -26 -96 -26 -29 0 -98
-77 -130 -145 -15 -33 -48 -130 -71 -215 -69 -248 -92 -329 -123 -430 -17 -52
-55 -207 -87 -345 -31 -137 -66 -286 -77 -330 -53 -212 -257 -1255 -339 -1730
-27 -159 -63 -366 -80 -460 -17 -93 -41 -237 -53 -320 l-21 -150 -203 -3
c-191 -2 -203 -1 -198 15 20 64 60 283 90 489 19 132 42 272 50 310 26 122 36
174 82 439 25 143 65 367 90 498 24 131 62 341 84 465 22 125 53 288 70 362
16 74 34 162 40 195 11 57 59 260 172 725 52 212 92 360 107 395 5 11 23 76
41 145 42 164 83 269 123 313 29 32 47 40 174 76 146 41 412 96 489 100 l22 1
-23 -97z m1680 -4 c81 -24 150 -50 163 -62 13 -12 36 -48 52 -82 31 -63 110
-323 110 -362 0 -13 4 -23 9 -23 5 0 12 -10 15 -22 28 -99 84 -323 131 -528
31 -135 72 -303 90 -375 38 -150 71 -332 62 -341 -3 -3 -18 3 -33 15 -52 41
-104 21 -124 -49 -12 -42 8 -89 49 -113 39 -23 62 -21 105 8 44 30 41 34 65
-104 l19 -101 -44 -20 c-24 -10 -71 -39 -103 -64 -66 -51 -77 -54 -85 -28 -4
10 -22 45 -41 77 -30 48 -38 76 -50 163 -31 220 -71 344 -147 458 l-50 75 37
41 c55 60 78 120 83 214 4 81 4 82 -35 140 -63 94 -143 230 -143 244 0 8 -7
21 -15 30 -36 40 -275 766 -275 837 0 18 -3 18 155 -28z m1055 -219 c0 -3 -25
-18 -56 -33 -46 -23 -252 -150 -309 -191 -8 -6 -21 -2 -39 12 l-27 20 47 53
c63 71 127 159 177 242 l40 68 84 -83 c45 -45 83 -85 83 -88z m108 53 c22 -13
22 -14 5 -38 -10 -13 -22 -25 -27 -25 -9 0 -158 155 -164 172 -2 4 34 -15 80
-44 45 -28 93 -58 106 -65z m-5010 -18 c27 -53 46 -97 43 -99 -3 -2 -76 -21
-161 -41 -85 -20 -263 -63 -394 -96 -132 -32 -241 -58 -242 -56 -5 5 -82 295
-89 334 -5 35 -4 42 12 46 10 3 190 5 400 6 l382 1 49 -95z m844 -99 c37 -55
90 -126 117 -158 28 -31 51 -61 51 -66 0 -5 -12 -17 -26 -27 -25 -16 -27 -16
-47 3 -31 27 -208 137 -281 174 -34 17 -63 32 -65 34 -3 3 33 43 80 90 72 72
85 82 94 68 6 -9 40 -62 77 -118z m4351 13 c59 -34 107 -64 107 -67 0 -12 -72
-112 -81 -112 -11 0 -72 52 -156 134 l-63 60 27 28 c32 33 26 35 166 -43z
m152 -356 c83 -67 215 -181 295 -253 80 -73 162 -145 182 -161 l37 -30 58 68
c32 38 83 103 113 145 30 43 61 78 68 78 19 0 72 -29 72 -39 0 -5 -15 -45 -34
-88 -51 -119 -271 -802 -316 -980 -34 -135 -83 -381 -92 -463 l-3 -25 -540 0
-540 0 -11 55 c-6 30 -10 58 -8 61 2 3 31 0 66 -7 78 -17 155 -6 227 30 161
82 174 307 26 465 -58 61 -191 132 -264 139 -60 5 -88 -10 -128 -69 -14 -22
-29 -36 -33 -32 -3 4 -14 51 -24 103 -9 52 -24 115 -32 140 -8 25 -43 173 -79
330 -36 157 -73 315 -84 352 l-19 66 68 66 c44 42 80 68 100 72 45 10 100 64
100 100 0 27 12 37 149 122 82 51 169 101 192 112 l44 19 130 -128 c72 -70
198 -182 280 -248z m-3281 255 c-57 -160 -143 -321 -249 -468 -112 -155 -110
-149 -110 -290 l0 -125 39 -75 c21 -41 45 -83 54 -93 20 -22 18 -75 -8 -182
-20 -85 -98 -312 -124 -363 -9 -17 -16 -42 -16 -56 0 -17 -22 -46 -74 -98
-166 -167 -214 -306 -146 -424 27 -48 51 -73 96 -100 17 -10 16 -17 -14 -152
-18 -77 -32 -152 -32 -166 0 -70 128 -133 424 -209 l209 -54 -59 -33 c-107
-61 -205 -131 -213 -153 -13 -34 -134 -524 -191 -777 -29 -123 -54 -228 -56
-232 -3 -5 -138 -8 -300 -8 l-295 0 5 33 c3 17 17 113 31 212 14 99 35 223 46
275 11 52 35 183 54 290 18 107 43 245 54 305 11 61 58 322 106 580 47 259
103 556 125 660 69 328 243 1044 290 1195 16 52 45 154 65 225 36 133 89 258
123 288 15 14 147 61 184 66 4 1 -4 -32 -18 -71z m-1965 14 c17 -27 31 -53 31
-58 0 -5 -22 -21 -48 -35 -49 -28 -127 -82 -442 -308 l-184 -133 -24 28 c-26
33 -157 295 -167 336 l-7 26 219 52 c120 29 297 72 393 96 96 24 180 43 186
43 7 1 26 -21 43 -47z m5327 -33 c121 -56 384 -159 527 -205 l117 -39 -6 -60
c-6 -67 -44 -131 -149 -258 l-57 -67 -156 151 c-87 83 -223 205 -304 271 -82
65 -148 123 -148 129 0 9 79 119 85 119 1 0 42 -19 91 -41z m-958 -75 c36 -30
40 -38 31 -55 -5 -11 -21 -25 -34 -31 -20 -9 -29 -6 -64 22 -23 19 -41 37 -41
42 0 11 46 58 58 58 5 0 27 -16 50 -36z m-4269 -39 c22 -30 41 -58 41 -62 0
-5 -64 -60 -142 -123 -79 -63 -215 -186 -304 -272 l-161 -158 -44 52 c-59 69
-119 150 -119 159 0 4 39 31 87 60 47 29 152 100 232 158 206 148 343 241 357
241 6 0 30 -25 53 -55z m910 -51 c12 -15 21 -30 21 -33 0 -8 -81 -71 -90 -71
-11 0 -60 48 -60 59 0 12 80 71 96 71 7 0 22 -12 33 -26z m3271 -12 l21 -17
-65 -58 -64 -57 -10 28 c-9 24 -5 32 36 75 26 26 49 47 53 47 4 0 17 -8 29
-18z m-3189 -128 c43 -43 46 -49 37 -75 l-10 -29 -64 57 c-60 53 -63 57 -47
75 23 26 32 23 84 -28z m5044 16 c110 -30 240 -52 390 -65 125 -12 133 -19 40
-41 -125 -30 -291 -26 -431 10 -62 16 -117 32 -124 36 -13 8 -5 90 8 90 4 0
57 -14 117 -30z m-3199 -211 c-20 -118 -43 -277 -52 -354 -9 -77 -17 -141 -18
-142 -8 -8 -148 -23 -222 -23 l-92 0 13 38 c7 20 29 123 49 227 20 105 41 192
47 194 31 10 100 75 145 136 29 37 67 76 85 86 19 9 43 26 53 38 11 12 21 19
23 17 2 -2 -12 -100 -31 -217z m-319 -106 c-38 -175 -56 -238 -68 -233 -8 2
-38 5 -66 5 -29 0 -53 5 -53 10 0 6 11 57 24 114 16 69 30 109 42 118 10 7 42
13 72 13 54 0 54 0 49 -27z m-82 -255 c24 -11 26 -16 20 -47 -8 -45 -9 -45
-33 -32 -12 6 -39 11 -61 11 -46 0 -54 18 -25 58 17 25 58 29 99 10z m-13
-109 c21 -11 21 -12 3 -25 -36 -26 -115 -11 -115 21 0 18 80 21 112 4z m344
-81 c-3 -13 -6 -51 -6 -85 l0 -62 -72 -23 c-120 -37 -368 -26 -384 16 -2 6 2
45 8 86 l13 75 177 0 c97 1 180 4 184 8 4 4 25 7 47 7 36 0 39 -2 33 -22z
m-1076 -23 c37 -19 156 -125 209 -186 l41 -47 -35 -57 c-63 -106 -80 -173 -80
-320 1 -117 3 -137 28 -199 21 -54 29 -97 37 -208 11 -135 10 -140 -12 -184
-12 -25 -26 -48 -30 -50 -4 -3 -18 17 -32 44 -50 98 -139 182 -261 245 -54 28
-69 31 -150 32 -49 0 -107 -4 -127 -8 -49 -10 -49 0 -2 90 25 47 66 98 134
168 88 89 147 175 121 175 -6 0 -13 -4 -16 -10 -3 -5 -11 -10 -16 -10 -5 0 8
33 30 73 61 110 112 274 118 380 3 48 8 87 10 87 2 0 17 -7 33 -15z m1940 -11
c0 -4 -29 -37 -64 -74 -43 -46 -70 -86 -84 -123 -20 -51 -53 -243 -67 -389
-20 -194 -264 -499 -461 -576 -91 -36 -177 -45 -389 -39 -165 3 -212 8 -269
25 -171 53 -250 110 -342 248 -75 113 -96 176 -102 300 -3 80 0 118 17 184 23
92 64 190 80 190 14 0 32 -45 81 -195 62 -189 170 -325 291 -370 82 -30 303
-29 414 3 101 29 225 91 298 148 140 112 254 339 274 546 5 58 9 71 27 78 20
7 178 36 241 43 17 2 36 5 43 6 6 0 12 -2 12 -5z m121 -4 c21 0 35 -13 71 -67
87 -131 104 -181 158 -458 46 -236 69 -314 71 -234 l0 34 19 -40 c10 -22 19
-47 19 -56 1 -15 -546 -456 -554 -447 -5 5 -53 246 -71 358 -24 148 -22 312 8
505 30 197 51 246 144 344 53 56 72 71 88 67 12 -3 33 -6 47 -6z m-461 -88 c0
-51 -59 -240 -101 -326 -73 -147 -159 -243 -269 -300 -25 -13 -90 -38 -145
-56 -88 -29 -116 -34 -236 -38 -105 -3 -149 -1 -191 12 -59 17 -141 80 -122
93 7 5 14 68 18 158 4 82 10 153 14 157 4 4 33 -6 64 -21 74 -37 179 -49 292
-31 134 20 121 30 123 -90 1 -58 5 -105 10 -104 122 16 255 138 343 314 12 25
54 87 94 139 39 52 75 100 81 107 16 22 25 16 25 -14z m-547 -212 l-8 -85 -40
-15 c-28 -10 -81 -15 -175 -15 -118 0 -141 3 -180 21 -86 41 -83 35 -64 152
15 87 20 102 33 96 65 -28 96 -33 191 -33 99 -1 184 13 226 37 17 10 19 7 22
-31 1 -23 -1 -80 -5 -127z m1827 93 c87 -38 144 -79 178 -127 18 -24 32 -46
32 -49 0 -3 -13 -10 -29 -15 -28 -10 -30 -8 -65 48 -47 76 -84 94 -178 88 -66
-5 -68 -5 -68 18 0 12 4 34 10 49 11 30 30 28 120 -12z m-148 -30 c-4 -51 -6
-55 -89 -133 -91 -86 -112 -94 -157 -59 -28 22 -35 64 -16 100 11 20 54 26 65
9 3 -5 -1 -10 -10 -10 -9 0 -13 -4 -10 -10 3 -5 19 -10 35 -10 36 0 91 46 126
106 21 35 56 71 60 61 0 -1 -2 -26 -4 -54z m193 -75 c53 -46 75 -96 75 -170 0
-85 -21 -117 -102 -157 -46 -23 -80 -32 -122 -34 l-59 -2 -28 120 c-37 156
-37 163 9 207 51 50 89 68 144 68 39 0 54 -6 83 -32z m191 -133 c23 -57 18
-135 -14 -196 -28 -55 -84 -103 -132 -114 -23 -5 -25 -3 -25 27 0 18 -4 42 -8
53 -5 16 -1 24 22 38 38 22 69 88 74 156 3 42 9 57 23 62 35 14 45 9 60 -26z
m-6606 -70 c41 -15 98 -40 127 -56 49 -28 113 -89 113 -109 0 -22 -173 -115
-280 -150 -208 -67 -381 -75 -536 -26 -92 29 -142 59 -164 98 -14 26 -13 29
25 69 92 95 216 165 342 193 107 24 278 16 373 -19z m6405 -206 c0 -39 -3 -44
-25 -48 -14 -2 -63 3 -109 10 -66 10 -93 10 -129 0 -41 -11 -47 -10 -65 8 -20
19 -20 20 14 40 30 19 44 20 124 15 68 -4 100 -2 130 9 22 9 45 14 50 13 6 -2
10 -23 10 -47z m-6101 -4 c8 -22 -119 -108 -214 -145 -174 -67 -220 -75 -405
-75 -201 1 -284 16 -395 72 -64 32 -75 42 -78 66 -2 16 2 34 8 42 9 11 20 4
58 -34 39 -39 62 -52 137 -77 82 -26 102 -29 225 -28 106 0 154 5 225 23 125
32 228 74 310 125 72 46 119 57 129 31z m4920 -87 c10 -131 42 -306 71 -395
21 -62 24 -79 13 -88 -7 -7 -63 -51 -125 -98 l-111 -87 -89 6 c-94 7 -115 3
-528 -102 -197 -50 -201 -50 -281 -19 -137 55 -250 113 -299 154 -27 23 -88
65 -135 93 -47 28 -86 51 -87 52 -2 1 17 42 42 90 46 90 54 128 34 184 -6 17
-9 45 -7 63 l3 32 39 -56 c69 -102 150 -158 296 -205 100 -33 180 -42 361 -42
181 0 258 13 373 64 69 30 170 111 253 200 54 58 153 210 153 235 0 6 4 11 9
11 4 0 11 -41 15 -92z m842 48 c17 -14 18 -16 3 -28 -9 -7 -73 -59 -141 -115
l-125 -102 -20 27 -20 26 126 103 c69 56 133 102 142 102 8 1 24 -5 35 -13z
m177 -368 c36 -200 85 -469 107 -598 22 -129 52 -284 65 -345 13 -60 42 -234
65 -385 22 -151 51 -321 64 -377 l23 -102 -21 -5 c-12 -3 -94 -6 -184 -6 -121
0 -164 3 -167 13 -3 6 -14 75 -25 152 -11 77 -36 226 -55 330 -19 105 -55 314
-80 465 -25 151 -49 300 -54 330 -14 80 -61 331 -67 356 -5 17 4 25 48 47 69
34 107 74 119 126 9 40 6 47 -46 142 -30 54 -55 101 -55 103 0 7 120 97 142
105 54 22 50 35 121 -351z m-5925 222 c-1 -47 2 -95 6 -107 10 -32 -5 -29 -58
11 l-45 35 -25 -20 c-14 -11 -26 -27 -26 -36 0 -13 3 -13 26 2 25 16 27 16 48
-4 11 -11 39 -26 61 -33 34 -11 42 -20 58 -63 22 -61 61 -244 53 -252 -3 -4
-17 -1 -31 5 -14 7 -38 12 -53 12 -15 0 -40 7 -56 15 -21 11 -33 12 -40 5 -15
-15 5 -44 33 -48 18 -3 21 -10 21 -47 0 -36 -3 -44 -23 -49 -13 -3 -42 -19
-66 -36 -31 -23 -41 -37 -39 -53 3 -23 20 -27 71 -14 l28 8 -3 -83 -3 -83 -66
1 c-108 1 -102 -8 -94 157 3 78 13 237 21 352 8 116 14 238 14 272 l0 62 50
25 c27 14 66 36 87 50 48 33 54 24 51 -84z m-1028 17 c96 -47 183 -66 341 -74
149 -7 258 7 373 47 44 16 83 27 85 24 2 -2 -4 -95 -14 -206 -10 -112 -21
-319 -24 -462 l-6 -258 -155 -49 c-230 -73 -322 -90 -475 -92 -117 0 -138 2
-210 27 -97 33 -163 76 -244 161 l-61 64 19 48 c281 704 280 703 281 766 0 27
3 47 8 45 4 -2 41 -21 82 -41z m6681 -79 c8 -14 6 -18 -8 -19 -10 0 -42 -4
-70 -8 -29 -4 -53 -5 -53 -2 1 3 22 23 48 43 50 39 54 39 83 -14z m-6825 29
c4 -4 -8 -41 -26 -84 -143 -342 -255 -661 -246 -699 3 -12 42 -61 86 -107 92
-98 162 -137 301 -170 78 -19 89 -24 89 -44 0 -62 -24 -67 -113 -22 -62 32
-62 32 -177 26 -138 -8 -312 -36 -432 -71 -49 -14 -132 -31 -185 -36 -143 -16
-277 -38 -363 -60 -41 -10 -102 -24 -135 -30 -33 -7 -123 -28 -200 -47 -130
-32 -144 -34 -201 -24 -158 28 -318 11 -752 -80 l-282 -60 -68 25 c-37 14 -62
25 -57 25 6 1 73 12 150 26 129 22 354 90 512 153 231 93 472 258 557 381 l28
40 -3 153 c-4 145 -5 155 -31 199 -75 128 -186 226 -287 255 -31 9 -57 18 -59
19 -2 2 8 21 21 42 14 22 44 77 67 123 l42 83 879 -5 c484 -3 882 -8 885 -11z
m3313 -4 c3 -2 -19 -128 -47 -281 -29 -152 -77 -421 -107 -597 -30 -176 -64
-367 -75 -425 -10 -58 -26 -157 -35 -220 -20 -142 -51 -323 -71 -412 l-16 -68
-164 0 -164 0 -46 35 c-26 20 -66 41 -90 47 -24 7 -44 15 -44 19 0 3 9 32 21
65 25 74 79 290 80 324 0 20 16 35 83 78 153 99 305 258 292 306 -3 10 2 32
10 49 9 17 15 49 13 76 -1 25 0 57 4 71 3 14 8 59 12 101 5 63 3 80 -10 93
-28 28 -60 20 -87 -22 -14 -21 -68 -85 -121 -143 -100 -111 -209 -201 -266
-220 -30 -10 -36 -9 -58 14 -20 20 -27 40 -34 102 -14 127 -73 216 -133 201
-24 -6 -25 -7 -19 -77 4 -42 1 -98 -7 -139 l-13 -69 42 -111 c22 -61 41 -124
41 -140 0 -41 -22 -93 -103 -245 -53 -98 -86 -147 -137 -200 -37 -39 -81 -92
-98 -118 l-30 -48 -23 33 c-13 18 -45 56 -70 85 -54 59 -157 210 -195 286 -55
107 -182 246 -298 323 -136 91 -123 87 -305 95 -91 4 -179 12 -196 17 l-30 8
2 79 2 78 52 29 c33 19 55 40 62 58 l11 29 76 -6 c68 -5 78 -3 104 18 l29 23
-6 94 c-4 52 -9 97 -12 100 -3 3 -24 1 -46 -5 -37 -10 -39 -9 -25 6 8 9 32 23
53 30 56 20 63 29 63 77 0 48 6 51 60 32 29 -9 35 -9 47 7 32 44 2 226 -57
354 -17 35 -30 74 -30 87 l0 24 248 3 c305 3 1855 -4 1861 -10z m4854 10 c2
-5 -4 -73 -14 -153 -10 -80 -25 -230 -34 -335 -8 -104 -20 -235 -25 -290 -30
-298 -41 -558 -38 -849 2 -205 0 -306 -7 -306 -6 0 -46 -18 -89 -40 l-78 -40
-204 0 c-183 0 -204 2 -213 18 -14 26 -47 203 -85 452 -39 257 -155 921 -221
1271 -25 130 -45 244 -45 252 0 15 28 17 263 20 648 7 786 7 790 0z m-4020
-27 c118 -42 243 -148 294 -249 28 -57 31 -68 16 -62 -10 4 -37 14 -60 22 -24
8 -43 21 -43 28 0 7 -22 33 -49 57 -88 80 -232 142 -352 153 -35 3 -64 7 -66
8 -1 2 0 13 3 24 7 25 27 29 144 31 41 1 92 -5 113 -12z m2478 -38 c9 -17 9
-24 -3 -32 -7 -6 -81 -65 -163 -132 -83 -66 -155 -123 -162 -127 -15 -9 -58
32 -46 43 36 36 340 270 350 270 7 0 18 -10 24 -22z m236 -34 c2 -6 -30 -16
-79 -23 -46 -7 -115 -23 -155 -36 -40 -13 -73 -21 -73 -20 0 2 21 20 46 41 43
35 50 38 137 44 110 9 119 8 124 -6z m-2838 -29 c11 -6 -8 -75 -21 -75 -12 0
-88 71 -88 83 0 10 91 4 109 -8z m96 -36 c55 -24 149 -79 185 -109 l25 -20
-50 6 c-69 9 -48 -8 45 -36 106 -31 271 -118 363 -191 l77 -62 -30 -18 c-39
-24 -67 -70 -81 -136 -7 -29 -17 -53 -23 -53 -6 0 -117 26 -247 59 -169 41
-258 69 -312 95 -118 59 -114 39 -54 279 28 114 52 207 53 207 1 0 23 -9 49
-21z m2785 -9 c0 -27 -83 -116 -121 -129 -34 -12 -32 -14 -47 66 -12 71 -2 78
121 82 41 1 47 -2 47 -19z m-191 -157 c18 -82 46 -204 62 -272 16 -68 29 -141
29 -162 0 -53 -56 -225 -76 -233 -28 -11 -64 -6 -167 20 -147 37 -710 164
-789 177 l-68 11 0 71 c0 52 -5 78 -20 103 -19 31 -19 33 -3 40 52 21 374 -8
423 -38 16 -10 26 -104 19 -180 -4 -36 -5 -67 -2 -70 3 -3 14 6 25 20 18 22
20 36 16 122 -2 54 -1 98 2 98 3 0 117 -5 254 -10 278 -11 266 -8 313 -88 17
-28 29 -40 35 -34 15 15 -8 76 -40 110 -26 27 -33 29 -137 36 -61 4 -142 9
-182 13 l-71 6 -7 46 c-4 25 -16 68 -26 96 -10 27 -19 51 -19 52 0 8 144 115
180 133 40 21 196 79 211 80 3 0 20 -66 38 -147z m-459 -28 c17 -20 9 -28
-111 -125 -95 -76 -99 -78 -141 -73 -24 3 -44 7 -46 8 -6 5 255 204 269 205 9
0 22 -7 29 -15z m36 -152 c10 -40 15 -76 11 -79 -13 -13 -37 6 -37 29 0 13 -7
45 -16 70 -13 39 -14 50 -3 63 17 20 24 7 45 -83z m-63 -13 c8 -33 12 -62 8
-64 -11 -6 -151 16 -151 25 0 8 111 99 121 99 4 0 13 -27 22 -60z m-1337 -114
c55 -24 124 -51 155 -61 l56 -18 -23 -34 c-19 -29 -40 -78 -69 -160 -3 -9 -19
-6 -57 11 -29 13 -100 40 -158 61 -58 21 -109 41 -114 45 -16 15 24 120 61
160 19 22 39 40 43 40 4 0 52 -20 106 -44z m754 19 c18 -19 25 -40 28 -83 l4
-58 -81 -18 c-45 -10 -122 -39 -173 -65 -121 -60 -131 -77 -125 -213 2 -54 1
-98 -4 -98 -4 0 -19 21 -34 46 -24 41 -27 53 -21 104 4 32 3 61 -2 64 -15 9
-22 -93 -12 -174 5 -41 9 -78 10 -82 0 -15 20 -8 20 7 0 8 4 15 9 15 12 0 41
-28 41 -39 0 -10 -226 -181 -238 -181 -5 0 -19 11 -31 24 l-23 25 83 60 c47
35 93 61 107 61 24 0 24 0 4 18 -26 23 -46 143 -37 225 6 52 5 60 -6 49 -16
-15 -18 -135 -5 -221 13 -76 -12 -65 -42 20 -22 63 -24 127 -5 209 4 18 3 22
-6 15 -6 -6 -16 -36 -21 -66 -10 -52 -5 -103 16 -178 15 -50 -22 -14 -58 59
l-37 74 40 123 c44 134 57 151 151 193 49 22 335 93 346 86 4 -2 21 2 37 9 40
18 38 18 65 -10z m-2692 -162 c4 -28 -131 -224 -187 -270 -8 -7 -11 -16 -8
-20 10 -9 69 49 130 130 29 37 53 63 55 57 10 -28 -33 -112 -90 -178 -34 -40
-65 -72 -70 -72 -4 0 -8 -7 -8 -15 0 -26 13 -16 84 66 38 43 72 77 74 74 3 -2
-3 -26 -13 -52 -12 -31 -43 -73 -87 -119 -38 -40 -65 -74 -61 -77 5 -3 38 20
73 51 64 56 64 56 31 14 -67 -85 -306 -292 -338 -292 -7 0 -33 16 -59 35 -45
35 -63 40 -117 36 -25 -2 -27 0 -21 23 8 34 -12 114 -54 211 -32 75 -33 83
-22 127 6 25 11 79 10 120 -2 95 -2 92 16 77 26 -22 51 -81 63 -152 15 -85 24
-110 52 -136 56 -52 142 -8 309 155 69 67 141 148 160 178 37 59 72 72 78 29z
m2755 -45 c50 -34 88 -71 104 -101 14 -28 14 -29 -6 -22 -26 8 -27 -3 -1 -30
11 -11 21 -31 22 -44 2 -19 -3 -26 -26 -32 -24 -7 -33 -3 -58 22 -16 16 -37
29 -46 29 -11 0 -6 -10 17 -34 38 -39 36 -62 -6 -72 -20 -5 -30 -3 -37 11 -19
32 -58 76 -63 71 -3 -3 4 -18 16 -34 12 -17 21 -39 21 -50 0 -37 -52 -72 -106
-72 -30 0 -30 7 -2 30 21 17 21 18 4 44 -28 44 -74 66 -137 66 -73 0 -94 15
-86 64 3 21 12 45 18 53 17 20 119 71 199 99 82 30 133 30 173 2z m-1000 -23
c81 -24 82 -27 33 -62 -58 -41 -123 -124 -136 -174 -18 -66 -29 -183 -36 -377
l-7 -182 -32 -25 c-49 -37 -51 -61 -8 -104 l36 -36 -11 -105 c-47 -461 -72
-752 -66 -759 2 -2 36 -6 76 -8 40 -3 78 -6 85 -8 7 -2 -12 -61 -54 -166 -76
-190 -132 -392 -113 -414 6 -8 52 -28 101 -46 49 -17 89 -33 89 -35 0 -2 -33
-13 -72 -24 -219 -64 -535 -171 -741 -252 -71 -28 -130 -48 -132 -46 -8 7 124
600 169 763 70 251 99 372 191 795 48 217 113 510 146 650 33 140 69 296 80
345 19 82 24 94 63 130 50 47 255 167 274 160 7 -3 36 -12 65 -20z m1129 4
c29 -6 130 -29 223 -50 94 -22 180 -42 191 -44 29 -6 91 -138 134 -280 18 -61
52 -173 77 -250 24 -77 50 -175 58 -217 8 -42 21 -90 29 -107 10 -19 12 -32 6
-36 -6 -3 -10 -15 -10 -26 0 -10 -14 -50 -31 -89 l-32 -70 -325 0 -324 0 7 23
c4 12 9 78 12 147 6 142 -9 244 -57 395 -32 99 -57 142 -72 127 -6 -6 1 -43
21 -105 55 -171 73 -286 69 -429 -2 -81 -8 -132 -16 -140 -6 -6 -14 -10 -16
-7 -2 2 -9 54 -15 114 -13 126 -38 274 -51 295 -21 34 -23 -10 -6 -143 13
-108 20 -264 26 -652 8 -527 17 -652 80 -1199 10 -88 16 -163 14 -165 -2 -2
-28 14 -59 35 -138 97 -262 170 -410 243 -185 91 -412 187 -484 204 l-50 12
-6 55 c-4 30 -9 67 -11 82 -5 25 2 32 86 85 l91 58 -3 138 -3 137 110 0 c61 0
127 3 148 6 l37 7 0 111 c1 116 2 136 44 591 14 154 30 366 35 470 10 211 13
223 87 343 45 71 60 82 81 61 8 -8 4 -17 -15 -34 -23 -20 -24 -25 -13 -39 28
-33 131 -13 163 32 7 10 31 22 53 25 22 4 47 15 56 25 8 11 24 22 36 26 44 14
54 38 45 105 -8 53 -15 68 -47 101 -43 44 -41 45 37 29z m-989 -45 c3 -4 -18
-28 -46 -54 -101 -93 -126 -169 -147 -465 -7 -88 -15 -166 -19 -174 -4 -8 -18
-21 -31 -30 l-23 -16 7 165 c9 219 23 334 45 386 24 53 92 128 151 165 48 31
53 32 63 23z m114 -39 c29 -12 31 -17 31 -58 0 -91 69 -228 106 -214 15 6 41
-32 29 -43 -21 -19 -453 -320 -459 -320 -3 0 -4 26 0 59 4 32 13 129 21 216
13 144 17 161 46 213 18 32 59 83 93 114 64 61 64 61 133 33z m1892 -200 c17
-104 43 -242 57 -305 14 -63 40 -217 58 -342 l33 -227 -21 -5 c-25 -7 -466 -8
-466 -1 0 2 11 21 25 41 40 58 61 141 45 179 -6 16 -23 80 -36 140 -54 249
-171 591 -230 673 -22 30 -21 30 176 -19 91 -22 180 -41 198 -41 45 0 80 25
99 73 8 22 19 37 23 32 4 -4 21 -93 39 -198z m-6063 120 c3 -14 1 -38 -6 -54
-6 -16 -9 -44 -5 -63 l7 -34 -107 -33 c-105 -33 -107 -34 -253 -28 -136 5
-212 18 -212 37 0 4 7 13 15 20 8 7 15 27 15 45 l0 32 104 6 c98 6 273 44 371
81 56 20 64 19 71 -9z m4563 -54 c11 -7 10 -11 -7 -20 -28 -15 -32 -14 -32 9
0 21 16 26 39 11z m108 -9 c9 -6 4 -17 -20 -38 -42 -40 -113 -94 -122 -94 -18
0 9 78 38 108 31 32 75 42 104 24z m-5422 -78 c11 -4 54 -27 95 -50 101 -58
170 -74 332 -77 127 -2 137 0 228 31 52 18 107 42 122 52 27 20 108 29 108 12
0 -12 -97 -72 -177 -108 -113 -52 -204 -74 -303 -74 -108 0 -182 19 -289 72
-75 38 -201 136 -201 158 0 8 47 -1 85 -16z m-66 -42 c158 -163 407 -237 620
-184 100 26 256 98 329 153 l53 41 117 -4 117 -3 80 -55 c95 -66 188 -151 244
-224 50 -64 141 -214 141 -232 0 -21 -99 -122 -165 -170 -80 -57 -161 -93
-223 -101 -46 -5 -52 -3 -108 39 -32 25 -70 51 -82 57 -47 25 -36 -2 22 -54
l59 -53 -7 -119 c-4 -65 -13 -181 -20 -259 -15 -153 -21 -172 -137 -424 l-53
-115 -3 -200 c-3 -127 -8 -209 -16 -224 -13 -25 -133 -90 -308 -164 -116 -49
-268 -101 -275 -94 -2 2 7 28 21 58 21 46 25 68 24 149 0 60 -7 119 -18 160
-119 425 -130 510 -132 980 0 179 -4 334 -8 344 -7 19 -8 19 -15 0 -14 -32
-19 -608 -8 -754 11 -131 29 -216 117 -539 14 -51 25 -117 25 -145 0 -52 -52
-238 -73 -265 -9 -10 -37 -12 -132 -8 -105 4 -133 10 -225 41 -57 20 -108 40
-112 44 -5 5 3 24 17 43 46 61 58 128 52 274 -6 138 -30 234 -92 370 -39 86
-99 267 -145 435 -72 267 -124 390 -182 433 -32 23 -195 97 -215 97 -29 0 -58
221 -50 375 7 115 22 214 35 227 4 4 44 13 87 18 44 6 107 19 140 30 74 24
348 75 424 79 16 1 40 -16 80 -57z m5412 -34 c-38 -67 -44 -112 -71 -503 -12
-165 -25 -347 -31 -405 -5 -58 -14 -150 -19 -205 -5 -55 -12 -152 -15 -215
l-7 -115 -276 8 c-396 11 -452 13 -458 19 -7 8 10 228 43 558 l27 275 34 23
c19 13 37 21 39 18 2 -2 -3 -66 -11 -143 -9 -76 -25 -239 -36 -363 -11 -124
-22 -240 -26 -257 l-6 -33 305 0 305 0 6 113 c4 61 11 202 16 312 18 374 40
710 52 784 l11 73 71 58 c39 33 72 57 74 55 2 -1 -10 -27 -27 -57z m-6208
-100 c-10 -43 -15 -116 -16 -233 0 -174 1 -182 48 -297 7 -17 -3 -18 -129 -18
-154 0 -143 -6 -171 99 -21 82 -21 273 1 378 8 43 20 82 24 87 11 11 171 44
222 45 l36 1 -15 -62z m6047 -104 c-42 -511 -60 -795 -60 -993 0 -117 -2 -132
-16 -127 -9 3 -136 6 -283 6 l-267 0 17 123 c9 67 27 242 39 387 12 146 24
274 26 285 2 11 23 34 47 52 23 17 145 112 271 212 127 99 231 179 233 177 2
-2 -1 -57 -7 -122z m-6358 49 c-11 -42 -16 -102 -17 -213 0 -134 3 -163 21
-214 l22 -59 -87 7 c-109 9 -269 32 -391 56 -52 11 -96 18 -98 15 -2 -2 21
-11 52 -21 31 -10 56 -21 56 -25 0 -14 -133 -21 -303 -16 -136 4 -206 11 -337
36 -92 18 -172 39 -180 47 -10 10 -14 37 -15 92 0 88 17 146 48 167 25 16 430
101 530 111 91 9 198 -3 190 -22 -8 -23 26 -17 257 40 118 30 227 55 242 55
l26 1 -16 -57z m6158 -8 c7 -8 10 -21 7 -29 -3 -8 -51 -49 -107 -91 l-102 -77
-29 30 -30 30 103 76 c104 76 135 88 158 61z m-2616 -55 c7 0 32 -17 55 -37
42 -35 43 -38 38 -82 -4 -25 -11 -62 -17 -82 l-10 -36 -49 48 c-46 47 -50 49
-105 49 -31 0 -56 2 -56 5 0 3 14 33 30 66 30 58 60 83 88 73 8 -2 19 -4 26
-4z m-5189 -61 c121 -37 128 -43 115 -89 -13 -44 -13 -96 0 -119 8 -16 3 -19
-58 -25 -114 -10 -144 -7 -191 19 -47 27 -66 31 -76 14 -4 -6 0 -9 11 -7 13 2
19 -3 19 -17 0 -13 -8 -21 -24 -23 -29 -5 -71 6 -71 17 0 5 18 31 41 60 22 28
36 51 29 51 -12 0 -80 -70 -80 -82 0 -15 -41 -8 -47 8 -6 17 53 84 102 115 28
18 29 19 7 19 -14 0 -44 -20 -78 -51 -52 -50 -54 -51 -54 -25 0 33 28 62 89
90 26 12 46 26 44 32 -5 14 56 43 92 43 17 1 76 -13 130 -30z m-276 -22 c-46
-36 -86 -47 -164 -47 -46 0 -90 3 -99 6 -36 14 -12 24 57 25 39 1 101 6 137
13 59 11 80 11 69 3z m619 -49 c-14 -46 -18 -80 -15 -125 l5 -63 -27 7 c-14 4
-53 11 -86 17 -55 10 -60 14 -68 43 -10 33 -3 108 12 132 5 8 44 22 88 32 120
27 114 29 91 -43z m7218 -4 c10 -14 13 -28 8 -33 -5 -5 -44 -34 -87 -66 -67
-50 -79 -56 -90 -43 -7 8 -22 22 -35 31 -23 15 -23 15 64 76 48 34 96 61 105
61 10 0 26 -11 35 -26z m-2401 -54 c18 -11 43 -40 56 -64 l23 -44 -42 -129
c-24 -70 -62 -173 -86 -228 -81 -187 -297 -630 -318 -652 -12 -12 -36 -27 -55
-34 -31 -10 -38 -8 -76 18 -53 37 -161 144 -230 230 -57 70 -207 290 -207 302
0 4 27 12 59 19 94 20 188 72 273 154 42 40 80 82 86 92 5 10 14 16 20 12 23
-14 23 -70 2 -131 -23 -66 -38 -185 -24 -185 6 0 23 44 39 97 50 168 126 303
220 393 26 25 63 70 83 100 19 30 40 58 46 62 22 15 99 8 131 -12z m2196 -88
c14 -12 20 -25 16 -35 -9 -23 -21 -21 -53 6 -45 39 -9 66 37 29z m-2837 -66
c19 -30 51 -73 71 -95 l36 -39 -70 -71 c-109 -111 -226 -176 -325 -182 l-48
-3 -64 74 c-35 40 -64 76 -64 79 0 3 32 14 71 23 114 28 281 146 336 239 10
16 18 29 20 29 1 0 18 -24 37 -54z m769 -187 c45 -24 125 -100 142 -135 14
-31 17 -54 12 -128 -8 -133 -19 -161 -90 -231 -82 -81 -115 -95 -216 -95 -62
0 -91 5 -121 20 -22 11 -40 24 -40 28 0 4 14 39 31 79 l32 71 29 -21 c23 -17
44 -22 95 -22 62 0 66 2 99 37 31 34 34 43 34 98 0 55 -3 63 -36 100 -30 33
-43 40 -74 40 l-37 0 36 85 c38 91 52 101 104 74z m5542 -81 c-5 -59 -12 -86
-23 -93 -36 -23 -94 -80 -108 -106 -8 -16 -14 -46 -14 -69 0 -47 30 -84 81
-102 l31 -11 -4 -74 c-3 -40 -7 -75 -10 -78 -2 -2 -21 1 -42 7 -51 16 -116 75
-146 134 -21 42 -25 63 -25 139 1 115 26 176 99 241 46 40 137 94 159 94 4 0
5 -37 2 -82z m-4017 -22 c7 -8 -13 -100 -25 -112 -12 -12 -105 -14 -587 -14
-431 0 -575 -3 -584 -12 -13 -13 -17 -134 -4 -142 4 -2 260 -8 570 -12 l562
-7 -1 -21 c0 -12 -6 -43 -13 -71 l-11 -50 -673 -3 -674 -2 36 41 c50 60 66 98
78 199 11 86 6 142 -16 200 -6 13 70 15 666 12 370 -2 674 -5 676 -6z m3762
-49 c-55 -100 -60 -270 -11 -353 12 -19 21 -37 21 -40 0 -2 -455 -3 -1011 -2
l-1011 3 -1 73 -2 72 851 0 852 0 4 68 c8 113 101 102 -866 104 l-841 3 -3 63
-4 62 1025 0 1025 0 -28 -53z m-5357 -58 c34 -26 52 -84 38 -121 -23 -60 -132
-90 -181 -50 l-22 18 27 64 c15 36 31 75 36 88 11 29 66 30 102 1z m5591 -111
c-3 -51 -8 -94 -9 -96 -2 -2 -17 4 -34 12 -35 18 -49 56 -33 90 13 30 62 86
74 86 6 0 7 -34 2 -92z m-4042 13 c-1 -14 -3 -26 -5 -27 -1 -1 -255 -4 -564
-6 l-563 -5 0 34 0 33 568 -2 567 -3 -3 -24z m3458 -1 l0 -30 -829 0 -829 0
-4 25 c-3 13 -3 27 0 30 3 3 378 5 834 5 l828 0 0 -30z m-4615 -407 c0 -62 -1
-473 -3 -913 l-2 -800 -63 0 -64 0 -6 242 c-9 323 -9 1573 0 1582 4 4 37 6 73
4 l65 -3 0 -112z m1091 104 c8 -7 -28 -167 -61 -277 -59 -197 -195 -819 -195
-893 0 -28 9 -43 55 -86 62 -59 132 -94 309 -156 117 -41 118 -42 88 -54 -17
-7 -43 -14 -59 -15 -43 -3 -212 -79 -218 -97 -8 -23 -47 -36 -128 -44 -96 -9
-115 -28 -121 -120 l-4 -70 -357 0 -356 0 -6 896 c-3 493 -3 905 1 914 6 17
34 18 528 12 286 -4 522 -8 524 -10z m3966 -6 c18 -11 52 -25 76 -32 41 -12
43 -14 38 -43 -3 -17 -12 -132 -21 -256 -60 -852 -85 -1130 -123 -1360 l-18
-105 -57 -3 -57 -3 0 733 c0 403 -3 810 -7 905 l-6 172 59 4 c32 2 64 4 71 5
6 1 27 -7 45 -17z m-407 -893 c-4 -497 -9 -905 -12 -908 -3 -3 -434 -7 -958
-8 l-954 -4 2 62 c2 54 -1 64 -22 81 -13 10 -37 19 -55 19 -24 0 -44 12 -81
46 -28 25 -65 57 -82 71 -18 14 -33 29 -33 34 0 5 22 9 49 9 116 0 271 40 444
115 l87 38 0 72 c0 86 -26 495 -40 614 -20 182 -40 457 -40 557 l0 104 851 0
851 0 -7 -902z m185 410 c0 -271 -3 -679 -7 -905 l-6 -413 -69 0 -68 0 0 905
0 905 75 0 75 0 0 -492z m-2732 366 c17 -5 17 -124 -1 -124 -22 0 -154 -67
-253 -130 -54 -33 -100 -59 -104 -58 -4 2 22 75 56 163 35 88 64 161 64 162 0
4 223 -8 238 -13z m19 -238 c-7 -18 -457 -292 -457 -278 1 4 13 38 28 76 l27
69 100 60 c55 33 143 81 195 108 l95 48 9 -35 c4 -19 6 -40 3 -48z m-164 -283
c4 -64 5 -119 2 -121 -7 -7 -256 84 -257 94 -1 8 228 143 243 144 3 0 9 -53
12 -117z m174 -112 c290 -116 532 -240 726 -371 136 -92 142 -97 145 -133 2
-20 0 -37 -4 -37 -3 0 -72 42 -153 94 -204 131 -341 202 -601 313 -124 53
-231 103 -237 111 -7 9 -13 26 -13 39 0 33 22 30 137 -16z m-200 -46 c21 -9
33 -19 27 -24 -5 -4 -90 -31 -189 -59 -198 -56 -529 -166 -700 -231 -60 -24
-129 -50 -153 -59 -36 -14 -44 -15 -52 -3 -4 8 -6 20 -3 26 4 13 146 67 458
177 166 58 552 186 568 187 4 1 24 -6 44 -14z m190 -81 l38 -19 3 -266 c2
-248 1 -268 -17 -290 l-18 -24 -204 7 c-112 4 -228 10 -258 13 l-54 7 7 76 c5
61 72 420 80 429 2 2 72 23 157 48 165 48 201 50 266 19z m306 -134 c35 -17
35 -26 -7 -240 -48 -245 -38 -228 -138 -232 -46 -2 -85 -2 -87 -1 -2 1 0 130
4 286 l7 285 97 -43 c53 -23 108 -48 124 -55z m-776 28 c-4 -13 -20 -88 -37
-168 -33 -152 -34 -192 -14 -443 3 -42 3 -93 0 -112 l-7 -35 -72 0 -72 0 -2
34 c-2 52 -37 109 -98 164 l-57 50 31 18 c49 29 55 57 48 233 -4 87 -9 165
-12 174 -6 13 19 24 132 61 163 53 167 54 160 24z m943 -114 c133 -71 372
-226 363 -235 -13 -13 -182 -76 -248 -93 -49 -12 -223 -36 -265 -36 -17 0 -11
70 20 215 17 77 30 152 30 167 0 16 3 28 8 28 4 0 45 -21 92 -46z m-1267 -81
c9 -144 9 -221 -1 -227 -27 -17 -399 139 -409 171 -2 6 6 17 19 24 37 20 351
138 369 138 13 1 17 -17 22 -106z m635 -329 c78 -4 142 -8 142 -9 0 -1 -7 -20
-16 -41 -9 -22 -20 -68 -25 -104 -5 -36 -12 -83 -17 -105 l-7 -40 -192 -3
-192 -2 -3 142 c-2 79 -8 152 -13 162 -8 18 -4 19 86 13 52 -4 158 -10 237
-13z m-673 -38 c43 -23 68 -46 88 -78 29 -46 50 -112 39 -122 -3 -4 -31 -6
-62 -6 l-56 0 -47 68 c-25 37 -63 84 -82 106 -37 39 -37 50 0 59 42 10 62 6
120 -27z m1118 20 c18 -8 50 -30 72 -50 l40 -36 -35 8 c-19 4 -108 7 -198 7
-89 0 -162 3 -162 6 0 14 51 52 87 64 50 18 155 19 196 1z m-1269 -87 c34 -29
106 -120 106 -133 0 -3 -54 -6 -120 -6 -118 0 -120 0 -137 26 -15 24 -15 29
-2 53 18 32 81 42 109 16 13 -11 20 -13 25 -5 11 18 -24 49 -59 52 l-31 4 25
11 c38 18 46 16 84 -18z m1084 -15 c29 -20 31 -79 3 -94 -28 -14 -96 -13 -109
3 -15 18 3 83 26 96 25 15 54 13 80 -5z m204 -6 c-9 -9 -15 -9 -24 0 -9 9 -7
12 12 12 19 0 21 -3 12 -12z m-1588 -33 c-4 -16 0 -35 11 -51 l16 -25 -37 3
c-22 2 -39 9 -42 18 -4 13 -3 13 11 2 14 -12 15 -10 10 23 -4 26 -2 40 8 46
23 15 30 10 23 -16z m109 0 c-1 -11 2 -32 7 -47 9 -27 8 -28 -24 -28 -25 0
-35 6 -44 25 -15 33 -15 48 0 63 20 20 63 11 61 -13z m1435 -7 c5 -45 -14 -68
-56 -68 -62 0 -77 28 -41 74 17 22 28 27 58 24 31 -3 36 -7 39 -30z m128 -3
c14 -21 15 -31 6 -50 -12 -26 -19 -29 -62 -25 -35 3 -49 17 -43 43 15 58 70
76 99 32z m98 -11 c15 -39 -8 -74 -49 -74 -22 0 -24 3 -19 33 3 17 7 38 10 45
5 18 51 15 58 -4z m82 -28 c8 -32 -2 -46 -32 -46 -21 0 -24 5 -24 35 0 31 3
35 25 35 18 0 26 -7 31 -24z m-1106 -66 c-8 -5 -43 -12 -78 -16 -84 -9 -604 3
-662 15 -35 7 -26 8 40 3 145 -10 653 -7 680 5 28 12 42 7 20 -7z m853 -6
c154 -4 237 -10 237 -17 0 -11 -513 -2 -557 9 -43 12 -23 24 30 19 28 -3 159
-8 290 -11z"/>
<path d="M9330 7518 c-25 -55 -52 -162 -37 -148 3 3 21 46 41 95 21 50 39 96
43 103 3 6 0 12 -6 12 -7 0 -25 -28 -41 -62z"/>
<path d="M8935 7073 c-27 -15 -81 -37 -120 -49 l-70 -22 51 -1 c39 -1 68 8
133 39 86 42 110 47 142 30 21 -12 26 -1 7 18 -20 20 -90 13 -143 -15z"/>
<path d="M8555 6988 c-42 -50 -41 -47 -59 -213 -12 -110 -12 -133 -1 -156 8
-15 21 -29 30 -33 20 -7 75 15 94 37 17 21 10 21 -36 2 -57 -24 -63 -17 -63
77 1 126 22 228 60 282 39 58 23 60 -25 4z"/>
<path d="M8394 6965 c-6 -25 9 -55 27 -55 5 0 9 18 9 40 0 46 -25 57 -36 15z"/>
<path d="M8852 6968 c-16 -16 -15 -63 2 -77 20 -17 38 10 34 50 -3 36 -17 46
-36 27z"/>
<path d="M9246 6934 c-22 -21 -20 -25 9 -18 21 5 25 3 25 -15 0 -12 -7 -33
-16 -46 -19 -28 -9 -32 24 -10 17 13 21 24 20 60 -2 39 -5 45 -24 45 -13 0
-30 -7 -38 -16z"/>
<path d="M8680 6743 c0 -3 7 -14 16 -24 19 -21 11 -39 -17 -39 -10 0 -19 -5
-19 -11 0 -6 16 -9 42 -7 l42 3 34 -107 c19 -59 39 -105 44 -102 22 14 -41
199 -88 262 -22 28 -54 44 -54 25z"/>
<path d="M8478 6444 c-16 -8 -28 -22 -28 -30 0 -14 5 -13 33 4 29 17 47 19
133 15 82 -4 105 -9 136 -29 21 -13 42 -24 48 -24 22 0 8 18 -39 48 -47 31
-53 32 -152 32 -73 -1 -112 -5 -131 -16z"/>
<path d="M8856 6188 c-14 -55 -2 -118 24 -118 3 0 6 32 6 70 1 49 -3 70 -11
70 -7 0 -15 -10 -19 -22z"/>
<path d="M4661 4541 c-16 -29 -13 -71 5 -78 22 -8 35 15 32 56 -3 40 -22 51
-37 22z"/>
<path d="M9412 3513 c41 -49 142 -176 226 -283 83 -107 170 -215 192 -240 100
-110 -38 92 -211 311 -38 48 -69 90 -69 93 0 11 66 -4 168 -36 52 -16 96 -27
99 -24 17 16 -193 85 -260 86 -10 0 -58 41 -106 90 -49 50 -94 90 -101 90 -6
0 22 -39 62 -87z"/>
<path d="M3821 3262 c-37 -69 -42 -356 -6 -320 2 2 9 64 15 138 6 74 13 150
16 168 7 35 -9 44 -25 14z"/>
<path d="M9940 8723 c0 -15 20 -39 246 -293 520 -584 1171 -1139 1640 -1398
115 -64 282 -147 269 -134 -5 5 -103 67 -218 137 -303 186 -471 306 -752 541
-320 267 -567 501 -903 859 -124 132 -238 253 -254 270 -15 16 -28 24 -28 18z"/>
<path d="M11245 8483 c20 -83 213 -401 391 -646 202 -276 402 -501 549 -616
105 -83 94 -68 -80 110 -186 190 -262 281 -452 541 -175 241 -230 324 -323
492 -45 80 -84 146 -87 146 -3 0 -2 -12 2 -27z"/>
</g>
</svg>
