<?xml version="1.0" standalone="no"?>
<!DOCTYPE svg PUBLIC "-//W3C//DTD SVG 20010904//EN"
 "http://www.w3.org/TR/2001/REC-SVG-20010904/DTD/svg10.dtd">
<svg version="1.0" xmlns="http://www.w3.org/2000/svg"
 width="1500px" height="2000px" viewBox="0 0 1280.000000 904.000000"
 preserveAspectRatio="xMidYMid meet">
<metadata>
Created by potrace 1.15, written by Peter Selinger 2001-2017
</metadata>
<g transform="translate(0.000000,904.000000) scale(0.100000,-0.100000)"
fill="#E8C872" stroke="none">
<path d="M0 9025 c0 -13 106 -15 890 -15 490 0 890 -1 890 -3 0 -7 -50 -303
-56 -329 l-6 -28 -859 0 c-487 0 -859 -4 -859 -9 0 -5 316 -12 715 -16 l715
-7 0 -22 c0 -11 -5 -59 -10 -106 -6 -47 -10 -227 -10 -400 0 -467 23 -667 190
-1610 99 -556 153 -906 185 -1182 22 -197 45 -533 45 -671 l0 -118 -57 -85
c-32 -46 -61 -84 -64 -84 -3 0 -7 60 -8 133 -3 221 -23 466 -57 697 -33 224
-72 406 -198 922 -151 614 -192 922 -231 1745 -9 189 -21 355 -26 370 -14 42
-2 -609 16 -835 41 -539 77 -764 211 -1312 192 -785 233 -1044 250 -1576 l7
-211 -35 -59 c-20 -33 -49 -85 -64 -116 -16 -32 -31 -58 -35 -58 -4 0 -10 19
-14 43 -26 152 -124 426 -172 479 -20 22 -27 17 -84 -67 -24 -36 -47 -65 -51
-65 -5 0 -8 87 -8 194 0 408 -38 713 -170 1371 -98 486 -129 696 -150 1005
-10 142 -29 883 -30 1144 0 70 -4 106 -9 100 -17 -16 -25 -655 -12 -949 22
-518 45 -700 162 -1291 142 -721 178 -1025 179 -1487 l0 -159 -44 -81 c-47
-87 -122 -265 -152 -359 -10 -32 -20 -58 -24 -58 -3 0 -12 28 -19 62 -44 217
-160 514 -245 627 l-26 35 0 1838 c0 1129 -4 1838 -9 1838 -6 0 -11 -712 -13
-1837 l-3 -1838 -38 -54 c-78 -112 -175 -353 -222 -554 -16 -65 -31 -114 -35
-110 -4 4 -22 53 -41 108 -19 55 -65 163 -102 240 l-69 140 5 320 c8 446 34
654 167 1315 102 509 119 623 146 955 27 342 31 1317 5 1300 -4 -2 -11 -217
-14 -477 -13 -866 -34 -1084 -177 -1793 -128 -634 -164 -932 -173 -1433 l-2
-122 -45 66 c-64 94 -66 54 -2 -50 118 -194 208 -388 266 -578 24 -80 40 -108
52 -95 3 3 21 67 39 144 59 242 135 449 211 575 l37 61 20 -24 c29 -35 120
-230 156 -332 33 -94 72 -236 91 -332 24 -120 44 -120 80 3 31 104 90 253 146
364 49 97 171 305 184 313 22 13 106 -232 155 -451 14 -65 30 -123 34 -127 10
-10 27 16 76 113 43 86 184 315 215 351 l21 24 -5 -165 c-13 -372 -91 -694
-248 -1022 l-71 -148 -754 0 c-661 0 -753 -2 -753 -15 0 -13 112 -15 923 -17
l922 -3 3 -188 2 -187 -925 0 -925 0 0 -25 0 -25 314 0 c173 0 317 -3 319 -8
4 -6 -19 -89 -99 -350 l-25 -82 -254 0 c-220 0 -255 -2 -255 -15 0 -13 35 -15
251 -15 234 0 250 -1 245 -17 -3 -10 -60 -206 -127 -436 -111 -378 -125 -420
-147 -428 -13 -5 -68 -9 -123 -9 -59 0 -99 -4 -99 -10 0 -6 45 -10 115 -10 63
0 115 -4 115 -8 0 -8 -114 -405 -200 -693 -20 -68 -30 -123 -28 -150 2 -37 22
20 116 341 62 212 120 412 130 445 l18 60 603 3 c571 2 602 1 597 -15 -68
-235 -358 -1232 -361 -1241 -3 -8 1 -12 12 -10 9 2 20 14 24 28 4 14 46 155
92 315 47 160 126 433 178 608 l93 317 573 0 c452 0 573 -3 573 -12 0 -11
-109 -436 -275 -1075 -25 -94 -45 -174 -45 -177 0 -3 6 -6 14 -6 18 0 20 6
102 325 36 143 97 379 135 525 38 146 76 294 86 330 9 36 21 71 26 78 7 9 87
12 338 12 l329 0 0 -32 c0 -18 -6 -53 -13 -78 -7 -25 -11 -55 -9 -66 5 -31
144 -93 331 -148 84 -24 155 -46 157 -48 2 -3 -5 -51 -16 -109 -114 -614 -140
-758 -140 -772 0 -9 6 -17 13 -17 8 0 37 133 91 428 44 235 83 436 87 447 4
13 23 25 53 33 82 22 159 116 139 170 -9 21 -71 84 -106 107 -23 15 -27 23
-22 44 10 41 19 44 77 27 29 -8 83 -18 121 -22 61 -6 67 -9 67 -29 0 -32 19
-37 309 -86 272 -46 301 -46 350 0 37 35 48 74 30 109 -7 15 -15 30 -17 35 -2
4 66 7 152 7 129 0 156 -2 156 -14 0 -14 -28 -289 -90 -871 -16 -154 -32 -301
-35 -327 -5 -38 -3 -48 9 -48 18 0 16 -14 76 555 28 264 56 530 63 590 l12
110 560 0 560 0 3 -633 c2 -553 4 -632 17 -632 13 0 15 79 15 635 l0 635 270
0 c149 0 270 -3 270 -7 -1 -12 -101 -90 -152 -118 -41 -23 -48 -31 -59 -77
-16 -69 -14 -106 8 -130 33 -37 75 -52 148 -52 67 -1 74 1 138 43 38 24 92 72
122 106 30 34 79 81 110 106 51 41 55 47 55 87 l0 43 108 -3 107 -3 7 -65 c4
-36 32 -299 63 -585 68 -644 63 -605 82 -605 12 0 14 9 9 48 -20 155 -116
1100 -114 1117 2 16 25 -2 116 -92 62 -62 141 -132 175 -155 58 -41 66 -43
132 -43 77 0 122 19 158 67 19 26 19 30 6 95 -14 61 -18 70 -51 88 -52 29
-158 113 -158 125 0 7 148 10 424 10 l424 0 25 -132 c13 -73 67 -359 118 -635
78 -414 97 -503 110 -503 14 0 15 7 2 73 -67 353 -212 1138 -215 1162 l-3 30
596 3 c470 2 599 -1 606 -10 6 -7 79 -278 162 -603 176 -683 168 -655 187
-655 8 0 14 3 14 6 0 4 -24 99 -54 213 -138 530 -266 1029 -266 1039 0 17
1136 17 1146 0 4 -6 89 -291 189 -632 148 -504 185 -622 200 -625 12 -2 16 1
12 12 -5 13 -130 439 -287 977 -38 129 -70 244 -72 255 -3 20 3 20 597 20
l600 0 142 -485 c244 -832 228 -781 231 -732 2 30 -15 102 -57 245 -56 189
-114 386 -232 791 -27 93 -49 173 -49 178 0 4 77 8 170 8 107 0 170 4 170 10
0 6 -58 10 -152 11 -84 1 -164 4 -178 8 -23 6 -30 24 -78 186 -136 461 -199
685 -194 690 3 3 140 5 304 5 258 0 298 2 298 15 0 13 -41 15 -310 15 l-309 0
-25 82 c-14 46 -43 142 -65 213 l-38 130 373 3 374 2 0 30 0 30 -1167 2 -1168
3 0 185 0 185 1168 3 c1028 2 1167 4 1167 17 0 13 -21 15 -125 15 -69 0 -125
4 -125 9 0 5 27 60 59 123 70 135 124 267 163 402 22 79 28 117 27 190 l-1 91
-15 -65 c-56 -252 -116 -425 -219 -632 l-58 -118 -848 0 -849 0 -74 152 c-159
331 -232 631 -242 993 l-5 190 35 -51 c67 -96 166 -262 211 -353 26 -50 50
-91 55 -91 11 0 13 6 41 135 33 154 78 302 116 384 l35 75 23 -35 c112 -167
222 -392 291 -593 28 -82 56 -151 62 -153 13 -5 22 23 53 162 35 157 102 346
170 480 36 71 70 131 76 132 19 6 139 -244 184 -382 23 -72 55 -185 70 -252
29 -125 35 -143 49 -143 5 0 32 69 60 153 29 83 74 198 101 254 48 102 195
359 210 368 9 6 60 -106 91 -200 13 -38 39 -139 58 -223 20 -84 41 -154 46
-154 6 -1 36 48 68 108 32 59 92 162 133 227 46 74 74 128 72 141 -3 17 -11
10 -42 -37 -22 -31 -41 -56 -43 -54 -2 2 -8 103 -13 223 -23 514 -66 769 -260
1554 -140 569 -186 923 -226 1734 -9 187 -20 349 -24 360 -22 54 -4 -616 25
-964 39 -456 78 -687 191 -1145 85 -341 141 -587 169 -738 58 -320 95 -695 95
-976 l0 -120 -60 -108 c-33 -59 -60 -111 -60 -115 0 -5 -3 -8 -8 -8 -4 0 -16
37 -26 83 -32 144 -66 249 -110 342 -62 131 -64 132 -127 41 -29 -42 -57 -76
-61 -76 -4 0 -8 89 -8 198 0 419 -35 694 -179 1417 -122 611 -161 987 -161
1566 0 269 -12 639 -20 634 -15 -9 -22 -658 -11 -935 22 -539 46 -730 167
-1325 126 -622 161 -896 171 -1351 l6 -272 -40 -73 c-50 -90 -122 -259 -154
-357 -22 -69 -39 -92 -39 -53 0 36 -58 247 -95 346 -43 116 -112 257 -155 320
l-30 44 0 1835 c0 1217 -3 1836 -10 1836 -7 0 -10 -617 -10 -1832 l0 -1832
-39 -60 c-90 -138 -188 -385 -230 -579 -11 -49 -21 -91 -24 -93 -5 -5 -12 12
-57 141 -18 50 -61 150 -97 222 l-66 133 6 307 c8 448 36 666 167 1318 96 476
119 624 146 948 17 205 31 1065 19 1221 -13 181 -25 86 -25 -207 0 -375 -16
-844 -35 -1067 -23 -250 -57 -467 -135 -857 -136 -676 -172 -966 -183 -1493
l-2 -105 -48 66 c-58 83 -71 94 -85 77 -44 -55 -114 -239 -156 -417 -14 -57
-27 -106 -30 -108 -3 -3 -18 22 -35 55 -16 32 -44 83 -61 112 l-32 54 1 175
c3 484 57 837 247 1611 165 673 209 1005 236 1807 11 327 10 388 -7 371 -3 -3
-14 -178 -25 -389 -45 -889 -76 -1114 -250 -1824 -178 -725 -226 -1044 -243
-1605 l-2 -75 -59 84 -59 84 2 176 c5 432 52 807 221 1776 170 975 200 1219
200 1634 0 195 -10 374 -26 487 l-6 41 389 5 c213 3 564 3 779 0 l390 -5 -8
-51 c-5 -28 -11 -204 -15 -390 -8 -522 10 -683 202 -1776 80 -457 133 -789
162 -1020 l18 -145 3 140 c2 77 -2 176 -8 220 -21 149 -89 559 -154 920 -112
629 -165 986 -185 1260 -20 264 -9 812 17 836 4 4 68 10 142 14 74 4 136 8
137 9 11 11 53 271 53 330 l0 76 -1148 0 c-632 0 -1151 -2 -1154 -5 -5 -5 26
-193 55 -335 l13 -65 141 -9 c141 -9 141 -9 148 -35 4 -14 9 -189 12 -389 5
-378 -3 -532 -45 -821 l-17 -115 -125 -94 c-390 -293 -835 -495 -1240 -560
-243 -40 -651 -38 -895 4 -123 21 -268 58 -370 95 -79 29 -86 34 -115 81 -97
158 -347 302 -593 343 -33 5 -59 26 -171 138 -139 140 -223 242 -327 397 l-63
95 -1 340 c0 319 7 477 23 502 6 9 144 22 248 23 29 0 33 4 43 44 14 55 61
325 61 348 0 17 -56 18 -1160 18 l-1160 0 0 -23 c0 -28 47 -298 61 -349 7 -29
15 -38 32 -38 36 0 252 -12 254 -14 26 -21 35 -691 13 -921 l-13 -127 -91 -87
c-442 -427 -912 -701 -1421 -831 -209 -54 -289 -62 -600 -63 -346 -1 -529 23
-780 104 -301 96 -628 286 -847 490 l-58 54 -25 202 c-40 328 -48 469 -42 791
4 164 10 317 14 342 l8 45 141 9 142 9 16 76 c16 76 56 305 56 322 0 5 -377 9
-910 9 -802 0 -910 -2 -910 -15z m7240 -24 c0 -12 -48 -300 -55 -329 l-5 -22
-1063 2 -1062 3 -27 155 c-15 85 -27 165 -27 178 l-1 22 1120 0 c676 0 1120
-4 1120 -9z m5540 1 c0 -9 -47 -282 -56 -324 l-6 -28 -1058 0 c-582 0 -1061 4
-1064 8 -6 11 -56 303 -56 331 l0 21 1120 0 c616 0 1120 -3 1120 -8z m-5884
-386 c1 0 -3 -26 -8 -56 -5 -30 -11 -208 -14 -395 -7 -378 1 -499 57 -896 l31
-220 -59 -62 c-33 -34 -77 -88 -98 -120 -21 -31 -40 -55 -42 -53 -17 17 -61
524 -84 979 -11 227 -25 419 -31 427 -13 21 -2 -551 17 -815 17 -246 30 -375
51 -540 l16 -120 -57 -100 c-113 -196 -216 -365 -224 -365 -10 0 -54 271 -75
460 -27 240 -36 435 -46 974 -5 290 -11 530 -14 533 -11 11 -15 -53 -20 -332
-12 -598 32 -1261 109 -1624 l14 -70 -50 -98 -51 -97 4 -97 c3 -90 7 -103 45
-180 29 -58 64 -108 112 -159 70 -74 71 -75 71 -131 0 -102 -81 -296 -177
-424 -29 -38 -53 -73 -53 -77 0 -4 25 -44 55 -88 l55 -81 0 -77 c0 -57 -8
-101 -30 -171 -32 -102 -50 -217 -50 -320 0 -70 -9 -72 -30 -6 -25 79 -91 219
-137 294 -26 41 -48 82 -48 91 -1 8 -2 835 -3 1838 -1 1207 -5 1822 -12 1822
-7 0 -10 -618 -10 -1833 l0 -1832 -36 -54 c-86 -127 -198 -415 -240 -615 l-17
-79 -37 104 c-48 136 -92 237 -142 329 l-41 74 6 306 c9 458 33 650 172 1345
135 674 155 871 162 1602 5 488 -1 690 -18 618 -3 -16 -7 -167 -8 -335 -3
-854 -33 -1178 -171 -1875 -138 -700 -163 -889 -178 -1375 l-7 -215 -54 78
c-30 43 -59 76 -65 74 -36 -12 -137 -269 -172 -437 -9 -47 -21 -89 -25 -94 -4
-5 -24 24 -44 65 -21 40 -48 90 -61 111 -23 36 -24 46 -24 205 0 472 60 870
235 1573 115 462 157 683 195 1029 42 378 77 1201 52 1201 -7 0 -12 -4 -12 -9
0 -5 -9 -186 -20 -402 -44 -851 -83 -1136 -242 -1774 -182 -730 -224 -1007
-251 -1655 l-2 -55 -57 85 -58 85 0 160 c0 411 62 902 235 1870 91 508 146
872 170 1136 24 261 18 725 -11 911 l-6 38 309 3 c255 2 1245 -3 1249 -7z m68
-1002 c58 -92 168 -226 287 -349 l121 -125 -44 0 c-68 0 -216 -28 -266 -50
-25 -11 -48 -20 -52 -20 -10 0 -23 74 -54 305 -36 267 -37 285 -29 285 4 0 21
-21 37 -46z m-1669 -146 c-2 -13 -14 -90 -25 -173 -28 -202 -143 -878 -165
-970 -5 -23 -162 -166 -324 -295 -95 -76 -299 -220 -313 -220 -3 0 -8 39 -11
88 -5 94 -38 205 -100 347 -58 131 -110 179 -256 233 -53 20 -84 25 -156 25
-77 -1 -105 -6 -195 -38 -209 -73 -276 -123 -309 -229 -52 -169 -65 -261 -66
-460 l0 -188 -60 5 c-241 23 -697 209 -1020 415 -239 154 -635 461 -657 511
-10 20 -108 585 -108 618 0 20 12 14 98 -58 332 -275 713 -446 1135 -510 168
-25 486 -35 674 -21 441 34 914 216 1343 518 122 85 314 243 430 352 41 39 78
71 83 72 4 0 5 -10 2 -22z m5466 -484 c-17 -99 -62 -357 -101 -574 -62 -351
-73 -397 -93 -413 -12 -10 -82 -58 -155 -107 -215 -145 -456 -254 -667 -302
-42 -9 -132 -13 -295 -12 -280 0 -391 17 -621 93 -142 48 -356 134 -373 151
-4 4 1 33 13 64 24 64 28 160 9 203 -7 15 -71 116 -143 223 -121 181 -204 318
-221 364 -6 16 -4 18 12 11 134 -57 425 -118 646 -136 172 -14 512 -6 650 15
415 64 918 291 1293 583 60 47 70 52 73 35 2 -11 -11 -100 -27 -198z m-3183
96 c142 -40 293 -124 394 -218 42 -38 63 -72 118 -187 69 -145 157 -291 285
-472 92 -129 106 -176 81 -273 -36 -140 -109 -219 -358 -384 -107 -71 -203
-144 -253 -191 -183 -177 -232 -211 -393 -271 -97 -37 -96 -38 -89 57 12 146
83 390 144 495 29 48 30 55 35 205 6 179 46 379 76 379 34 0 104 44 129 81 56
85 3 219 -119 303 -47 32 -55 42 -46 54 7 7 11 31 9 53 -5 101 150 218 259
194 44 -10 38 12 -7 24 -73 20 -146 -11 -222 -94 -51 -56 -56 -70 -52 -133 3
-45 -16 -49 -85 -14 -56 28 -188 75 -247 87 -25 5 -26 8 -16 28 7 12 34 48 61
80 57 69 56 76 -29 136 -39 29 -70 43 -105 47 -27 4 -47 9 -44 11 2 3 37 11
78 19 103 19 301 12 396 -16z m-569 -59 c-30 -31 -36 -46 -19 -56 6 -3 10 -15
10 -25 0 -10 15 -31 34 -45 36 -28 53 -81 32 -101 -6 -7 -37 -15 -68 -19 l-57
-6 6 73 c4 56 1 78 -10 93 -9 11 -19 17 -23 13 -4 -4 -1 -14 6 -23 9 -11 11
-36 7 -81 -4 -52 -10 -71 -30 -92 -21 -24 -26 -40 -32 -132 -16 -213 -11 -289
41 -590 8 -47 28 -112 44 -146 17 -34 30 -72 30 -85 0 -13 -12 -66 -26 -117
-25 -89 -26 -94 -9 -112 10 -11 23 -20 29 -20 6 0 17 -4 25 -9 11 -7 9 -20
-13 -73 -31 -79 -61 -205 -75 -318 -6 -46 -13 -85 -15 -87 -9 -10 -65 28 -103
70 -56 60 -76 104 -103 217 l-23 95 -116 115 c-122 121 -164 183 -195 289 -36
124 -20 172 161 476 82 138 173 293 203 345 107 192 129 226 171 274 39 44
121 106 140 106 4 0 -6 -13 -22 -29z m184 15 c18 -7 52 -32 77 -54 l45 -40
-51 -54 c-28 -29 -58 -65 -67 -80 -14 -22 -25 -28 -53 -28 -19 0 -36 6 -38 13
-2 6 -9 31 -15 54 -8 28 -21 48 -44 62 l-32 22 34 -3 c29 -3 36 -9 48 -38 l13
-35 -4 46 c-5 42 -3 47 20 58 26 11 64 15 64 6 0 -3 -9 -23 -20 -45 -21 -41
-28 -116 -10 -105 6 3 10 16 10 27 0 42 24 100 44 107 19 8 18 9 -8 26 -25 16
-33 17 -69 6 -69 -21 -106 -24 -122 -11 -21 18 -18 32 5 25 15 -5 18 -3 14 9
-4 11 4 20 27 31 43 18 91 19 132 1z m147 -315 c52 -18 129 -51 171 -73 74
-39 169 -111 169 -128 0 -4 -15 -10 -32 -13 -27 -4 -58 8 -164 63 -164 85
-257 119 -348 126 -65 6 -189 -6 -231 -22 -14 -6 -16 -1 -13 27 3 31 7 35 48
46 28 8 94 11 175 10 116 -3 140 -7 225 -36z m-90 -67 c30 -8 123 -51 207 -95
138 -72 156 -79 192 -73 36 6 44 3 71 -24 25 -25 30 -39 30 -76 0 -39 -6 -52
-36 -86 -24 -27 -52 -45 -83 -54 -46 -13 -46 -13 -69 -86 -34 -110 -52 -230
-53 -359 -1 -108 -2 -119 -28 -161 l-27 -45 -80 -3 c-90 -3 -148 10 -190 43
l-28 23 23 50 c27 58 63 94 139 141 84 53 60 57 -34 6 -86 -47 -87 -48 -156
-41 -73 7 -112 21 -140 52 -27 31 -57 141 -72 270 -8 67 -22 151 -31 187 -14
54 -15 79 -6 152 6 48 16 94 22 101 7 8 31 14 60 14 51 0 60 8 34 30 -15 12
-41 10 -78 -5 -16 -7 -18 -4 -15 16 2 20 12 26 58 36 69 16 217 9 290 -13z
m-3110 -215 c41 -20 89 -48 106 -62 61 -52 194 -389 194 -491 0 -22 -16 -86
-35 -140 -36 -101 -42 -149 -25 -176 7 -11 10 -5 11 25 1 22 5 54 9 70 15 63
23 -6 12 -103 -14 -115 -37 -208 -82 -317 -56 -139 -89 -243 -101 -325 -6 -44
-14 -80 -17 -80 -3 0 -30 14 -61 31 -62 34 -121 86 -121 106 0 31 46 131 107
230 200 331 249 522 189 747 -15 55 -45 143 -67 195 -23 53 -44 102 -46 109
-4 10 1 11 20 7 36 -9 50 19 32 63 -8 17 -19 32 -24 32 -7 0 -7 -9 1 -25 16
-35 1 -47 -42 -35 -63 18 -223 12 -282 -10 -68 -25 -167 -100 -246 -185 -39
-42 -68 -65 -79 -63 -25 5 -43 46 -44 103 0 28 -5 61 -9 75 -12 37 -11 -60 1
-130 5 -30 11 -95 13 -145 4 -102 30 -220 82 -379 37 -110 37 -125 -3 -126
-34 0 9 -55 52 -66 18 -4 37 -26 64 -73 22 -36 53 -84 70 -106 17 -22 55 -76
85 -121 67 -100 149 -175 261 -238 107 -60 139 -86 169 -140 35 -59 46 -129
46 -279 0 -106 -5 -153 -25 -237 -14 -58 -28 -116 -31 -130 l-6 -25 -13 25
c-7 14 -25 73 -39 130 -53 216 -138 331 -321 430 -55 29 -118 67 -139 84 -47
36 -98 114 -160 240 -25 51 -64 114 -86 139 -44 50 -140 104 -202 113 -21 4
-38 8 -38 11 0 2 18 34 40 70 21 36 42 85 46 110 6 43 1 213 -12 371 -10 117
36 410 80 513 30 70 101 117 276 181 100 36 110 38 210 35 97 -2 111 -5 180
-38z m-2357 -102 c497 -417 1027 -694 1491 -777 60 -11 112 -20 114 -20 7 0
-4 -149 -11 -156 -7 -8 -74 33 -79 48 -3 8 -25 6 -76 -6 -105 -26 -221 -20
-290 16 -70 37 -126 82 -159 132 -15 22 -28 42 -28 43 -1 2 -19 -7 -41 -18
-31 -16 -52 -20 -104 -16 -100 6 -152 38 -247 152 l-42 50 -40 -22 c-53 -31
-96 -29 -157 6 -73 42 -148 148 -187 264 -6 15 -14 16 -60 11 -61 -7 -100 8
-139 54 -19 23 -29 57 -47 163 -13 74 -25 144 -28 157 -3 12 -2 22 1 22 4 0
62 -46 129 -103z m2392 -73 c19 -19 58 -94 52 -100 -2 -2 -20 3 -40 11 -54 22
-85 19 -99 -9 -6 -14 -7 -33 -3 -43 7 -15 9 -13 14 12 5 24 12 31 36 33 78 7
127 -74 73 -120 -60 -52 -241 17 -303 115 l-18 28 -23 -57 c-42 -103 -116
-174 -183 -174 -53 0 -81 10 -81 29 -1 11 -5 8 -15 -9 l-14 -25 -1 33 c0 25 4
32 20 32 10 0 66 41 122 91 109 96 149 121 238 150 73 24 202 25 225 3z m890
-175 c-69 -402 -123 -817 -145 -1099 -17 -226 -14 -826 4 -955 45 -313 107
-518 232 -769 41 -82 74 -151 74 -152 0 -2 -73 -5 -162 -6 l-163 -3 -5 -210
-5 -210 -45 0 -44 0 -33 130 c-17 72 -32 155 -32 185 -1 31 -10 81 -20 111
-11 30 -30 102 -42 160 -19 95 -21 123 -15 314 6 210 17 314 56 520 26 140 26
199 0 365 -43 278 -105 497 -177 630 -62 115 -75 143 -104 229 -27 79 -28 89
-18 150 8 45 22 83 45 117 32 49 35 51 87 57 62 6 158 51 201 93 43 44 59 72
66 118 5 38 7 41 32 38 60 -7 150 65 189 152 36 78 19 90 -26 18 -65 -102
-120 -146 -178 -140 -33 3 -37 -3 -52 -77 -4 -18 -28 -51 -59 -81 -53 -51
-121 -82 -218 -99 -20 -4 -39 -13 -42 -21 -3 -8 -10 -14 -16 -14 -11 0 -14 89
-2 106 4 6 45 35 92 63 116 72 281 198 425 324 66 57 121 104 122 103 1 -1 -9
-67 -22 -147z m-1035 -49 c61 -31 139 -37 178 -14 17 10 35 14 39 10 13 -13
15 -311 3 -371 -27 -129 -159 -322 -233 -340 -35 -9 -101 9 -165 46 l-51 29 6
53 c7 67 -22 133 -99 227 -30 36 -62 76 -71 90 -31 45 -16 154 22 164 9 2 32
7 52 10 51 9 111 65 150 140 l33 65 47 -44 c25 -24 65 -53 89 -65z m-2197 -28
c23 3 50 8 60 12 14 7 17 3 17 -18 0 -70 121 -236 202 -277 52 -27 127 -25
163 3 l28 22 15 -25 c9 -13 43 -51 77 -85 45 -46 75 -66 115 -79 72 -24 140
-23 184 3 l35 21 21 -33 c33 -54 106 -115 178 -149 60 -28 77 -32 157 -32 72
0 100 4 138 22 l47 22 50 -37 c28 -20 50 -42 50 -48 0 -6 -23 -46 -50 -88 -70
-108 -106 -183 -131 -272 -12 -43 -30 -90 -42 -105 -18 -25 -19 -36 -12 -111
6 -75 7 -599 0 -606 -1 -2 -29 13 -61 33 -33 19 -72 35 -88 35 l-29 0 5 -58
c7 -70 49 -167 122 -276 l55 -82 -20 -170 c-33 -296 -117 -722 -180 -921 l-11
-33 -524 0 -524 0 0 203 c0 145 -3 206 -12 215 -8 8 -60 12 -169 12 l-157 0
78 154 c92 183 158 377 200 584 46 236 53 343 47 751 -7 459 -24 644 -107
1184 -22 142 -40 260 -40 262 0 2 16 -5 35 -16 25 -15 47 -20 78 -17z m2494
-188 c9 -140 -42 -324 -136 -492 -35 -62 -42 -68 -92 -86 -79 -27 -172 -32
-242 -11 -53 15 -60 21 -87 68 -16 29 -30 55 -30 58 0 3 11 11 23 18 21 11 29
9 61 -13 47 -32 138 -66 175 -66 63 0 159 99 226 231 55 111 69 191 63 364
l-5 130 20 -60 c10 -33 21 -97 24 -141z m-709 128 c10 -7 9 -16 -3 -45 -8 -20
-15 -47 -16 -59 l0 -23 -11 22 c-11 22 -3 113 10 113 4 0 13 -4 20 -8z m6958
-24 c-3 -13 -10 -55 -16 -94 l-11 -71 -52 -31 c-29 -17 -84 -39 -124 -48 -61
-13 -76 -21 -98 -50 -42 -55 -116 -91 -202 -100 -65 -6 -79 -11 -116 -42 -23
-19 -66 -46 -96 -60 -46 -21 -63 -24 -130 -20 -44 3 -92 13 -113 23 l-37 18
-24 -25 c-35 -38 -94 -65 -157 -73 -94 -12 -226 22 -274 71 -15 15 -22 15 -87
-1 -102 -25 -216 -17 -288 19 -64 33 -154 115 -171 156 l-12 29 -29 -21 c-39
-29 -122 -35 -187 -14 -81 27 -81 33 2 115 85 84 57 83 237 8 309 -130 500
-173 814 -184 156 -5 209 -3 295 11 233 39 500 153 735 315 72 49 133 89 138
90 4 1 5 -9 3 -21z m-3466 -139 l69 -12 -23 -46 c-13 -25 -34 -74 -46 -108
-21 -58 -25 -63 -52 -63 -31 0 -98 25 -98 36 0 4 9 41 20 83 10 42 22 89 25
104 4 21 10 27 21 23 9 -3 47 -11 84 -17z m-3440 -91 c109 -136 145 -234 103
-280 -18 -20 -73 -24 -103 -8 -18 10 -18 11 6 35 13 13 24 34 24 47 0 16 -3
19 -9 10 -8 -14 -21 16 -60 138 -30 98 -40 140 -33 139 4 0 36 -37 72 -81z
m6865 -30 c-63 -380 -104 -990 -91 -1363 14 -404 92 -725 253 -1045 40 -80 73
-146 73 -147 0 -1 -73 -4 -162 -5 l-163 -3 -6 -205 c-3 -113 -7 -206 -7 -207
-1 -2 -150 -3 -331 -3 l-329 0 -11 33 c-7 19 -42 77 -80 129 -97 137 -111 171
-111 268 0 90 13 126 75 200 43 52 37 61 -40 68 -59 5 -62 7 -40 36 8 10 12
23 9 27 -3 5 -70 9 -150 9 -79 0 -144 4 -144 9 0 5 53 53 118 107 234 196 331
311 399 479 19 46 33 98 33 123 0 39 -2 42 -27 42 -45 0 -133 -57 -213 -139
-96 -97 -157 -182 -225 -317 -62 -122 -81 -148 -70 -95 16 78 115 363 247 715
119 319 141 419 102 474 -23 33 -45 27 -95 -25 -88 -92 -158 -218 -224 -406
l-41 -118 4 198 c3 143 0 231 -11 316 -12 84 -13 125 -6 146 12 33 -2 71 -26
71 -8 0 -21 10 -30 22 -12 18 -19 21 -33 12 -27 -18 -60 -91 -86 -193 -23 -92
-25 -95 -59 -107 -19 -7 -38 -10 -40 -7 -3 2 1 20 9 38 19 46 18 125 -2 153
-19 28 -54 29 -61 1 -3 -11 -23 -57 -45 -101 l-39 -81 -59 57 c-32 31 -63 56
-69 56 -5 0 -17 -10 -25 -22 -24 -33 -20 -123 9 -223 14 -47 23 -91 19 -96
-16 -27 -223 -109 -275 -109 -21 0 -29 7 -38 31 -6 18 -11 38 -11 46 0 8 34
30 78 50 42 20 94 46 114 59 l37 24 -23 67 c-65 189 -148 370 -221 478 -41 62
-48 80 -60 160 -13 86 -30 170 -41 207 -5 16 -2 16 37 3 62 -22 147 -19 189 6
20 13 36 17 38 11 9 -28 66 -95 105 -123 88 -65 143 -84 247 -84 79 1 102 4
138 23 l42 23 33 -25 c123 -94 334 -101 432 -15 l35 31 40 -16 c26 -10 71 -16
128 -16 78 0 92 3 139 30 28 16 63 45 77 63 25 32 28 33 83 29 98 -7 212 48
249 119 12 25 20 29 57 29 23 0 67 11 97 24 76 33 82 32 75 -6z m-3365 -53
c23 -27 118 -55 190 -55 38 0 71 -3 73 -7 6 -10 -38 -142 -51 -155 -17 -17
-133 -26 -192 -16 -52 9 -123 40 -164 70 -17 14 -17 16 -2 46 13 25 23 31 52
34 35 3 38 6 51 51 14 50 23 56 43 32z m1104 -82 c14 -59 56 -294 56 -315 0
-4 6 -5 13 -2 18 7 83 -111 160 -291 77 -179 104 -262 91 -275 -15 -15 -235
-106 -309 -128 -132 -39 -239 -51 -315 -36 l-32 7 6 56 c10 86 16 98 47 111
45 19 46 48 5 179 -20 64 -36 124 -36 133 0 10 15 39 34 65 46 66 85 146 141
293 67 177 107 270 115 270 4 0 15 -30 24 -67z m-148 -165 c-114 -290 -182
-388 -340 -492 -199 -132 -341 -175 -513 -155 -96 11 -230 57 -319 110 -122
73 -224 206 -241 314 l-6 40 51 -55 c58 -65 149 -120 163 -99 6 10 18 6 53
-19 114 -82 285 -113 412 -74 38 12 98 38 133 59 79 47 203 161 237 218 38 66
183 198 297 272 144 93 142 92 145 82 2 -5 -31 -95 -72 -201z m-1499 96 c22
-34 53 -168 61 -269 5 -48 17 -103 31 -136 28 -68 26 -83 -29 -168 -52 -81
-49 -96 36 -178 35 -34 64 -67 64 -72 0 -28 -133 11 -214 63 -59 38 -182 166
-211 219 l-19 36 26 28 c83 89 179 293 208 446 6 31 15 57 20 57 5 0 17 -12
27 -26z m421 -47 c77 -49 124 -60 232 -55 86 3 99 2 96 -12 -3 -8 -12 -53 -21
-100 -10 -47 -22 -88 -29 -92 -47 -31 -292 18 -356 70 -21 17 -21 19 -5 82 21
84 35 130 41 130 2 0 21 -11 42 -23z m-2618 -130 l23 -74 -56 -69 c-31 -38
-73 -100 -94 -137 -67 -123 -51 -37 38 200 27 72 49 136 49 142 0 6 4 11 8 11
5 0 19 -33 32 -73z m-360 -161 c-27 -53 -50 -105 -50 -116 0 -11 -4 -20 -8
-20 -12 0 -55 49 -92 105 -18 28 -47 65 -63 82 -35 37 -32 48 7 33 38 -14 141
-12 201 4 28 7 51 12 53 11 1 -1 -20 -46 -48 -99z m3021 27 c33 -10 92 -16
152 -17 l97 -1 0 -52 c0 -63 4 -64 106 -29 83 29 144 56 204 91 l45 27 -60
-59 c-100 -96 -270 -173 -385 -173 -87 0 -223 50 -289 105 -33 29 -33 30 -28
92 4 35 9 68 12 73 3 4 25 -3 49 -16 24 -13 68 -32 97 -41z m-3644 -19 c100
-48 150 -127 228 -362 45 -137 47 -146 35 -188 -9 -32 -11 -93 -7 -210 l5
-164 -42 -1 c-40 -1 -40 -1 -11 -10 17 -4 42 -11 58 -14 22 -4 27 -11 27 -34
0 -22 -9 -35 -40 -56 -22 -15 -40 -32 -40 -36 0 -13 2 -12 40 16 19 14 36 25
39 25 17 0 53 -96 60 -156 5 -38 9 -57 10 -41 0 15 5 27 9 27 14 0 141 -146
152 -175 13 -35 13 -81 -1 -108 -7 -12 -40 -68 -75 -123 -35 -56 -75 -127 -88
-158 -14 -32 -46 -81 -70 -110 -69 -80 -119 -194 -126 -286 l-5 -75 -41 70
c-59 99 -89 192 -114 346 -32 204 -67 341 -125 484 -55 136 -111 302 -141 420
-35 135 -15 617 32 775 18 60 71 171 86 181 15 10 87 -9 145 -37z m1073 -44
c70 -139 126 -338 171 -618 l32 -199 -36 -189 c-77 -397 -77 -712 -2 -964 29
-97 30 -113 10 -130 -33 -28 -142 66 -206 176 -69 121 -101 249 -124 504 -8
84 -22 176 -32 202 -17 47 -16 50 6 126 25 88 87 248 107 276 11 17 14 15 39
-24 15 -23 29 -39 32 -36 3 3 -8 29 -26 57 -17 28 -29 55 -25 60 3 5 19 9 35
9 18 0 28 4 24 10 -3 6 -18 10 -32 10 -24 0 -25 2 -20 38 15 91 19 340 8 406
-12 70 -57 172 -85 195 -23 19 -20 9 19 -69 50 -99 57 -165 43 -400 -9 -154
-15 -203 -30 -232 -10 -21 -20 -38 -22 -38 -2 0 -1 42 1 93 6 119 -10 264 -37
324 -11 27 -44 72 -72 100 l-52 53 22 52 c35 83 101 192 150 248 52 60 50 61
102 -40z m4685 -50 c4 -6 -7 -26 -24 -46 -17 -19 -31 -43 -31 -54 0 -23 -19
-75 -25 -68 -11 11 50 178 66 178 4 0 11 -5 14 -10z m50 -57 c-9 -37 -25 -53
-25 -26 0 29 10 53 22 53 6 0 7 -11 3 -27z m-50 -110 c-4 -65 -12 -122 -17
-128 -7 -7 -8 15 -4 66 5 62 4 78 -9 89 -8 7 -15 15 -15 19 0 10 39 71 46 71
3 0 3 -53 -1 -117z m-2250 -71 c113 -66 239 -104 370 -109 81 -4 128 -1 180
11 99 24 291 131 391 218 19 17 36 29 37 27 11 -15 67 -202 67 -222 0 -29 -12
-39 -65 -55 -387 -117 -475 -135 -650 -136 -119 0 -151 3 -215 23 -152 46
-340 157 -386 226 -15 23 -15 27 5 57 11 18 32 54 45 80 l26 47 62 -63 c35
-34 95 -81 133 -104z m2033 146 c17 -17 15 -87 -3 -138 -17 -48 -21 -135 -5
-125 6 3 10 15 10 26 0 26 63 56 68 33 4 -14 -1 -24 -62 -134 -19 -36 -36 -72
-36 -80 0 -8 16 14 35 49 19 35 37 66 41 70 8 7 -1 -43 -12 -74 -7 -18 -6 -18
9 -6 9 7 19 29 22 50 14 83 28 131 42 143 14 11 15 3 9 -77 -9 -117 -28 -181
-67 -228 -50 -61 -145 -97 -175 -67 -6 6 -61 -41 -159 -138 -83 -82 -179 -169
-214 -195 l-63 -47 -88 0 c-70 0 -90 3 -102 18 -26 28 -68 118 -129 272 -56
142 -57 145 -36 152 12 3 36 6 53 7 26 1 155 31 240 56 17 5 22 1 27 -22 4
-15 9 -37 12 -48 5 -16 -2 -25 -33 -43 -36 -20 -72 -52 -59 -52 3 0 21 9 39
19 18 11 87 36 153 56 120 37 259 102 283 132 6 9 12 31 12 47 0 17 14 56 30
86 17 30 54 103 83 162 28 59 54 108 58 108 3 0 10 -5 17 -12z m176 -165 c-4
-49 -12 -99 -18 -113 -9 -21 -11 -11 -14 65 -3 85 8 135 30 135 4 0 5 -39 2
-87z m90 50 c10 -63 7 -477 -5 -581 -12 -108 -66 -442 -73 -449 -10 -10 -76
531 -76 622 0 68 28 152 89 273 16 32 32 83 36 115 7 65 20 74 29 20z m-442
-56 l20 -28 -26 -58 c-14 -32 -26 -68 -26 -79 0 -47 -19 -27 -40 44 -29 99
-34 143 -21 178 l12 29 30 -29 c17 -16 40 -42 51 -57z m823 -5 c-8 -65 -28
-126 -101 -314 -189 -484 -291 -805 -306 -963 -3 -29 -5 -30 -53 -30 -48 0
-50 1 -53 30 -11 119 -91 388 -207 701 -30 81 -55 151 -55 155 0 4 21 9 48 12
26 3 59 8 73 12 26 7 27 5 47 -72 39 -144 72 -300 107 -515 20 -117 37 -217
39 -222 1 -6 12 55 25 135 92 593 200 920 365 1106 47 52 50 54 63 37 10 -14
13 -34 8 -72z m-5750 -157 c118 -63 198 -121 236 -172 59 -78 97 -153 114
-228 9 -38 25 -101 36 -139 24 -80 23 -82 -60 -92 -71 -9 -285 2 -339 17 -53
14 -88 62 -102 135 -5 27 -16 72 -24 101 -16 56 -23 291 -11 355 5 22 3 50 -5
70 -6 18 -18 52 -25 76 l-13 43 61 -64 c39 -40 88 -79 132 -102z m2628 102
c51 -42 96 -67 181 -101 l39 -16 -6 -88 c-3 -54 -23 -157 -52 -272 -25 -102
-55 -236 -66 -298 -23 -138 -26 -330 -5 -370 8 -15 17 -74 21 -132 4 -58 10
-119 15 -137 6 -23 4 -35 -6 -44 -23 -19 -62 14 -69 58 -11 70 -26 126 -41
155 -15 29 -34 38 -34 14 0 -7 -13 -46 -30 -86 -27 -66 -30 -83 -30 -182 0
-95 -2 -109 -16 -106 -27 5 -66 123 -69 210 -2 42 -5 81 -9 86 -3 5 3 33 14
63 17 48 20 103 28 499 l10 445 31 108 c20 70 31 129 31 172 0 36 2 65 5 65 3
0 29 -19 58 -43z m528 -222 c44 -40 124 -103 177 -139 90 -60 274 -156 301
-156 6 0 11 -4 11 -10 0 -6 -54 -10 -142 -10 -162 0 -294 25 -413 79 -104 48
-122 64 -135 124 -12 59 -29 238 -23 249 10 18 148 -67 224 -137z m884 108
c-5 -21 -13 -99 -19 -173 l-11 -135 -85 -32 c-47 -18 -117 -40 -157 -49 l-72
-17 -73 28 c-88 33 -228 106 -228 117 0 5 12 13 28 19 47 18 200 109 251 149
36 28 71 45 128 59 43 12 112 32 153 45 41 13 79 24 84 25 4 1 5 -16 1 -36z
m-1135 -11 c0 -11 -9 -27 -20 -37 -20 -18 -20 -17 -20 18 0 30 4 37 20 37 13
0 20 -7 20 -18z m-1267 -179 c106 -179 171 -318 232 -495 33 -96 58 -153 66
-153 9 0 21 32 35 95 30 135 68 266 114 388 42 110 129 283 146 289 27 9 159
-279 210 -456 25 -88 26 -97 22 -318 -4 -210 -6 -236 -31 -326 -31 -113 -28
-147 23 -247 17 -33 30 -64 30 -70 0 -7 -180 -10 -550 -10 l-550 0 -44 88
c-187 372 -284 770 -274 1127 l3 120 79 -125 c44 -69 109 -180 145 -247 36
-68 68 -123 73 -123 8 0 12 15 53 195 38 167 118 395 139 395 2 0 38 -57 79
-127z m1547 117 c107 -31 249 -33 445 -4 l40 6 -70 -47 c-71 -48 -217 -125
-234 -125 -12 0 -202 142 -220 164 -16 19 -9 20 39 6z m-270 -42 c1 -24 5 -63
9 -87 8 -41 7 -47 -18 -70 -68 -64 -81 -184 -81 -764 l0 -458 -121 3 -122 3
-2 115 c-3 99 0 123 19 175 21 55 24 58 34 38 7 -12 16 -51 21 -86 10 -73 23
-102 51 -117 56 -30 89 5 71 75 -6 24 -11 83 -11 130 0 66 -5 95 -20 125 -36
71 -19 280 46 555 19 83 44 193 55 245 31 144 69 207 69 118z m1222 -37 c3 -3
31 -73 62 -154 64 -170 107 -259 141 -293 22 -22 33 -24 109 -24 97 0 125 8
174 51 l34 31 39 -72 c84 -154 142 -220 345 -391 79 -67 144 -126 144 -131 0
-4 -64 -8 -143 -8 -79 0 -146 -3 -150 -6 -3 -4 0 -19 8 -34 l14 -27 -56 -6
c-31 -3 -60 -10 -65 -15 -5 -5 6 -26 27 -52 59 -70 78 -116 79 -190 1 -91 -22
-148 -109 -269 -41 -57 -79 -119 -86 -138 l-11 -33 -304 0 -304 0 0 71 c0 39
7 207 17 372 20 374 23 905 4 997 -7 36 -23 89 -37 119 -17 38 -24 71 -24 115
0 96 5 105 48 99 21 -3 40 -8 44 -12z m1052 -93 c4 -40 10 -84 13 -98 13 -55
-9 -8 -31 68 -16 57 -20 84 -13 91 20 20 24 11 31 -61z m-179 -208 c65 -180
165 -486 165 -503 -1 -21 -29 24 -81 127 -67 132 -126 213 -227 315 l-84 83
78 79 c60 61 80 75 87 64 4 -8 32 -82 62 -165z m-1974 116 c57 -29 111 -55
118 -58 13 -4 10 -26 -17 -134 -39 -158 -75 -358 -96 -524 -43 -351 -48 -702
-9 -741 6 -6 50 -21 98 -34 48 -14 90 -26 92 -28 2 -3 -5 -67 -16 -143 -24
-168 -47 -470 -38 -504 5 -20 31 -37 119 -80 99 -48 142 -80 109 -80 -7 0
-355 -143 -427 -176 -7 -3 -14 11 -18 38 -20 139 -49 529 -78 1058 -16 296
-15 1230 1 1319 14 71 39 141 51 141 4 0 54 -24 111 -54z m1020 -43 c42 -87
43 -468 4 -1223 -9 -162 -18 -512 -22 -777 -3 -266 -8 -483 -11 -483 -6 0
-471 184 -518 205 -31 13 -32 15 -38 97 -13 180 -12 190 13 200 23 8 23 11 18
81 -4 39 -10 140 -13 224 l-7 152 102 -6 c63 -4 101 -2 101 4 0 5 -7 54 -15
109 -46 305 -67 671 -63 1064 l3 284 89 18 c49 10 139 35 200 57 61 21 116 39
123 40 6 0 22 -20 34 -46z m-4867 -74 l76 -50 -1 -92 c-1 -51 -4 -103 -8 -117
-7 -24 -9 -22 -45 34 -76 118 -138 276 -108 276 6 0 44 -23 86 -51z m4015 8
c-54 -187 -86 -444 -99 -808 -13 -322 -6 -475 20 -489 46 -25 427 -87 442 -72
4 4 3 50 -2 102 -23 241 -32 474 -31 828 0 210 4 394 7 407 3 14 13 25 23 25
15 0 16 -36 16 -398 1 -409 10 -581 46 -822 11 -74 22 -155 26 -179 l6 -43
-74 7 c-107 10 -340 51 -444 77 l-89 23 -9 40 c-12 55 -1 430 18 595 28 243
99 656 125 726 14 37 31 21 19 -19z m2721 22 c0 -37 -63 -172 -121 -258 -31
-48 -95 -122 -141 -166 -131 -125 -298 -267 -298 -253 0 8 21 47 47 88 25 41
71 120 101 175 73 134 127 208 218 300 66 65 161 135 187 135 4 0 7 -9 7 -21z
m-2555 -20 c33 -5 82 -9 109 -9 l48 0 -5 -32 c-25 -142 -13 -931 18 -1187 8
-69 12 -127 10 -130 -5 -5 -287 40 -379 60 l-48 11 5 367 c6 427 23 610 83
870 l16 73 42 -7 c22 -4 68 -11 101 -16z m1474 -90 c93 -93 158 -181 217 -293
26 -50 67 -122 91 -160 47 -73 67 -116 55 -116 -11 0 -180 149 -289 254 -93
90 -157 175 -208 276 l-28 54 34 28 c18 15 39 28 45 28 7 0 44 -32 83 -71z
m-5416 -324 c25 -60 53 -136 62 -169 l17 -58 -28 -57 c-29 -56 -29 -57 -26
-213 l3 -157 -62 -148 c-164 -393 -181 -459 -178 -703 2 -166 1 -179 -19 -207
-28 -40 -100 -77 -208 -106 -93 -25 -146 -48 -176 -75 -26 -22 -23 -9 26 97
116 254 314 959 380 1356 37 216 65 477 66 595 0 41 3 105 6 142 l7 66 42
-126 c24 -70 63 -176 88 -237z m742 218 c72 -3 155 -1 185 5 30 6 57 8 59 6 2
-2 0 -23 -5 -46 l-9 -42 -87 -28 c-48 -15 -117 -32 -154 -38 l-67 -11 -38 37
c-21 21 -37 40 -35 42 3 2 28 -3 58 -11 64 -18 170 -31 148 -18 -8 4 -35 11
-60 15 -90 14 -178 46 -199 73 -35 44 -28 53 27 36 26 -8 106 -17 177 -20z
m209 -134 c-16 -17 -47 -44 -68 -60 -34 -25 -48 -29 -106 -29 -61 0 -69 2 -84
25 -9 13 -16 26 -16 28 0 2 26 7 58 10 32 4 92 17 133 31 41 13 83 24 93 25
17 1 16 -3 -10 -30z m60 -6 c3 -10 10 -87 16 -172 l12 -154 -67 -98 c-48 -71
-72 -99 -87 -99 -25 0 -24 3 41 109 46 76 58 101 48 101 -2 0 -28 -39 -57 -87
-61 -102 -78 -123 -97 -123 -24 0 -13 35 41 130 30 52 53 97 50 99 -7 7 -43
-44 -81 -116 -38 -73 -46 -82 -58 -62 -15 22 8 81 75 193 69 116 79 146 20 60
-33 -47 -50 -50 -50 -8 0 41 49 124 102 173 27 25 55 51 62 58 16 17 24 16 30
-4z m-253 -124 c51 -22 55 -31 40 -72 -7 -18 -5 -32 8 -54 l18 -29 -42 -69
c-35 -58 -41 -75 -34 -97 5 -18 4 -28 -3 -28 -11 0 -139 92 -156 113 -7 9 5
37 44 102 36 60 54 101 54 123 0 38 6 39 71 11z m79 12 c0 -18 -17 -20 -36 -6
-18 14 -18 14 9 15 15 0 27 -4 27 -9z m210 -275 c0 -24 -9 -43 -29 -65 -26
-28 -61 -42 -61 -24 0 11 74 122 83 123 4 0 7 -15 7 -34z m-950 -28 c0 -63 42
-264 70 -337 33 -85 95 -188 137 -227 14 -13 38 -24 53 -24 25 0 29 -5 45 -62
28 -101 113 -352 161 -477 45 -117 164 -374 171 -368 2 2 -14 42 -36 88 -57
124 -161 401 -224 594 -78 241 -76 230 -33 274 44 45 190 328 213 414 9 34 20
66 24 71 5 6 34 -10 69 -37 59 -46 61 -47 134 -47 70 0 73 -1 70 -22 -9 -55
-85 -485 -90 -503 -4 -16 -3 -17 4 -5 12 18 75 297 97 430 11 63 23 102 36
116 10 11 19 27 19 35 1 13 33 59 43 59 2 0 12 -30 22 -66 17 -63 17 -76 1
-298 -39 -520 -46 -668 -44 -1011 1 -192 3 -303 5 -245 17 647 49 1280 71
1405 l7 40 33 -59 c58 -102 165 -196 225 -196 11 0 21 -25 37 -92 70 -308 224
-782 326 -1011 57 -126 58 -159 5 -218 -21 -25 -63 -58 -92 -74 -51 -28 -60
-29 -155 -26 -87 2 -112 -1 -180 -24 -107 -36 -197 -85 -268 -146 -32 -27 -82
-62 -110 -76 -45 -23 -59 -25 -126 -20 -43 3 -116 18 -171 36 -112 36 -222 41
-323 15 -90 -24 -249 -15 -338 18 -85 32 -167 81 -224 134 l-44 40 25 74 c14
40 36 130 50 199 23 113 26 155 29 401 4 325 2 315 147 681 100 251 109 294
86 402 -15 69 -12 107 14 169 14 33 29 22 29 -24z m518 4 l42 -39 -20 -74
c-25 -92 -152 -346 -202 -404 -57 -65 -90 -67 -108 -5 -23 81 34 250 123 363
25 32 60 89 78 127 18 39 35 70 39 70 4 0 25 -17 48 -38z m5598 16 c4 -4 1
-14 -6 -23 -11 -13 -60 -15 -349 -15 -322 0 -337 1 -348 19 -11 18 -9 20 25
24 66 7 670 2 678 -5z m80 -109 c-58 -69 -71 -104 -71 -199 0 -75 4 -93 31
-150 17 -36 57 -96 87 -134 50 -62 87 -135 87 -173 0 -11 -103 -13 -565 -13
-462 0 -565 2 -565 13 0 38 37 111 87 173 30 38 70 98 87 134 27 57 31 75 31
150 0 93 -16 137 -76 205 l-31 35 467 0 467 0 -36 -41z m-5296 -9 c0 -5 -9
-10 -19 -10 -11 0 -23 5 -26 10 -4 6 5 10 19 10 14 0 26 -4 26 -10z m2064
-236 c9 -3 16 -14 16 -25 0 -23 29 -40 51 -28 9 4 20 20 23 35 l7 26 119 -4
c65 -2 121 -5 123 -8 3 -3 7 -86 9 -185 l3 -180 -894 -3 c-709 -2 -896 0 -903
10 -9 16 -11 352 -1 361 8 9 1426 9 1447 1z m61 -14 c0 -7 -6 -15 -12 -17 -8
-3 -13 4 -13 17 0 13 5 20 13 18 6 -3 12 -11 12 -18z m809 -336 c50 -9 94 -19
97 -23 4 -3 10 -90 14 -193 5 -155 4 -188 -7 -188 -25 0 -153 -67 -215 -114
-74 -54 -70 -67 -48 145 25 239 47 389 57 389 6 0 51 -7 102 -16z m-5378 -86
c6 -6 -109 -415 -120 -425 -2 -2 -273 -2 -603 -1 l-600 3 59 205 c32 113 62
208 66 211 4 4 16 9 27 12 31 8 1162 3 1171 -5z m960 3 l92 -6 -57 -195 c-31
-107 -60 -203 -64 -212 -6 -17 -40 -18 -512 -18 -478 0 -506 1 -501 18 3 9 28
98 56 197 28 99 53 188 56 197 4 15 23 18 137 21 250 5 702 5 793 -2z m2489
-2 c3 -4 -4 -100 -17 -215 l-23 -209 -162 -3 -162 -2 -60 187 c-33 104 -63
200 -67 215 l-6 27 69 4 c103 6 420 3 428 -4z m833 1 l182 0 0 -215 0 -215
-510 0 -510 0 0 29 c0 30 25 293 36 370 l6 44 306 -6 c169 -4 389 -7 490 -7z
m596 -127 c3 -71 9 -167 13 -215 l6 -88 -201 0 -201 0 -3 215 -3 215 191 0
191 0 7 -127z m1792 -53 c18 -96 35 -192 38 -212 l6 -38 -316 0 -317 0 6 98
c4 53 7 150 7 215 l0 117 272 -2 273 -3 31 -175z m44 139 c15 -53 76 -112 148
-141 56 -22 65 -23 447 -23 385 0 391 1 448 24 32 12 60 21 62 19 5 -5 65
-237 65 -253 0 -13 -75 -15 -569 -15 l-569 0 -37 198 c-20 108 -39 205 -42
215 -3 12 1 17 16 17 15 0 23 -10 31 -41z m2210 36 c0 -3 24 -87 54 -187 29
-101 56 -195 60 -210 l6 -28 -559 0 -560 0 -10 38 c-6 20 -23 87 -39 147 l-29
111 23 29 c14 17 29 47 35 68 l10 37 504 0 c278 0 505 -2 505 -5z m1278 -142
c23 -82 51 -178 61 -215 l20 -68 -603 0 -603 0 -62 208 c-34 114 -61 210 -61
215 0 4 271 7 603 7 l602 0 43 -147z m-2332 125 c16 -16 -46 -86 -99 -112 -80
-40 -145 -46 -477 -46 -331 0 -383 6 -467 55 -35 21 -83 78 -83 98 0 3 10 8
23 10 38 8 1095 2 1103 -5z m-2366 -335 c0 -13 -21 -26 -68 -45 -59 -25 -137
-70 -209 -124 -22 -16 -23 -15 -23 4 0 30 72 87 174 138 95 48 126 54 126 27z
m-42 -196 c2 -80 -1 -127 -7 -127 -6 0 -42 21 -81 46 -39 25 -85 50 -103 56
-17 6 -36 14 -40 18 -17 15 191 146 217 137 7 -2 12 -50 14 -130z m-5598 77
c0 -14 -71 -261 -205 -714 l-43 -145 -88 -8 c-107 -9 -1099 -5 -1109 5 -4 4
48 195 115 425 68 230 125 426 127 436 5 16 42 17 604 17 544 0 599 -1 599
-16z m1050 6 c0 -15 -72 -203 -115 -297 -23 -53 -34 -90 -30 -103 4 -11 33
-39 65 -62 53 -37 59 -45 53 -67 -4 -14 -25 -96 -47 -181 l-41 -155 -105 -6
c-139 -9 -955 -10 -1002 -3 -21 4 -38 12 -38 19 0 12 206 724 236 818 l16 47
504 0 c334 0 504 -3 504 -10z m2486 -37 c-3 -27 -24 -223 -47 -438 -23 -214
-44 -392 -46 -395 -3 -3 -85 -5 -183 -5 -156 0 -180 2 -197 18 -23 20 -125 41
-169 34 -38 -6 -138 36 -132 55 6 18 58 47 136 74 55 19 87 24 181 24 95 0
122 4 157 20 90 44 174 142 174 204 0 14 -13 46 -30 73 -28 46 -140 340 -140
369 0 11 29 14 151 14 l151 0 -6 -47z m1062 -394 l2 -437 -297 -7 c-294 -7
-808 -3 -818 7 -3 3 15 198 40 434 25 236 45 432 45 436 0 5 231 7 513 6 l512
-3 3 -436z m444 356 c11 -113 38 -337 44 -357 7 -24 66 -49 146 -60 l71 -11
-6 -96 c-6 -113 -28 -194 -65 -239 l-27 -33 -230 -6 c-126 -3 -256 -3 -287 1
l-58 7 0 440 0 439 203 -2 202 -3 7 -80z m1818 79 c0 -4 33 -185 74 -403 41
-218 77 -415 81 -438 l7 -43 -379 0 c-208 0 -408 3 -445 6 -63 6 -69 9 -92 43
-25 36 -49 111 -61 193 l-7 44 89 44 88 45 3 245 c1 135 4 251 7 258 3 9 77
12 320 12 173 0 315 -3 315 -6z m1173 -1 c7 -11 227 -859 227 -873 0 -8 -167
-11 -599 -8 -330 2 -601 5 -604 8 -2 3 -39 190 -81 415 -42 226 -79 422 -82
438 l-6 27 571 0 c313 0 572 -3 574 -7z m1171 -40 c30 -91 236 -806 236 -818
0 -7 -17 -15 -37 -19 -49 -8 -958 -6 -1043 3 l-65 6 -31 120 c-128 488 -191
744 -186 749 3 3 254 6 558 6 l552 0 16 -47z m1225 30 c9 -18 74 -236 191
-641 34 -117 59 -216 55 -220 -9 -10 -1181 -9 -1191 0 -8 9 -240 792 -250 846
l-6 32 596 0 c557 0 596 -1 605 -17z m-9062 -245 c-8 -114 -46 -288 -65 -295
-24 -10 -161 25 -231 57 -88 41 -131 71 -131 92 0 9 19 33 42 52 32 28 71 46
168 76 78 24 142 51 166 69 21 16 43 30 48 30 5 1 6 -35 3 -81z m4508 -76
c277 -112 319 -131 312 -138 -3 -3 -54 13 -113 36 -60 23 -183 69 -274 102
-91 33 -169 64 -174 68 -11 11 3 33 18 26 6 -2 110 -45 231 -94z m-285 80 c0
-14 -457 -188 -467 -178 -3 3 5 10 18 15 403 167 449 184 449 163z m112 -63
l76 -31 12 -71 c6 -40 15 -94 21 -121 5 -27 7 -51 4 -54 -8 -8 -158 16 -216
35 -52 17 -54 19 -53 53 2 86 18 206 28 212 20 14 50 8 128 -23z m-162 -21 c0
-35 -29 -194 -51 -281 -14 -56 -17 -83 -9 -97 13 -24 13 -77 0 -85 -7 -4 -5
-14 5 -28 16 -23 20 -94 6 -116 -10 -16 -16 -7 -26 37 -13 61 -83 122 -140
122 -30 0 -29 -5 -9 90 12 55 15 106 11 192 l-5 116 96 36 c116 42 122 42 122
14z m420 -78 l45 -18 7 -119 c3 -65 13 -145 21 -176 l15 -57 -31 0 c-62 0
-127 -61 -143 -133 -3 -15 -11 -26 -17 -24 -18 6 -20 74 -3 107 8 17 10 32 5
36 -12 7 -11 48 2 77 9 20 6 48 -15 137 -15 62 -29 140 -33 172 l-6 59 54 -22
c30 -11 74 -29 99 -39z m-660 -25 c0 -35 0 -35 -44 -35 -54 0 -106 10 -106 20
0 9 105 48 133 49 13 1 17 -7 17 -34z m814 -36 c31 -12 56 -25 56 -28 0 -8
-105 -61 -120 -61 -6 0 -10 25 -10 55 0 30 4 55 9 55 5 0 34 -10 65 -21z
m-4949 -79 c38 -11 82 -20 97 -20 38 0 43 -15 19 -54 l-21 -33 53 -50 c63 -60
130 -106 197 -137 l50 -23 -37 -7 c-55 -9 -553 -7 -553 2 0 9 54 223 76 301
12 42 19 52 32 47 9 -3 48 -14 87 -26z m4531 -50 c26 0 28 -7 45 -158 6 -57 8
-106 4 -110 -4 -4 -51 -9 -106 -10 l-99 -4 -15 36 c-9 20 -13 46 -10 59 3 12
0 40 -8 62 -8 22 -13 45 -11 50 2 6 10 36 19 67 l16 56 71 -24 c39 -13 82 -24
94 -24z m118 -16 c23 -9 39 -66 26 -98 -5 -15 -10 -44 -10 -65 0 -48 -19 -103
-34 -98 -10 3 -33 155 -35 235 -1 33 15 41 53 26z m-3029 -199 c33 -16 61 -30
63 -31 2 -1 -6 -20 -17 -43 -12 -22 -21 -52 -21 -67 l0 -27 -112 8 c-113 7
-158 21 -158 49 0 8 15 21 33 29 17 9 56 39 86 67 30 28 57 49 60 48 3 -2 33
-17 66 -33z m2595 0 c57 -29 96 -131 64 -166 -24 -27 -29 -25 -48 26 -18 47
-66 95 -94 95 -9 0 -24 4 -32 10 -12 7 -12 12 4 29 22 25 65 27 106 6z m689
-9 c19 -21 20 -24 6 -30 -9 -3 -25 -6 -35 -6 -27 0 -87 -63 -95 -99 -4 -17
-11 -33 -16 -37 -18 -11 -39 18 -39 53 0 103 119 183 179 119z m-3062 -30 c1
-1 -9 -24 -22 -50 -14 -27 -27 -64 -31 -83 -5 -25 -10 -33 -22 -28 -8 3 -34
10 -58 16 -38 10 -44 15 -44 38 0 15 14 49 30 75 l31 48 57 -7 c31 -4 58 -8
59 -9z m-892 -16 c4 -6 -23 -10 -75 -10 -52 0 -79 4 -75 10 3 6 37 10 75 10
38 0 72 -4 75 -10z m3212 -26 c21 -13 63 -82 63 -101 0 -5 -12 -16 -27 -25
-16 -9 -44 -41 -63 -72 -24 -39 -49 -63 -82 -81 -26 -14 -50 -30 -53 -35 -10
-16 -52 -11 -59 6 -7 18 -2 29 27 61 11 13 17 26 14 30 -10 9 -48 -27 -59 -56
-8 -23 -10 -24 -26 -7 -16 16 -15 19 13 42 25 20 27 24 11 24 -11 0 -28 -8
-38 -17 -13 -11 -22 -13 -29 -6 -11 11 8 37 33 46 7 2 10 8 5 12 -4 5 -20 -1
-36 -13 -27 -19 -41 -20 -41 -1 0 4 38 35 83 68 46 33 90 68 98 77 8 10 32 30
54 46 42 31 67 31 112 2z m832 -28 c32 -30 91 -78 130 -106 63 -46 89 -80 61
-80 -5 0 -10 5 -10 10 0 13 -41 30 -54 22 -5 -3 3 -11 18 -19 14 -7 26 -18 26
-23 0 -18 -22 -22 -39 -6 -10 9 -25 16 -35 16 -13 0 -11 -5 11 -24 24 -21 26
-26 14 -40 -13 -15 -15 -14 -31 11 -17 29 -50 61 -50 49 0 -4 9 -20 21 -35 24
-32 22 -64 -3 -69 -33 -6 -139 69 -174 124 -18 28 -44 58 -58 68 -31 20 -33
49 -6 94 20 32 67 61 103 62 9 0 44 -24 76 -54z m-3089 19 l23 -25 -24 0 c-21
-1 -22 -2 -6 -11 29 -17 19 -28 -20 -22 l-38 5 33 -21 c28 -18 32 -24 22 -36
-7 -8 -28 -15 -46 -15 -32 0 -34 2 -34 33 0 41 35 117 53 117 7 0 24 -11 37
-25z m-1388 -22 c-6 -29 18 -53 52 -53 19 1 18 3 -6 21 -16 11 -28 29 -28 40
0 17 8 19 80 19 47 0 80 -4 80 -10 0 -5 7 -10 15 -10 15 0 52 -17 82 -37 9 -7
4 -24 -17 -67 -17 -32 -30 -67 -30 -77 0 -24 -5 -24 -120 1 -121 26 -142 45
-134 123 7 63 11 77 22 77 5 0 7 -12 4 -27z m485 12 c1 -5 -1 -16 -5 -23 -7
-10 -15 -10 -38 -1 -16 7 -64 13 -106 13 -48 1 -82 6 -90 14 -10 10 10 12 111
10 72 -2 126 -7 128 -13z m3630 -22 c-3 -10 -5 -4 -5 12 0 17 2 24 5 18 2 -7
2 -21 0 -30z m-2688 -59 c-18 -22 -20 -12 -7 32 12 37 12 38 16 11 2 -16 -2
-35 -9 -43z m-986 34 c24 -12 22 -20 -23 -84 -22 -32 -43 -75 -46 -96 -4 -21
-10 -38 -14 -38 -4 0 -30 10 -59 21 -33 14 -51 28 -51 39 0 29 60 138 88 160
26 21 62 20 105 -2z m414 -8 c27 -13 68 -21 138 -26 55 -3 150 -17 210 -31
118 -27 184 -26 214 1 25 23 38 20 16 -4 -39 -43 -65 -43 -331 0 -250 40 -294
51 -294 70 0 14 4 13 47 -10z m2976 -3 c-4 -8 -36 -37 -70 -65 -33 -28 -74
-69 -90 -91 -33 -48 -150 -128 -199 -137 -77 -14 -184 28 -184 74 0 13 4 12
23 -5 36 -33 63 -43 117 -43 78 0 152 43 239 137 102 111 197 186 164 130z
m476 -127 c46 -51 89 -87 131 -109 55 -30 69 -33 125 -29 49 3 70 10 99 31 41
32 49 18 10 -18 -30 -27 -81 -45 -133 -45 -61 0 -147 57 -273 182 -119 118
-157 172 -73 101 25 -20 76 -71 114 -113z m-3779 90 c12 0 40 -29 40 -41 0 -5
-18 -6 -42 -3 -30 5 -39 4 -34 -4 4 -7 14 -12 21 -12 17 0 38 -36 29 -51 -4
-7 -12 -5 -22 4 -23 19 -52 29 -52 17 0 -5 9 -14 20 -20 22 -12 26 -35 9 -45
-5 -4 -18 0 -28 9 -26 24 -49 21 -27 -3 23 -25 13 -41 -25 -41 -23 0 -29 4
-29 23 1 55 88 184 117 173 8 -4 18 -6 23 -6z m3140 -70 c-35 -45 -47 -51 -29
-17 16 30 40 57 51 57 5 0 -5 -18 -22 -40z m654 9 c14 -17 26 -36 26 -42 0 -7
-3 -7 -8 -1 -4 5 -20 24 -36 42 -17 17 -25 32 -19 32 6 0 23 -14 37 -31z
m-4327 -19 c21 -10 74 -26 117 -35 66 -14 216 -75 216 -89 0 -16 -353 108
-371 130 -16 19 -7 18 38 -6z m612 -62 c-7 -17 -30 -43 -52 -59 -34 -24 -49
-29 -96 -28 l-56 1 54 9 c64 11 97 33 131 87 28 44 39 38 19 -10z m2764 -40
c20 -20 24 -28 13 -28 -21 0 -97 70 -90 82 6 9 23 -3 77 -54z m1317 54 c0 -16
-33 -53 -60 -67 -53 -27 -54 -16 -4 30 47 44 64 53 64 37z m-4140 -22 c0 -5
-5 -10 -11 -10 -5 0 -7 5 -4 10 3 6 8 10 11 10 2 0 4 -4 4 -10z"/>
<path d="M7880 6813 c-72 -36 -196 -187 -188 -230 2 -11 17 7 43 52 29 49 61
86 113 128 88 73 92 79 32 50z"/>
<path d="M7080 7000 c0 -5 4 -10 9 -10 6 0 13 5 16 10 3 6 -1 10 -9 10 -9 0
-16 -4 -16 -10z"/>
<path d="M7191 6586 c-16 -19 7 -27 53 -19 60 9 101 -5 155 -53 28 -25 51 -41
51 -35 0 17 -70 91 -101 107 -36 18 -143 19 -158 0z"/>
<path d="M6924 6456 c-8 -22 0 -81 11 -80 16 2 35 48 28 72 -6 25 -31 30 -39
8z"/>
<path d="M7010 6343 c-17 -54 -34 -119 -37 -144 l-5 -46 44 -22 c24 -11 55
-21 69 -20 19 0 12 6 -28 24 -28 13 -54 28 -57 34 -6 10 8 76 42 199 31 107 8
87 -28 -25z"/>
<path d="M7228 6418 c-4 -62 11 -90 37 -68 28 23 16 90 -16 90 -13 0 -20 -8
-21 -22z"/>
<path d="M7632 6424 c-26 -18 -29 -42 -4 -40 13 1 17 -6 15 -32 -1 -21 3 -32
10 -29 16 5 21 57 8 70 -15 15 -14 27 4 27 8 0 21 -12 29 -27 l15 -28 1 27 c0
17 -7 31 -19 38 -26 13 -33 13 -59 -6z"/>
<path d="M7294 6084 c-44 -91 -207 -121 -281 -52 -23 21 -25 21 -22 3 2 -10
19 -30 38 -42 50 -34 140 -32 212 5 60 30 97 79 81 108 -8 14 -12 10 -28 -22z"/>
<path d="M3543 5450 c9 -63 66 -194 138 -316 123 -208 148 -232 343 -339 138
-75 191 -152 222 -317 9 -46 19 -99 24 -118 16 -70 11 66 -6 148 -33 159 -95
236 -264 327 -142 76 -168 100 -257 237 -92 141 -142 236 -179 340 -16 47 -24
60 -21 38z"/>
<path d="M4123 5960 c-18 -11 -33 -27 -33 -35 0 -12 8 -10 37 10 21 14 44 25
53 25 8 0 22 5 30 10 31 20 -55 10 -87 -10z"/>
<path d="M3763 5930 c-42 -13 -57 -36 -18 -26 16 4 70 7 119 7 60 0 86 3 75 9
-24 14 -140 20 -176 10z"/>
<path d="M4147 5872 c-12 -13 -14 -26 -9 -47 8 -29 36 -54 48 -43 9 10 23 91
18 100 -9 14 -41 8 -57 -10z"/>
<path d="M3820 5832 c-19 -16 -21 -23 -13 -47 11 -34 38 -54 52 -40 5 6 11 30
13 55 4 52 -14 63 -52 32z"/>
<path d="M4053 5750 c8 -25 20 -62 27 -82 12 -34 12 -39 -5 -58 -23 -26 -16
-34 13 -14 28 20 28 36 -4 115 -31 77 -50 101 -31 39z"/>
<path d="M3960 5500 c-20 -6 -14 -8 25 -8 28 0 59 3 70 8 27 11 -59 11 -95 0z"/>
<path d="M3380 4966 c0 -2 23 -18 51 -36 99 -61 215 -190 255 -286 9 -22 19
-34 21 -27 13 35 -103 198 -195 275 -56 47 -132 89 -132 74z"/>
<path d="M8887 4582 c-36 -26 -77 -77 -77 -97 0 -5 14 8 32 29 17 21 49 51 71
67 22 16 34 29 26 29 -8 -1 -31 -13 -52 -28z"/>
<path d="M116 8153 c-4 -43 -13 -220 -22 -393 -19 -405 -44 -707 -79 -955 -16
-111 -19 -292 -5 -240 15 52 58 354 74 515 23 229 35 413 46 715 12 335 13
435 1 435 -5 0 -12 -35 -15 -77z"/>
</g>
</svg>
